<?xml version="1.0" standalone="no"?>
<!DOCTYPE svg PUBLIC "-//W3C//DTD SVG 20010904//EN"
 "http://www.w3.org/TR/2001/REC-SVG-20010904/DTD/svg10.dtd">
<svg version="1.0" xmlns="http://www.w3.org/2000/svg"
 width="512.000000pt" height="512.000000pt" viewBox="0 0 512.000000 512.000000"
 preserveAspectRatio="xMidYMid meet">
<metadata>
Created by potrace 1.16, written by Peter Selinger 2001-2019
</metadata>
<g transform="translate(0.000000,512.000000) scale(0.100000,-0.100000)"
fill="#000000" stroke="none">
<path d="M435 5101 c-206 -60 -366 -224 -419 -428 -14 -54 -16 -281 -16 -2113
0 -2278 -5 -2100 67 -2244 48 -96 153 -201 249 -249 144 -72 -34 -67 2244 -67
2278 0 2100 -5 2244 67 96 48 201 153 249 249 72 144 67 -34 67 2244 0 2278 5
2100 -67 2244 -48 96 -153 201 -249 249 -144 72 35 67 -2250 66 -1931 0 -2063
-2 -2119 -18z m4177 -414 c31 -18 57 -44 75 -75 l28 -47 0 -2005 0 -2005 -28
-47 c-18 -31 -44 -57 -75 -75 l-47 -28 -2005 0 -2005 0 -47 28 c-31 18 -57 44
-75 75 l-28 47 0 2005 0 2005 27 47 c30 51 82 88 137 99 20 4 927 6 2016 5
l1980 -1 47 -28z"/>
<path d="M3085 2850 c-506 -566 -923 -1028 -927 -1027 -3 1 -217 203 -475 448
-257 245 -497 472 -532 505 l-64 59 -139 -145 c-76 -79 -138 -148 -138 -151 0
-8 1358 -1302 1371 -1307 8 -4 2122 2353 2127 2371 2 10 -278 268 -296 274 -4
1 -421 -461 -927 -1027z"/>
</g>
</svg>
