<svg xmlns="http://www.w3.org/2000/svg" width="153" height="173" fill="none" viewBox="0 0 153 173">
    <path fill="#A0505A" d="M88.777 133.229l-1.01 2.755-4.666 12.702c-1.75 1.237-3.961 2.031-6.44 2.031-.294 0-.646-.072-.945-.089-2.593-.18-5.078-1.315-6.799-2.761l1.392-15.319.102-1.111c7.522 2.916 16.293 2.426 18.366 1.792z"/>
    <path fill="#73325A" d="M88.778 133.229l-1.978 5.377c-6.034.819-14.876-4.116-16.484-6.058l.102-1.111c7.516 2.916 16.287 2.426 18.36 1.792z"/>
    <path fill="#fff" d="M83.195 148.668l-1.428 14.954c-.257 3.944-3.28 6.961-6.865 6.961-.161 0-.322-.006-.49-.018-3.8-.287-6.661-3.866-6.393-7.988l.867-13.216.09-1.416c.764.717 1.654 1.332 2.64 1.81 1.237.598 2.617.986 4.093 1.1.299.023.591.035.884.035.849 0 1.679-.095 2.468-.274l.077-.018c1.476-.347 2.826-.986 3.95-1.853.041-.023.077-.047.107-.077z"/>
    <path fill="#FFCF2D" fill-rule="evenodd" d="M68.846 147.619l.231.217c.754.707 1.632 1.313 2.604 1.785 1.22.589 2.582.973 4.04 1.085.295.023.583.035.872.035.837 0 1.656-.094 2.433-.271l.04-.009h.001l.035-.008.001-.001h.001c1.456-.342 2.787-.972 3.892-1.825l.008-.006.01-.005c.037-.022.06-.038.075-.054l.294-.294-1.467 15.366c-.262 4.011-3.341 7.098-7.014 7.098-.165 0-.33-.006-.5-.018H74.4c-3.893-.294-6.804-3.954-6.53-8.147l.866-13.216.11-1.732zm.259.646l-.07 1.105v.001l-.867 13.216c-.264 4.052 2.548 7.549 6.255 7.829.164.012.322.018.48.018 3.495 0 6.463-2.946 6.715-6.821v-.003l1.397-14.622c-1.107.816-2.418 1.42-3.842 1.755l-.041.009-.035.008-.002.001h-.001c-.8.182-1.641.279-2.501.279-.297 0-.593-.012-.896-.037-1.495-.115-2.893-.508-4.146-1.113-.901-.437-1.724-.988-2.446-1.625z" clip-rule="evenodd"/>
    <path fill="#FFCF2D" fill-rule="evenodd" d="M70.134 148.755l-.794 11.908c-.223 3.419 2.153 6.361 5.269 6.598v.001h.002c.133.011.266.017.399.017 2.946 0 5.447-2.48 5.658-5.745v-.002l1.01-11.969.298.026-1.01 11.965c-.22 3.402-2.833 6.024-5.956 6.024-.142 0-.283-.006-.425-.019-3.3-.252-5.775-3.356-5.544-6.916l.795-11.907.298.019z" clip-rule="evenodd"/>
    <path fill="#FFCF2D" d="M79.126 150.466c-.788.162-1.679.191-2.527.191-.293 0-.586-.012-.884-.029-1.476-.102-2.862-.461-4.093-1.01l-.394-1.936c-.251-.825.376-1.655 1.242-1.625l5.736.167c.729.018 1.285.651 1.219 1.374l-.299 2.868z"/>
    <path fill="#FFCF2D" d="M79.067 150.406l-.723 9.088c-.126 1.762-1.798 3.065-3.376 2.778l-.125-.012c-2.247-.412-3.968-2.754-3.675-5.263l.454-7.385c1.237.549 2.617.908 4.093 1.01.299.023.591.029.884.029.849.006 1.68-.083 2.468-.245z"/>
    <path fill="#fff" fill-rule="evenodd" d="M71.498 149.677c.04-.072.131-.098.203-.059.559.308 1.295.517 2.094.653.798.136 1.649.2 2.43.224.781.023 1.49.007 2.005-.014.257-.011.465-.024.609-.034l.165-.011.042-.004.011-.001h.004l.005.063-.005-.063c.08-.007.15.05.16.129.011.08-.043.153-.122.167l-6.863 1.188c-.791.163-.85 1.264-.084 1.51l5.993 1.9c.872.276.745 1.544-.159 1.653l-6.255.734c-.518.064-.547.79-.051.901l6.542 1.494c.08.018.131.099.113.179-.018.08-.098.131-.179.112l-6.542-1.493c-.83-.187-.763-1.385.08-1.489h.001l6.255-.735c.59-.071.666-.894.105-1.072l-5.993-1.9c-1.062-.34-.977-1.865.117-2.087h.004l4.715-.817c-.219-.001-.447-.005-.682-.012-.79-.024-1.655-.088-2.47-.227-.815-.139-1.588-.355-2.19-.686-.071-.04-.098-.131-.058-.203z" clip-rule="evenodd"/>
    <path fill="#FE5244" d="M101.122 99.622l-12.344 33.607c-2.073.634-11.854 1.47-21.401-2.957l7.51-34.743c.7-5.258 5.18-9.189 10.492-9.189h5.52c6.937-.006 12.003 6.566 10.223 13.282z"/>
    <path fill="#fff" fill-rule="evenodd" d="M67.81 126.552c.042-.09.149-.129.239-.087 4.748 2.201 9.766 3.111 13.858 3.39 4.099.279 7.246-.075 8.252-.382.094-.029.194.024.223.119.03.095-.024.195-.119.224-1.067.326-4.265.677-8.38.396-4.122-.281-9.186-1.197-13.985-3.422-.09-.042-.129-.148-.087-.238z" clip-rule="evenodd"/>
    <path fill="#A0505A" d="M105.236 133.892l-1.243 2.205-7.952 13.915c-3.065 1.213-6.68 1.661-9.918.98l-.406-.114c-1.602-.334-3.239-1.23-4.398-2.234l5.802-15.504h.012c2.001.663 8.884 2.527 18.103.752z"/>
    <path fill="#73325A" d="M105.237 133.892l-2.623 4.619c-10.097 1.613-15.821-4.463-15.821-4.463l.334-.902c2.008.657 8.89 2.521 18.11.746z"/>
    <path fill="#FE5244" d="M122.253 104.951l-13.772 28.296c-11.656 2.916-19.363.556-21.353-.101l14.411-38.543c.986-2.336 2.623-4.266 4.648-5.61 2.026-1.344 4.439-2.103 6.973-2.103 9.595 0 13.729 9.655 9.093 18.061z"/>
    <path fill="#fff" fill-rule="evenodd" d="M88.265 130.042c.031-.094.132-.145.226-.114 1.97.651 9.88 3.003 21.493.098.096-.024.193.035.218.131.024.096-.035.193-.131.217-11.7 2.926-19.682.559-21.692-.105-.094-.031-.145-.133-.114-.227z" clip-rule="evenodd"/>
    <path fill="#fff" fill-rule="evenodd" d="M80.19 151.635l21.181-57.094.336.124-21.18 57.094-.337-.124z" clip-rule="evenodd"/>
    <path fill="#fff" d="M95.922 150.054l-.466 1.225-5.282 13.819c-1.512 4.738-6.483 7.552-10.85 6.471l-.239-.078c-3.065-.759-5.013-4.451-3.812-7.713l6.035-14.746.125-.304c.759.681 1.643 1.242 2.629 1.649.526.215 1.081.388 1.66.513l.407.114c1.715.358 3.483.424 5.228.221 1.565-.191 3.107-.586 4.565-1.171z"/>
    <path fill="#FFCF2D" fill-rule="evenodd" d="M81.376 148.475l.158.141c.746.67 1.615 1.223 2.585 1.622.518.212 1.065.383 1.636.506l.005.001.405.114c1.697.354 3.447.419 5.175.218 1.552-.19 3.081-.581 4.527-1.162l.316-.127-.587 1.544-5.28 13.816c-1.535 4.805-6.579 7.667-11.027 6.566l-.005-.002-.24-.077c-3.153-.785-5.14-4.571-3.91-7.909v-.002l6.036-14.748.206-.501zm.116.503l-.046.111-6.033 14.743c-1.17 3.184.737 6.778 3.709 7.514l.005.001.239.078c4.284 1.058 9.178-1.706 10.666-6.372l.002-.004 5.283-13.823v-.001l.346-.909c-1.376.523-2.821.878-4.287 1.057h-.001c-1.76.205-3.544.139-5.276-.223l-.005-.001-.406-.114c-.587-.127-1.15-.302-1.682-.52-.934-.385-1.778-.907-2.514-1.537z" clip-rule="evenodd"/>
    <path fill="#FFCF2D" fill-rule="evenodd" d="M82.272 149.265c.077.031.113.118.082.195l-5.114 12.412c-.973 2.658.617 5.65 3.094 6.266l.005.001.198.066c3.573.884 7.66-1.425 8.903-5.321l.001-.004 4.632-12.24c.03-.077.116-.116.193-.086.077.029.116.115.086.192l-4.629 12.233c-1.29 4.034-5.527 6.443-9.264 5.514l-.006-.001-.197-.066c-2.658-.665-4.326-3.847-3.295-6.659l.001-.003 5.115-12.418c.032-.076.12-.113.195-.081z" clip-rule="evenodd"/>
    <path fill="#FFCF2D" d="M92.44 149.373l-1.088 1.84c-1.739.203-3.507.137-5.228-.221l-.406-.114c-.58-.119-1.136-.292-1.661-.513l.43-2.988c.101-.717.794-1.201 1.505-1.051l5.617 1.177c.848.173 1.272 1.129.83 1.87z"/>
    <path fill="#FFCF2D" d="M91.352 151.213l-.03.048-2.809 7.42c-.77 2.408-3.291 3.836-5.514 3.286l-.12-.041c-1.559-.389-2.55-2.265-1.935-3.92l3.1-7.528.018-.113c.526.215 1.082.388 1.661.513l.407.114c1.714.364 3.483.424 5.222.221z"/>
    <path fill="#fff" fill-rule="evenodd" d="M84.12 150.217c-.073-.034-.16-.004-.197.069-.036.072-.008.16.063.198l5.694 3.036c.615.326.358 1.258-.334 1.224h-.001L83 154.457c-.934-.043-1.283 1.21-.453 1.65l5.024 2.682c.557.298.297 1.155-.338 1.088l-6.452-.699c-.082-.009-.156.051-.165.133-.009.082.05.155.133.164l6.452.699c.955.101 1.364-1.193.51-1.648l-5.024-2.683c-.545-.289-.32-1.116.3-1.087l6.344.287c1.016.049 1.381-1.313.49-1.787m0 0l-4.173-2.224c.123.03.252.06.387.089 1.29.281 3.126.494 5.317.222.082-.01.14-.084.13-.166-.01-.082-.085-.14-.166-.13-2.153.266-3.955.058-5.218-.217-.631-.138-1.128-.292-1.465-.411-.17-.06-.298-.11-.385-.146l-.097-.042-.024-.01-.005-.003h-.002v-.001" clip-rule="evenodd"/>
    <path fill="#D0F0E4" d="M65.62 88.115c24.332 0 44.057-19.726 44.057-44.058S89.952 0 65.62 0 21.562 19.725 21.562 44.057 41.288 88.115 65.62 88.115z"/>
    <path stroke="#FFCF2D" stroke-miterlimit="10" stroke-width="7" d="M50.863 88.12c-18.42-6.165-31.696-23.564-31.696-44.063"/>
    <path fill="#fff" fill-rule="evenodd" d="M54.344 16.835c3.475-1.44 7.284-2.235 11.277-2.235 3.992 0 7.801.795 11.276 2.236.51.211.752.796.54 1.306-.211.51-.796.753-1.306.541-3.237-1.342-6.786-2.083-10.51-2.083-3.725 0-7.275.741-10.51 2.083-.51.212-1.096-.03-1.307-.54-.212-.51.03-1.096.54-1.308zM91.535 32.24c.51-.211 1.096.03 1.307.541 1.441 3.475 2.236 7.284 2.236 11.276 0 3.993-.795 7.802-2.236 11.276-.211.51-.796.753-1.307.541-.51-.211-.752-.797-.54-1.307 1.342-3.236 2.083-6.785 2.083-10.51 0-3.725-.741-7.274-2.083-10.51-.212-.51.03-1.095.54-1.307zm-51.83 0c.51.212.753.797.541 1.307-1.342 3.236-2.083 6.785-2.083 10.51 0 3.725.741 7.274 2.083 10.51.212.51-.03 1.096-.54 1.307-.51.212-1.096-.03-1.307-.54-1.441-3.475-2.236-7.284-2.236-11.277 0-3.992.795-7.801 2.236-11.276.211-.51.796-.752 1.306-.54zm37.732 37.732c.212.51-.03 1.095-.54 1.307-3.475 1.44-7.284 2.236-11.276 2.236-3.993 0-7.802-.795-11.277-2.236-.51-.212-.752-.797-.54-1.307.211-.51.796-.752 1.306-.54 3.236 1.341 6.786 2.083 10.51 2.083 3.725 0 7.274-.742 10.51-2.084.51-.211 1.096.031 1.307.541z" clip-rule="evenodd"/>
    <path fill="#fff" fill-rule="evenodd" d="M65.62 14.606c.551 0 1 .448 1 1v4.738c0 .552-.449 1-1 1-.553 0-1-.448-1-1v-4.738c0-.552.447-1 1-1z" clip-rule="evenodd"/>
    <path stroke="#fff" stroke-linecap="round" stroke-miterlimit="10" stroke-width="2" d="M65.62 67.77v4.745"/>
    <path fill="#fff" fill-rule="evenodd" d="M44.79 23.227c.392-.39 1.025-.39 1.415.001l3.352 3.358c.39.39.39 1.024-.002 1.414-.39.39-1.024.39-1.414-.001L44.79 24.64c-.39-.39-.39-1.024.002-1.414z" clip-rule="evenodd"/>
    <path stroke="#fff" stroke-linecap="round" stroke-miterlimit="10" stroke-width="2" d="M82.385 60.828l3.352 3.352"/>
    <path fill="#fff" fill-rule="evenodd" d="M36.163 44.057c0-.552.448-1 1-1h4.744c.552 0 1 .448 1 1s-.448 1-1 1h-4.744c-.552 0-1-.448-1-1z" clip-rule="evenodd"/>
    <path stroke="#fff" stroke-linecap="round" stroke-miterlimit="10" stroke-width="2" d="M89.333 44.057h4.738"/>
    <path fill="#fff" fill-rule="evenodd" d="M49.556 60.121c.39.39.39 1.024 0 1.414l-3.352 3.352c-.39.39-1.023.39-1.414 0-.39-.39-.39-1.024 0-1.414l3.352-3.352c.39-.39 1.023-.39 1.414 0zM86.443 23.227c.39.39.392 1.023.001 1.414l-3.352 3.358c-.39.39-1.023.391-1.414.001-.39-.39-.391-1.023-.001-1.414l3.352-3.358c.39-.39 1.023-.391 1.414-.001z" clip-rule="evenodd"/>
    <path fill="#D0F0E4" stroke="#fff" stroke-linecap="round" stroke-linejoin="round" stroke-miterlimit="10" stroke-width="2" d="M66.25 74.386c-4.08 0-8.042-.8-11.776-2.378-3.603-1.523-6.835-3.704-9.614-6.482-2.778-2.779-4.959-6.01-6.482-9.614C36.8 52.184 36 48.222 36 44.136c0-8.382 3.25-16.078 9.1-21.39l2.407 2.654c-2.491 2.264-4.325 4.75-5.747 8.083-1.428 3.352-2.181 7.033-2.181 10.647 0 3.603.705 7.092 2.097 10.378 1.344 3.173 3.268 6.029 5.718 8.478 2.45 2.45 5.3 4.374 8.478 5.712 3.286 1.392 6.775 2.097 10.378 2.097 3.603 0 7.092-.705 10.378-2.097 3.172-1.344 6.028-3.268 8.478-5.712 2.45-2.45 4.373-5.3 5.718-8.478 1.392-3.286 2.097-6.775 2.097-10.378 0-3.585-.73-7.068-2.17-10.36-1.385-3.166-3.369-6.022-5.89-8.478-2.516-2.45-5.431-4.38-8.67-5.73-3.34-1.392-6.326-1.977-9.93-1.977V14c4.081 0 7.535.681 11.31 2.252 3.657 1.524 6.95 3.699 9.793 6.471 2.856 2.784 5.103 6.017 6.674 9.607 1.637 3.746 2.474 7.714 2.474 11.794 0 4.081-.801 8.042-2.378 11.776-1.524 3.603-3.705 6.835-6.483 9.614-2.778 2.778-6.01 4.959-9.613 6.482-3.746 1.59-7.707 2.39-11.788 2.39z"/>
    <path stroke="#FE5244" stroke-linecap="round" stroke-miterlimit="10" d="M50.708 28.864l18.778 19.262"/>
    <path fill="#D0F0E4" stroke="#fff" stroke-linecap="round" stroke-miterlimit="10" stroke-width="2" d="M65.823 45.742c.821 0 1.487-.666 1.487-1.488 0-.821-.666-1.487-1.487-1.487-.822 0-1.488.666-1.488 1.487 0 .822.666 1.488 1.488 1.488z"/>
    <path fill="#fff" fill-rule="evenodd" d="M75.195 10.827l-.268 1.912c-.077.547-.582.929-1.13.852-.546-.077-.927-.582-.85-1.13l.27-1.925c.22-1.489 1.717-2.434 3.156-1.993l1.873.567c1.44.433 2.16 2.05 1.519 3.415l-.005.01-.913 1.837c-.245.495-.846.696-1.34.45-.495-.245-.697-.845-.451-1.34l.902-1.816c.117-.26-.023-.561-.288-.641l-1.878-.568-.005-.002c-.267-.082-.549.094-.592.372z" clip-rule="evenodd"/>
    <path fill="#66B0F0" fill-rule="evenodd" d="M60.956 94.627h70.041v77.163h-.358V94.985H61.314v76.805h-.358V94.627z" clip-rule="evenodd"/>
    <path fill="#fff" d="M133.285 97.381H58.667c-1.684 0-3.053-1.368-3.053-3.053V82.695c0-1.684 1.369-3.053 3.053-3.053h74.618c1.685 0 3.053 1.369 3.053 3.053v11.633c0 1.685-1.368 3.053-3.053 3.053z"/>
    <path fill="#66B0F0" fill-rule="evenodd" d="M58.667 79.822c-1.586 0-2.874 1.288-2.874 2.873v11.633c0 1.586 1.288 2.874 2.874 2.874h74.618c1.585 0 2.873-1.288 2.873-2.874V82.695c0-1.585-1.288-2.873-2.873-2.873H58.667zm-3.232 2.873c0-1.783 1.448-3.232 3.232-3.232h74.618c1.783 0 3.232 1.449 3.232 3.233v11.632c0 1.784-1.449 3.233-3.232 3.233H58.667c-1.784 0-3.232-1.449-3.232-3.233V82.695z" clip-rule="evenodd"/>
    <path fill="#66B0F0" d="M133.464 95.29H58.488c-1.685 0-3.053-1.368-3.053-3.053V80.604c0-1.684 1.368-3.053 3.053-3.053h74.976c1.685 0 3.053 1.368 3.053 3.053v11.633c0 1.685-1.368 3.053-3.053 3.053z"/>
    <path fill="#FFCF2D" fill-rule="evenodd" d="M138.626 127.296c-3.008 0-5.449 2.441-5.449 5.449v9.118h-.359v-9.118c0-3.205 2.602-5.807 5.808-5.807s5.807 2.602 5.807 5.807v9.118h-.358v-9.118c0-3.008-2.441-5.449-5.449-5.449z" clip-rule="evenodd"/>
    <path fill="#3FB1B5" d="M127.435 171.844H148.4c2.444 0 4.427-1.984 4.427-4.428v-29.204c0-2.443-1.983-4.427-4.427-4.427h-20.965c-2.444 0-4.427 1.984-4.427 4.427v29.204c0 2.45 1.983 4.428 4.427 4.428z"/>
    <path fill="#fff" fill-rule="evenodd" d="M126.174 140.566c0-2.895 2.35-5.246 5.246-5.246h16.334c2.896 0 5.246 2.351 5.246 5.246h-.358c0-2.697-2.19-4.887-4.888-4.887H131.42c-2.698 0-4.888 2.19-4.888 4.887v20.183h-.358v-20.183z" clip-rule="evenodd"/>
    <path fill="#fff" d="M148.464 171.844h-14.297c-2.408 0-4.355-1.948-4.355-4.356V141.48c0-2.407 1.947-4.355 4.355-4.355h14.297c2.408 0 4.356 1.948 4.356 4.355v26.008c0 2.408-1.948 4.356-4.356 4.356z"/>
    <path fill="#FFCF2D" fill-rule="evenodd" d="M134.168 137.304c-2.309 0-4.177 1.868-4.177 4.176v26.008c0 2.309 1.868 4.176 4.177 4.176h14.297c2.309 0 4.176-1.867 4.176-4.176V141.48c0-2.308-1.867-4.176-4.176-4.176h-14.297zm-4.535 4.176c0-2.506 2.028-4.534 4.535-4.534h14.297c2.507 0 4.535 2.028 4.535 4.534v26.008c0 2.507-2.028 4.535-4.535 4.535h-14.297c-2.507 0-4.535-2.028-4.535-4.535V141.48z" clip-rule="evenodd"/>
    <path fill="#FFCF2D" fill-rule="evenodd" d="M141.774 129.346c-3.008 0-5.449 2.441-5.449 5.449v9.117h-.358v-9.117c0-3.206 2.601-5.808 5.807-5.808 3.206 0 5.808 2.602 5.808 5.808v9.117h-.359v-9.117c0-3.008-2.441-5.449-5.449-5.449z" clip-rule="evenodd"/>
    <path fill="#FFCF2D" d="M148.418 168.42h-14.065c-1.141 0-2.067-.926-2.067-2.067v-10.749c0-1.141.926-2.067 2.067-2.067h14.065c1.141 0 2.067.926 2.067 2.067v10.749c.006 1.141-.92 2.067-2.067 2.067z"/>
    <path fill="#FFCF2D" fill-rule="evenodd" d="M125.481 160.569h1.769v.359h-1.769v-.359z" clip-rule="evenodd"/>
    <path fill="#fff" d="M123.282 142.054c0 8.711-9.524 21.634-6.244 25.775 3.131 3.949 6.244-.006 6.244-.006v-25.769z"/>
    <path fill="#3FB1B5" fill-rule="evenodd" d="M121.675 149.117c.84-2.495 1.428-4.915 1.428-7.063h.358v25.831l-.038.049-.141-.111.141.111-.001.001-.002.002-.008.01-.029.035c-.024.029-.061.071-.108.123-.095.104-.232.248-.408.407-.349.317-.853.702-1.463.96-.611.258-1.334.392-2.113.196-.779-.197-1.592-.718-2.393-1.728-.875-1.104-.876-2.763-.443-4.7.436-1.946 1.325-4.236 2.309-6.652.163-.401.329-.805.496-1.212.843-2.054 1.715-4.177 2.415-6.259zm1.428 18.641l-.093.106c-.089.097-.218.232-.384.382-.332.301-.802.659-1.362.896-.558.236-1.2.351-1.885.178s-1.436-.638-2.2-1.603c-.765-.966-.804-2.475-.374-4.398.428-1.913 1.305-4.176 2.291-6.596l.495-1.208c.843-2.054 1.72-4.19 2.424-6.284.449-1.334.83-2.656 1.088-3.934v22.461z" clip-rule="evenodd"/>
    <path fill="#fff" fill-rule="evenodd" d="M133.26 157.528c0-.082.067-.149.149-.149h15.803c.083 0 .15.067.15.149 0 .083-.067.15-.15.15h-15.803c-.082 0-.149-.067-.149-.15z" clip-rule="evenodd"/>
    <path fill="#FFCF2D" fill-rule="evenodd" d="M134.831 143.554h2.629v1.445h-2.629v-1.445zm.359.358v.729h1.911v-.729h-1.911zM146.046 143.554h2.629v1.445h-2.629v-1.445zm.358.358v.729h1.912v-.729h-1.912z" clip-rule="evenodd"/>
    <path fill="#fff" fill-rule="evenodd" d="M133.409 157.379c.083 0 .149.067.149.149v.729c0 .083-.066.15-.149.15-.082 0-.149-.067-.149-.15v-.729c0-.082.067-.149.149-.149zM134.843 157.379c.082 0 .149.067.149.149v.729c0 .083-.067.15-.149.15-.083 0-.15-.067-.15-.15v-.729c0-.082.067-.149.15-.149zM136.283 157.379c.083 0 .15.067.15.149v.729c0 .083-.067.15-.15.15-.082 0-.149-.067-.149-.15v-.729c0-.082.067-.149.149-.149zM137.717 157.379c.082 0 .149.067.149.149v.729c0 .083-.067.15-.149.15-.083 0-.15-.067-.15-.15v-.729c0-.082.067-.149.15-.149zM139.157 157.379c.083 0 .15.067.15.149v.729c0 .083-.067.15-.15.15-.082 0-.149-.067-.149-.15v-.729c0-.082.067-.149.149-.149zM140.591 157.379c.082 0 .149.067.149.149v.729c0 .083-.067.15-.149.15-.083 0-.15-.067-.15-.15v-.729c0-.082.067-.149.15-.149zM142.097 157.379c.082 0 .149.067.149.149v.729c0 .083-.067.15-.149.15-.083 0-.15-.067-.15-.15v-.729c0-.082.067-.149.15-.149zM143.537 157.379c.083 0 .149.067.149.149v.729c0 .083-.066.15-.149.15-.082 0-.149-.067-.149-.15v-.729c0-.082.067-.149.149-.149zM144.904 157.379c.083 0 .15.067.15.149v.729c0 .083-.067.15-.15.15-.082 0-.149-.067-.149-.15v-.729c0-.082.067-.149.149-.149zM146.338 157.379c.082 0 .149.067.149.149v.729c0 .083-.067.15-.149.15-.083 0-.15-.067-.15-.15v-.729c0-.082.067-.149.15-.149zM147.778 157.379c.083 0 .15.067.15.149v.729c0 .083-.067.15-.15.15-.082 0-.149-.067-.149-.15v-.729c0-.082.067-.149.149-.149zM149.212 157.379c.082 0 .149.067.149.149v.729c0 .083-.067.15-.149.15-.083 0-.15-.067-.15-.15v-.729c0-.082.067-.149.15-.149z" clip-rule="evenodd"/>
    <path fill="#fff" d="M135.076 160.749c-.388 0-.681-.341-.633-.723l.316-2.504h.634l.316 2.504c.054.382-.245.723-.633.723z"/>
    <path fill="#3FB1B5" fill-rule="evenodd" d="M134.602 157.343h.949l.336 2.659c.069.491-.315.926-.811.926-.498 0-.872-.438-.811-.925l.337-2.66zm.316.359l-.297 2.346c-.035.278.177.521.455.521.281 0 .495-.245.456-.518v-.002l-.297-2.347h-.317z" clip-rule="evenodd"/>
    <path fill="#fff" d="M111.564 77.545H84.827v14.142h26.737V77.545z"/>
    <path fill="#FE5244" d="M108.436 88.67c.306 0 .555-.249.555-.555 0-.307-.249-.556-.555-.556-.307 0-.556.249-.556.556 0 .306.249.555.556.555z"/>
    <path fill="#FE5244" fill-rule="evenodd" d="M108.435 87.708c-.224 0-.406.182-.406.407 0 .224.182.406.406.406.225 0 .407-.182.407-.406 0-.225-.182-.407-.407-.407zm-.705.407c0-.39.316-.706.705-.706.39 0 .705.316.705.706 0 .389-.315.705-.705.705-.389 0-.705-.316-.705-.705z" clip-rule="evenodd"/>
    <path fill="#fff" d="M106.38 88.67c.307 0 .555-.249.555-.555 0-.307-.248-.556-.555-.556-.307 0-.556.249-.556.556 0 .306.249.555.556.555z"/>
    <path fill="#FE5244" fill-rule="evenodd" d="M106.38 87.708c-.225 0-.406.182-.406.407 0 .224.181.406.406.406.224 0 .406-.182.406-.406 0-.225-.182-.407-.406-.407zm-.705.407c0-.39.315-.706.705-.706.389 0 .705.316.705.706 0 .389-.316.705-.705.705-.39 0-.705-.316-.705-.705z" clip-rule="evenodd"/>
    <path fill="#fff" d="M104.33 88.67c.307 0 .556-.249.556-.555 0-.307-.249-.556-.556-.556-.307 0-.556.249-.556.556 0 .306.249.555.556.555z"/>
    <path fill="#FE5244" fill-rule="evenodd" d="M104.33 87.708c-.224 0-.406.182-.406.407 0 .224.182.406.406.406.224 0 .406-.182.406-.406 0-.225-.182-.407-.406-.407zm-.705.407c0-.39.316-.706.705-.706.389 0 .705.316.705.706 0 .389-.316.705-.705.705-.389 0-.705-.316-.705-.705z" clip-rule="evenodd"/>
    <path fill="#FE5244" d="M108.436 86.597c.306 0 .555-.249.555-.556 0-.307-.249-.555-.555-.555-.307 0-.556.248-.556.555 0 .307.249.556.556.556z"/>
    <path fill="#FE5244" fill-rule="evenodd" d="M108.435 85.635c-.224 0-.406.182-.406.406 0 .225.182.407.406.407.225 0 .407-.182.407-.407 0-.224-.182-.406-.407-.406zm-.705.406c0-.39.316-.705.705-.705.39 0 .705.316.705.705 0 .39-.315.705-.705.705-.389 0-.705-.315-.705-.705z" clip-rule="evenodd"/>
    <path fill="#fff" d="M106.38 86.597c.307 0 .555-.249.555-.556 0-.307-.248-.555-.555-.555-.307 0-.556.248-.556.555 0 .307.249.556.556.556z"/>
    <path fill="#FE5244" fill-rule="evenodd" d="M106.38 85.635c-.225 0-.406.182-.406.406 0 .225.181.407.406.407.224 0 .406-.182.406-.407 0-.224-.182-.406-.406-.406zm-.705.406c0-.39.315-.705.705-.705.389 0 .705.316.705.705 0 .39-.316.705-.705.705-.39 0-.705-.315-.705-.705z" clip-rule="evenodd"/>
    <path fill="#fff" d="M104.33 86.597c.307 0 .556-.249.556-.556 0-.307-.249-.555-.556-.555-.307 0-.556.248-.556.555 0 .307.249.556.556.556z"/>
    <path fill="#FE5244" fill-rule="evenodd" d="M104.33 85.635c-.224 0-.406.182-.406.407 0 .224.182.406.406.406.224 0 .406-.182.406-.406 0-.225-.182-.407-.406-.407zm-.705.407c0-.39.316-.705.705-.705.389 0 .705.315.705.705 0 .389-.316.705-.705.705-.389 0-.705-.316-.705-.705z" clip-rule="evenodd"/>
    <path fill="#fff" d="M108.433 82.463c.306 0 .555-.25.555-.556 0-.307-.249-.556-.555-.556-.307 0-.556.249-.556.556 0 .307.249.556.556.556z"/>
    <path fill="#FE5244" fill-rule="evenodd" d="M108.434 81.5c-.225 0-.407.183-.407.407 0 .224.182.406.407.406.224 0 .406-.182.406-.406 0-.224-.182-.406-.406-.406zm-.705.407c0-.39.315-.705.705-.705.389 0 .705.316.705.705 0 .39-.316.705-.705.705-.39 0-.705-.316-.705-.705z" clip-rule="evenodd"/>
    <path fill="#FE5244" d="M106.378 82.463c.307 0 .556-.25.556-.556 0-.307-.249-.556-.556-.556-.307 0-.556.249-.556.556 0 .307.249.556.556.556z"/>
    <path fill="#FE5244" fill-rule="evenodd" d="M106.378 81.5c-.225 0-.406.183-.406.407 0 .224.181.406.406.406.224 0 .406-.182.406-.406 0-.224-.182-.406-.406-.406zm-.705.407c0-.39.315-.705.705-.705.389 0 .705.316.705.705 0 .39-.316.705-.705.705-.389 0-.705-.316-.705-.705z" clip-rule="evenodd"/>
    <path fill="#fff" d="M104.329 82.463c.307 0 .556-.25.556-.556 0-.307-.249-.556-.556-.556-.307 0-.556.249-.556.556 0 .307.249.556.556.556z"/>
    <path fill="#FE5244" fill-rule="evenodd" d="M104.329 81.5c-.224 0-.406.182-.406.407 0 .224.182.406.406.406.224 0 .406-.182.406-.406 0-.225-.182-.406-.406-.406zm-.705.407c0-.39.316-.705.705-.705.389 0 .705.316.705.705 0 .39-.316.705-.705.705-.389 0-.705-.316-.705-.705z" clip-rule="evenodd"/>
    <path fill="#fff" d="M108.436 84.53c.306 0 .555-.25.555-.556 0-.307-.249-.556-.555-.556-.307 0-.556.25-.556.556 0 .307.249.556.556.556z"/>
    <path fill="#FE5244" fill-rule="evenodd" d="M108.435 83.568c-.224 0-.406.182-.406.406 0 .224.182.406.406.406.225 0 .407-.182.407-.406 0-.224-.182-.406-.407-.406zm-.705.406c0-.39.316-.705.705-.705.39 0 .705.316.705.705 0 .39-.315.705-.705.705-.389 0-.705-.316-.705-.705z" clip-rule="evenodd"/>
    <path fill="#fff" d="M106.38 84.53c.307 0 .555-.25.555-.556 0-.307-.248-.556-.555-.556-.307 0-.556.25-.556.556 0 .307.249.556.556.556z"/>
    <path fill="#FE5244" fill-rule="evenodd" d="M106.38 83.568c-.225 0-.406.182-.406.406 0 .224.181.406.406.406.224 0 .406-.182.406-.406 0-.224-.182-.406-.406-.406zm-.705.406c0-.39.315-.705.705-.705.389 0 .705.316.705.705 0 .39-.316.705-.705.705-.39 0-.705-.316-.705-.705z" clip-rule="evenodd"/>
    <path fill="#FE5244" d="M104.33 84.53c.307 0 .556-.25.556-.556 0-.307-.249-.556-.556-.556-.307 0-.556.25-.556.556 0 .307.249.556.556.556z"/>
    <path fill="#FE5244" fill-rule="evenodd" d="M104.33 83.568c-.224 0-.406.182-.406.406 0 .224.182.406.406.406.224 0 .406-.182.406-.406 0-.224-.182-.406-.406-.406zm-.705.406c0-.39.316-.705.705-.705.389 0 .705.316.705.705 0 .39-.316.705-.705.705-.389 0-.705-.316-.705-.705z" clip-rule="evenodd"/>
    <path fill="#FE5244" d="M92.242 84.53c.307 0 .556-.25.556-.556 0-.307-.249-.556-.556-.556-.307 0-.556.25-.556.556 0 .307.25.556.556.556z"/>
    <path fill="#FE5244" fill-rule="evenodd" d="M92.242 83.568c-.224 0-.406.182-.406.406 0 .224.182.406.406.406.224 0 .406-.182.406-.406 0-.224-.181-.406-.406-.406zm-.705.406c0-.39.316-.705.705-.705.39 0 .705.316.705.705 0 .39-.316.705-.705.705-.39 0-.705-.316-.705-.705z" clip-rule="evenodd"/>
    <path fill="#fff" d="M90.186 84.53c.307 0 .556-.25.556-.556 0-.307-.249-.556-.556-.556-.306 0-.555.25-.555.556 0 .307.249.556.555.556z"/>
    <path fill="#FE5244" fill-rule="evenodd" d="M90.187 83.568c-.224 0-.406.182-.406.406 0 .224.182.406.406.406.225 0 .407-.181.407-.406 0-.224-.182-.406-.407-.406zm-.705.406c0-.39.316-.705.705-.705.39 0 .705.316.705.705 0 .39-.315.705-.705.705-.389 0-.705-.316-.705-.705z" clip-rule="evenodd"/>
    <path fill="#fff" d="M88.137 80.395c.307 0 .555-.249.555-.555 0-.307-.248-.556-.555-.556-.307 0-.556.249-.556.555 0 .307.249.556.556.556z"/>
    <path fill="#FE5244" fill-rule="evenodd" d="M88.137 79.433c-.225 0-.407.182-.407.406 0 .225.182.407.407.407.224 0 .406-.182.406-.406 0-.225-.182-.407-.406-.407zm-.705.406c0-.389.315-.704.705-.704.389 0 .705.315.705.704 0 .39-.316.706-.705.706-.39 0-.705-.316-.705-.706z" clip-rule="evenodd"/>
    <path fill="#fff" d="M92.242 82.462c.307 0 .556-.248.556-.555 0-.307-.249-.556-.556-.556-.307 0-.556.249-.556.556 0 .307.25.555.556.555z"/>
    <path fill="#FE5244" fill-rule="evenodd" d="M92.242 81.5c-.224 0-.406.182-.406.407 0 .224.182.406.406.406.224 0 .406-.182.406-.406 0-.225-.181-.406-.406-.406zm-.705.407c0-.39.316-.705.705-.705.39 0 .705.315.705.705 0 .39-.316.705-.705.705-.39 0-.705-.316-.705-.705z" clip-rule="evenodd"/>
    <path fill="#fff" d="M90.186 82.462c.306 0 .555-.248.555-.555 0-.307-.249-.556-.555-.556-.307 0-.556.249-.556.556 0 .307.249.555.556.555z"/>
    <path fill="#FE5244" fill-rule="evenodd" d="M90.186 81.5c-.225 0-.407.182-.407.407 0 .224.182.406.407.406.224 0 .406-.182.406-.406 0-.225-.182-.406-.406-.406zm-.706.407c0-.39.316-.705.706-.705.389 0 .704.315.704.705 0 .39-.315.705-.704.705-.39 0-.706-.316-.706-.705z" clip-rule="evenodd"/>
    <path fill="#FE5244" d="M88.137 82.462c.307 0 .555-.248.555-.555 0-.307-.248-.556-.555-.556-.307 0-.556.249-.556.556 0 .307.249.555.556.555z"/>
    <path fill="#FE5244" fill-rule="evenodd" d="M88.137 81.5c-.225 0-.407.182-.407.407 0 .224.182.406.407.406.224 0 .406-.182.406-.406 0-.225-.182-.406-.406-.406zm-.705.407c0-.39.315-.705.705-.705.389 0 .705.315.705.705 0 .39-.316.705-.705.705-.39 0-.705-.316-.705-.705z" clip-rule="evenodd"/>
    <path fill="#fff" d="M100.009 86.597c.307 0 .555-.249.555-.556 0-.307-.248-.555-.555-.555-.307 0-.556.248-.556.555 0 .307.249.556.556.556z"/>
    <path fill="#FE5244" fill-rule="evenodd" d="M100.009 85.635c-.225 0-.407.182-.407.406 0 .225.182.407.407.407.224 0 .406-.182.406-.407 0-.224-.182-.406-.406-.406zm-.705.406c0-.39.315-.705.705-.705.389 0 .705.316.705.705 0 .39-.316.705-.705.705-.39 0-.705-.315-.705-.705z" clip-rule="evenodd"/>
    <path fill="#fff" d="M97.953 86.597c.307 0 .556-.249.556-.556 0-.307-.249-.555-.556-.555-.307 0-.556.248-.556.555 0 .307.25.556.556.556z"/>
    <path fill="#FE5244" fill-rule="evenodd" d="M97.953 85.635c-.224 0-.406.182-.406.406 0 .225.182.407.406.407.224 0 .406-.182.406-.407 0-.224-.182-.406-.406-.406zm-.705.406c0-.39.316-.705.705-.705.39 0 .705.316.705.705 0 .39-.316.705-.705.705-.39 0-.705-.315-.705-.705z" clip-rule="evenodd"/>
    <path fill="#FE5244" d="M95.904 86.597c.307 0 .556-.249.556-.556 0-.307-.249-.555-.556-.555-.307 0-.555.248-.555.555 0 .307.248.556.555.556z"/>
    <path fill="#FE5244" fill-rule="evenodd" d="M95.904 85.635c-.224 0-.406.182-.406.407 0 .224.182.406.406.406.225 0 .407-.182.407-.406 0-.225-.182-.407-.407-.407zm-.705.407c0-.39.316-.705.705-.705.39 0 .705.315.705.705 0 .389-.315.705-.705.705-.39 0-.705-.316-.705-.705z" clip-rule="evenodd"/>
    <path fill="#FE5244" d="M100.008 82.463c.307 0 .555-.25.555-.556 0-.307-.248-.556-.555-.556-.307 0-.556.249-.556.556 0 .307.249.556.556.556z"/>
    <path fill="#FE5244" fill-rule="evenodd" d="M100.009 81.5c-.225 0-.407.183-.407.407 0 .224.182.406.407.406.224 0 .406-.182.406-.406 0-.224-.182-.406-.406-.406zm-.705.407c0-.39.315-.705.705-.705.389 0 .705.316.705.705 0 .39-.316.705-.705.705-.39 0-.705-.316-.705-.705z" clip-rule="evenodd"/>
    <path fill="#fff" d="M97.953 82.463c.307 0 .556-.25.556-.556 0-.307-.249-.556-.556-.556-.307 0-.556.249-.556.556 0 .307.25.556.556.556z"/>
    <path fill="#FE5244" fill-rule="evenodd" d="M97.953 81.5c-.224 0-.406.183-.406.407 0 .224.182.406.406.406.224 0 .406-.182.406-.406 0-.224-.182-.406-.406-.406zm-.705.407c0-.39.316-.705.705-.705.39 0 .705.316.705.705 0 .39-.316.705-.705.705-.39 0-.705-.316-.705-.705z" clip-rule="evenodd"/>
    <path fill="#fff" d="M95.904 82.463c.307 0 .556-.25.556-.556 0-.307-.249-.556-.556-.556-.307 0-.555.249-.555.556 0 .307.248.556.555.556z"/>
    <path fill="#FE5244" fill-rule="evenodd" d="M95.904 81.5c-.224 0-.406.182-.406.407 0 .224.182.406.406.406.225 0 .407-.182.407-.406 0-.225-.182-.406-.407-.406zm-.705.407c0-.39.316-.705.705-.705.39 0 .705.316.705.705 0 .39-.315.705-.705.705-.39 0-.705-.316-.705-.705z" clip-rule="evenodd"/>
    <path fill="#fff" d="M100.009 84.53c.307 0 .555-.25.555-.556 0-.307-.248-.556-.555-.556-.307 0-.556.25-.556.556 0 .307.249.556.556.556z"/>
    <path fill="#FE5244" fill-rule="evenodd" d="M100.009 83.568c-.225 0-.407.182-.407.406 0 .224.182.406.407.406.224 0 .406-.182.406-.406 0-.224-.182-.406-.406-.406zm-.705.406c0-.39.315-.705.705-.705.389 0 .705.316.705.705 0 .39-.316.705-.705.705-.39 0-.705-.316-.705-.705z" clip-rule="evenodd"/>
    <path fill="#FE5244" d="M97.953 84.53c.307 0 .556-.25.556-.556 0-.307-.249-.556-.556-.556-.307 0-.556.25-.556.556 0 .307.25.556.556.556z"/>
    <path fill="#FE5244" fill-rule="evenodd" d="M97.953 83.568c-.224 0-.406.182-.406.406 0 .224.182.406.406.406.224 0 .406-.182.406-.406 0-.224-.182-.406-.406-.406zm-.705.406c0-.39.316-.705.705-.705.39 0 .705.316.705.705 0 .39-.316.705-.705.705-.39 0-.705-.316-.705-.705z" clip-rule="evenodd"/>
    <path fill="#fff" d="M95.904 84.53c.307 0 .556-.25.556-.556 0-.307-.249-.556-.556-.556-.307 0-.555.25-.555.556 0 .307.248.556.555.556z"/>
    <path fill="#FE5244" fill-rule="evenodd" d="M95.904 83.568c-.224 0-.406.182-.406.406 0 .224.182.406.406.406.225 0 .407-.182.407-.406 0-.224-.182-.406-.407-.406zm-.705.406c0-.39.316-.705.705-.705.39 0 .705.316.705.705 0 .39-.315.705-.705.705-.39 0-.705-.316-.705-.705z" clip-rule="evenodd"/>
    <path fill="#fff" d="M129.585 80.76h-27.573l.023-3.215h-16.61l-4.833-14.16-5.174 9.53 14.608 12.463-6.984 9.464-17.255-11.06c-3.125-2.036-5.007-5.508-5.007-9.236 0-1.864.472-3.704 1.38-5.335l8.054-14.567c3.382-6.112 9.81-9.9 16.79-9.9h25.863c4.302 0 8.335 2.092 10.815 5.605l12.541 17.458c3.901 5.407.029 12.953-6.638 12.953z"/>
    <path fill="#FE5244" fill-rule="evenodd" d="M70.37 54.731l-8.053 14.566c-.894 1.605-1.358 3.415-1.358 5.249 0 3.667 1.851 7.082 4.925 9.086L82.998 94.6l6.785-9.194-14.591-12.449 5.438-10.016 4.925 14.425h16.662l-.024 3.214h27.392c6.522 0 10.308-7.38 6.493-12.668h-.001l-12.54-17.459h-.001v-.001c-2.446-3.466-6.424-5.528-10.668-5.528H87.003c-6.913 0-13.282 3.752-16.632 9.807zm-.313-.173c3.413-6.17 9.902-9.993 16.946-9.993h25.864c4.36 0 8.447 2.12 10.96 5.68h.001l12.539 17.457c3.988 5.526.031 13.237-6.783 13.237H101.83l.024-3.214H85.297L80.554 63.83l-4.91 9.043L90.27 85.35l-7.183 9.734-17.396-11.15-.001-.001c-3.176-2.07-5.088-5.598-5.088-9.387 0-1.894.48-3.764 1.402-5.422l8.054-14.566z" clip-rule="evenodd"/>
    <path fill="#FE5244" d="M88.705 91.58c-2.043 2.748-4.559 4.326-5.628 3.53-1.07-.794-.28-3.662 1.757-6.41 2.043-2.748 4.32-4.206 5.389-3.412 1.07.795.52 3.55-1.518 6.292z"/>
    <path fill="#FE5244" fill-rule="evenodd" d="M88.88 44.589h16.597l-7.965 11.96-8.631-11.96zm.702.358L97.5 55.92l7.307-10.971H89.582zM97.595 58.856c-.38 0-.687.308-.687.688 0 .38.308.687.687.687.38 0 .688-.308.688-.687 0-.38-.308-.688-.688-.688zm-1.045.688c0-.578.468-1.046 1.045-1.046.578 0 1.046.468 1.046 1.046 0 .577-.468 1.045-1.046 1.045-.577 0-1.045-.468-1.045-1.045zM97.595 64.353c-.38 0-.687.308-.687.687 0 .38.308.687.687.687.38 0 .688-.307.688-.687 0-.38-.308-.687-.688-.687zm-1.045.687c0-.577.468-1.045 1.045-1.045.578 0 1.046.468 1.046 1.045 0 .578-.468 1.046-1.046 1.046-.577 0-1.045-.468-1.045-1.046zM118.525 68.601l-3.771-5.847.302-.195 4.127 6.4h-16.759v12.01h-.359V68.6h16.46z" clip-rule="evenodd"/>
    <path fill="#FE5244" fill-rule="evenodd" d="M123.209 68.96h-4.355V68.6h4.355v.359z" clip-rule="evenodd"/>
    <path fill="#FE5244" d="M102.245 80.969c1.333 0 2.414-2.774 2.414-6.196 0-3.422-1.081-6.196-2.414-6.196-1.333 0-2.414 2.774-2.414 6.196 0 3.422 1.081 6.196 2.414 6.196z"/>
    <path fill="#FE5244" fill-rule="evenodd" d="M105.443 69.392c-.267-.28-.541-.414-.809-.414v-.359c.397 0 .759.2 1.069.525.309.325.58.784.803 1.338.448 1.107.721 2.625.721 4.291 0 1.666-.273 3.184-.721 4.291-.223.554-.494 1.013-.803 1.338-.31.325-.672.525-1.069.525v-.359c.268 0 .542-.134.809-.414.268-.28.518-.696.731-1.224.426-1.055.694-2.525.694-4.157 0-1.632-.268-3.102-.694-4.157-.213-.528-.463-.944-.731-1.224zM86.074 84.388c-.905.593-1.94 1.626-2.954 2.99-1.01 1.362-1.704 2.746-2.015 3.88-.156.567-.212 1.062-.17 1.456.04.393.177.666.391.825l-.214.288c-.321-.239-.487-.622-.534-1.076-.048-.453.019-.996.181-1.588.326-1.186 1.044-2.61 2.073-3.998 1.029-1.384 2.093-2.453 3.045-3.077.476-.312.933-.519 1.35-.593.42-.074.809-.013 1.125.222l-.214.287c-.218-.162-.5-.217-.849-.156-.352.063-.763.243-1.215.54z" clip-rule="evenodd"/>
    <path fill="#FFCF2D" d="M89.29 39.815c.043-5.89 3.956-7.504 10.385-6.99 6.93.555 4.092 10.091 7.94 10.408 1.613.131 3.453-1.697 5.903-3.203 2.019-1.362 4.451-2.157 7.074-2.157 6.996 0 12.672 5.676 12.672 12.673 0 3.22-1.499 6.333-3.477 8.567 0 0-7.474-10.497-10.372-11.483-5.7-1.936-7.51 3.071-11.465 3.848-.52.101-1.076.131-1.685.06-5.628-.646-4.553-9.924-4.553-9.924-1.458-.598-1.774-2.11-1.828-3.024.03-.442.012-.735.012-.735s-.036.3-.012.735c-.12 1.721-1.171 5.838-7.032 4.362v2.002c0 12.122.197 14.476-2.259 17.523-.364.454-2.802 4.117 1.566 6.094 5.628 2.546 1.655 9.243 1.655 9.243H81.906s-7.068-1.254-7.683-7.671c-.879-9.171 10.623-11.627 12.122-11.908-2.915-.448-5.765-3.322-5.765-6.805 0-3.089 2.372-5.7 4.81-6.56.005 0 .005 0 .011-.006l.215-.072c1.906-.657 3.31-2.103 3.62-3.854l.055-1.123z"/>
    <path fill="#A0505A" d="M99.914 39.881c-.006 0-.006 0 0 0-.084 0-.15-.072-.15-.15l.048-3.053c0-.083.066-.149.15-.149.083 0 .149.072.149.15l-.048 3.053c-.006.083-.071.149-.149.149zM93.115 43.358c-.024 0-.048-.006-.072-.018-1.446-.759-1.75-1.535-1.769-1.565-.03-.078.012-.161.09-.191s.161.012.191.083c.006.012.299.711 1.625 1.41.072.036.102.132.066.204-.024.047-.078.077-.131.077z"/>
    <path fill="#FFCF2D" d="M113.184 38.166c.99 0 1.792-.802 1.792-1.792s-.802-1.793-1.792-1.793-1.792.803-1.792 1.793c0 .99.802 1.792 1.792 1.792zM92.087 66.51c.796 0 1.44-.645 1.44-1.44 0-.795-.644-1.44-1.44-1.44-.795 0-1.44.645-1.44 1.44 0 .795.645 1.44 1.44 1.44z"/>
    <path fill="#A0505A" d="M101.157 86.74l-.006 1.087c0 .096-.023.192-.059.275l-2.617 5.831c-.389.843-1.231 1.38-2.157 1.38H90.72c-1.398 0-2.755-.471-3.854-1.332l-.197-.155-3.334-2.623c.37-.8.878-1.655 1.506-2.497 1.195-1.614 2.563-2.82 3.698-3.388h8.036c.64 1.428-1.44 2.575-1.44 2.575h3.632l1.315-1.428c.341-.37.956-.209 1.075.275z"/>
    <path fill="#73325A" fill-rule="evenodd" d="M99.152 92.024c.075.034.108.123.073.198-.413.895-1.308 1.467-2.292 1.467h-4.714c-.083 0-.15-.067-.15-.15 0-.082.067-.149.15-.149h4.714c.868 0 1.657-.504 2.02-1.293.035-.075.124-.108.2-.073zM99.978 90.178c.075.034.108.123.073.198-.412.895-1.308 1.467-2.292 1.467h-4.714c-.083 0-.15-.067-.15-.15 0-.082.067-.149.15-.149h4.714c.868 0 1.657-.504 2.021-1.293.035-.075.123-.108.198-.073zM100.868 88.122c.075.035.108.124.073.198-.413.896-1.308 1.467-2.293 1.467h-4.713c-.083 0-.15-.066-.15-.149 0-.082.067-.15.15-.15h4.713c.868 0 1.658-.503 2.022-1.293.034-.074.123-.107.198-.073z" clip-rule="evenodd"/>
    <path fill="#73325A" d="M88.647 91.46c-.532.867-1.315 1.769-1.978 2.366l-.006-.006-3.334-2.622c.37-.801.878-1.655 1.506-2.498 1.195-1.613 2.563-2.82 3.698-3.388h1.727c.155 1.357-.072 3.639-1.613 6.148z"/>
    <path fill="#FE5244" d="M94.376 73.028s2.904-7.749 4.027-7.593c1.117.149-2.504 7.02-2.504 7.02l-1.523.573z"/>
    <path fill="#A0505A" d="M104.658 74.774c0 3.316-1.015 6.016-2.288 6.184-.042.005-.084.005-.125.005h-11.83c-.359 0-.646-.286-.646-.645v-3.776c0-1.07.658-2.025 1.655-2.401l4.953-1.877c.449-.167.927-.257 1.405-.257h6.62c.161.837.256 1.775.256 2.767z"/>
    <path fill="#73325A" fill-rule="evenodd" d="M95.106 74.923c.03.078-.01.164-.087.193l-3.74 1.416c-.694.265-1.152.932-1.152 1.67 0 .083-.067.15-.15.15-.082 0-.149-.067-.149-.15 0-.862.534-1.64 1.345-1.95l3.74-1.415c.078-.03.164.01.193.086zM95.106 77.182c.03.077-.01.163-.087.192l-3.74 1.416c-.694.265-1.152.932-1.152 1.671 0 .082-.067.15-.15.15-.082 0-.149-.068-.149-.15 0-.862.534-1.641 1.345-1.95l3.74-1.416c.078-.03.164.01.193.087zM94.903 79.29c.03.078-.01.164-.087.194l-3.74 1.416c-.077.029-.163-.01-.192-.087-.03-.078.01-.164.087-.193l3.74-1.416c.077-.03.163.01.192.087z" clip-rule="evenodd"/>
    <path fill="#73325A" d="M104.659 74.773c0 3.316-1.016 6.017-2.289 6.184-.042.006-.083.006-.125.006-1.333 0-2.414-2.772-2.414-6.196 0-.914.138-1.953.281-2.766h4.26c.149.818.287 1.858.287 2.772z"/>
    <path fill="#A0505A" d="M103.666 42.946c0 .346-.119.675-.316.932-.203.263-.484.454-.825.544l-.824.215v.92c0 2.222-1.799 4.02-4.021 4.02h-.795c-2.216 0-4.009-1.792-4.02-4.002v-2.629c5.86 1.482 6.912-2.64 7.032-4.362.047.873.34 2.283 1.631 2.934l.227-.06c.967-.239 1.911.49 1.911 1.488z"/>
    <path fill="#73325A" fill-rule="evenodd" d="M98.696 43.836h.002l.01-.001.036-.003c.033-.002.081-.004.141-.005.12-.002.288.002.477.024.382.044.827.16 1.146.433.063.054.157.047.211-.016.054-.063.046-.157-.016-.21-.386-.331-.903-.457-1.307-.504-.204-.023-.385-.028-.515-.026-.065.001-.118.004-.155.006-.018 0-.032.002-.042.003h-.012l-.003.001h-.001l.014.149-.015-.149c-.082.008-.142.081-.134.163.008.082.081.142.163.135zM93.95 44.027l-.07-.131c-.073.04-.1.13-.061.202.039.073.13.1.202.061m0 0h.001l.006-.004.026-.012c.023-.011.06-.027.106-.045.093-.036.227-.08.391-.11.329-.062.772-.072 1.239.134.11.049.227.158.34.343.112.183.213.428.298.73.17.601.27 1.405.276 2.328.001.083.068.15.15.149.083 0 .15-.068.15-.15-.007-.941-.11-1.774-.289-2.409-.09-.317-.2-.59-.33-.804-.13-.212-.287-.377-.475-.46m-1.96.178l-.07-.131.004-.002.01-.005.033-.017c.03-.014.072-.032.125-.053.107-.04.259-.09.444-.125.37-.07.878-.082 1.414.155" clip-rule="evenodd"/>
    <path fill="#73325A" d="M95.098 45.85c.129 0 .233-.2.233-.448s-.104-.449-.233-.449c-.128 0-.233.201-.233.449 0 .247.105.448.233.448zM99.435 45.85c.129 0 .233-.2.233-.448s-.104-.449-.233-.449-.233.201-.233.449c0 .247.105.448.233.448z"/>
    <path fill="#73325A" fill-rule="evenodd" d="M102.944 42.42c.017.08-.034.16-.115.176-.439.093-.754.48-.754.93 0 .082-.067.149-.149.149-.083 0-.15-.067-.15-.15 0-.59.414-1.099.991-1.221.081-.017.16.035.177.115z" clip-rule="evenodd"/>
    <path fill="#3FB1B5" d="M54.078 135.326c.71 1.673.502 5.115-3.077 5.067-4.44-.06-4.326-12.021-4.326-12.021s4.535.209 7.403 6.954zM12.732 131.282c-1.111 2.354.383 4.248 1.637 3.596 2.193-1.141 3.137-4.074 3.137-4.074s-3.776-1.626-4.774.478z"/>
    <path fill="#fff" d="M54.017 135.326c-2.378-4.761-5.06-7.026-9.357-7.026-7.235 0-11.877 7.743-12.761 17.757-.108-1.243-1.393-2.515-1.488-3.806-1.29-17.147 8.108-23.911 15.158-23.911 5.771-.006 7.211 8.287 8.448 16.986z"/>
    <path fill="#3FB1B5" fill-rule="evenodd" d="M51.327 123.634c-1.228-3.138-2.986-5.117-5.758-5.114-3.469 0-7.53 1.665-10.567 5.457-3.035 3.792-5.055 9.721-4.412 18.261.045.599.367 1.205.718 1.848l.027.048c.169.31.343.63.482.955.527-4.639 1.875-8.751 3.933-11.767 2.2-3.223 5.22-5.201 8.911-5.201 2.183 0 3.967.576 5.507 1.765 1.329 1.025 2.466 2.499 3.523 4.428-.58-3.982-1.235-7.793-2.364-10.68zm.334-.13c1.245 3.182 1.916 7.452 2.534 11.797l.155 1.093-.493-.988c-1.183-2.369-2.433-4.098-3.908-5.237-1.47-1.134-3.175-1.69-5.288-1.69-3.544 0-6.464 1.894-8.614 5.045-2.154 3.155-3.529 7.562-3.97 12.549l-.356-.001c-.05-.573-.372-1.164-.723-1.806l-.005-.008c-.341-.627-.71-1.303-.76-1.994-.648-8.608 1.386-14.633 4.49-18.511 3.102-3.875 7.265-5.592 10.846-5.592 3-.003 4.847 2.162 6.092 5.343z" clip-rule="evenodd"/>
    <path fill="#3FB1B5" fill-rule="evenodd" d="M45.456 122.564c-6.368 0-16.144 6.651-14.86 23.718l-.357.027c-1.297-17.227 8.595-24.103 15.217-24.103 1.841 0 3.351.545 4.62 1.716 1.263 1.165 2.274 2.937 3.148 5.369l-.337.121c-.865-2.407-1.852-4.118-3.054-5.227-1.195-1.102-2.616-1.621-4.377-1.621z" clip-rule="evenodd"/>
    <path fill="#FFCF2D" d="M3.346 111.105c-1.93 1.912-5.42 9.751-1.1 11.304 4.32 1.56 9.38-13.789 9.38-13.789s-3.662-2.098-8.28 2.485z"/>
    <path fill="#FFCF2D" fill-rule="evenodd" d="M11.716 108.464l-.089.156.17.056-.004.011-.01.033-.044.129c-.039.113-.095.278-.169.487-.147.418-.362 1.013-.634 1.722-.543 1.417-1.313 3.293-2.219 5.121-.904 1.825-1.95 3.615-3.048 4.852-1.085 1.224-2.287 1.978-3.483 1.547-1.143-.411-1.772-1.244-2.035-2.277-.26-1.023-.162-2.241.128-3.451.29-1.213.778-2.434 1.315-3.473.534-1.035 1.125-1.902 1.626-2.399 2.338-2.32 4.45-2.963 5.993-3.013.768-.025 1.39.097 1.821.227.216.065.384.131.5.183.057.025.101.047.132.062l.036.019.01.006.002.001.002.001zm-.089.156l.17.056.046-.139-.127-.073-.089.156zm-.22.091l-.008.023c-.037.111-.094.275-.167.482-.146.416-.36 1.008-.63 1.713-.541 1.412-1.307 3.276-2.206 5.091-.9 1.817-1.93 3.572-2.995 4.773-1.079 1.216-2.13 1.795-3.093 1.448v-.001c-1.017-.365-1.572-1.094-1.81-2.028-.24-.943-.154-2.096.13-3.279.282-1.18.758-2.374 1.284-3.391.527-1.021 1.097-1.85 1.56-2.31 2.28-2.262 4.309-2.862 5.752-2.909.724-.024 1.307.092 1.707.212.2.06.354.122.457.167l.02.009z" clip-rule="evenodd"/>
    <path fill="#D0F0E4" d="M38.962 146.72l-1.542 8.359c-.776 4.194-4.433 7.241-8.699 7.241s-7.922-3.047-8.7-7.241l-1.54-8.359c0-.418.095-.818.262-1.177 1.237 1.243 5.258 2.151 10.02 2.151 4.696 0 8.663-.884 9.966-2.091.149.34.233.723.233 1.117z"/>
    <path fill="#66B0F0" d="M37.953 144.737c0 1.182-4.117 2.138-9.196 2.138-5.078 0-9.195-.956-9.195-2.138 0-.096.024-.186.078-.275.586-1.052 4.445-1.858 9.117-1.858 4.816 0 8.765.86 9.16 1.953.024.06.036.12.036.18z"/>
    <path fill="#fff" d="M32.054 132.267c0 4.947-.68 9.62-1.894 13.73h-3.489c-.012-20.774-7.588-37.604-16.926-37.604-2.426 0-4.732 1.135-6.817 3.178 6.142-7.187 8.693-9.159 12.2-9.159 8.377 0 16.926 13.365 16.926 29.855z"/>
    <path fill="#FFCF2D" fill-rule="evenodd" d="M4.532 109.992c1.636-1.151 3.387-1.779 5.212-1.779 4.784 0 9.057 4.302 12.124 11.118 3.058 6.793 4.954 16.152 4.982 26.487h3.176c1.184-4.062 1.849-8.671 1.849-13.551 0-8.215-2.13-15.647-5.297-21.02-3.174-5.383-7.358-8.656-11.45-8.656-1.71 0-3.187.477-5.005 1.848-1.52 1.148-3.274 2.918-5.591 5.553zm5.376-5.839c1.87-1.411 3.422-1.92 5.22-1.92 4.284 0 8.562 3.41 11.758 8.832 3.202 5.432 5.347 12.928 5.347 21.202 0 4.963-.683 9.653-1.901 13.781l-.038.128H26.49v-.179c-.006-10.367-1.9-19.742-4.95-26.519-3.057-6.793-7.242-10.906-11.797-10.906-2.365 0-4.629 1.106-6.691 3.127l-.262-.244c3.07-3.594 5.255-5.897 7.117-7.302z" clip-rule="evenodd"/>
    <path fill="#FFCF2D" fill-rule="evenodd" d="M9.577 105.75c-.836.341-1.641.862-2.637 1.587l-.21-.29c1-.728 1.834-1.27 2.712-1.629.88-.361 1.798-.533 2.961-.533 4.778 0 9.525 3.979 12.757 11.069 3.237 7.1 4.98 17.365 3.733 30.055l-.357-.035c1.243-12.643-.497-22.841-3.702-29.871-3.21-7.041-7.864-10.859-12.43-10.859-1.125 0-1.995.165-2.827.506z" clip-rule="evenodd"/>
    <path fill="#fff" d="M28.739 145.991s.514-19.507-10.115-19.573c-2.814-.018-5.45 4.445-5.45 4.445s12.446-3.25 13.061 15.128h2.504z"/>
    <path fill="#3FB1B5" fill-rule="evenodd" d="M16.487 126.955c.66-.427 1.386-.721 2.137-.716 2.722.017 4.73 1.282 6.205 3.154 1.469 1.867 2.409 4.34 3.012 6.794.603 2.456.872 4.908.99 6.744.06.918.081 1.683.088 2.22.003.268.003.479.002.623l-.002.164-.001.043v.015l-.18-.005.18.005-.005.174H26.06l-.005-.173c-.306-9.146-3.55-12.852-6.658-14.299-1.563-.728-3.109-.893-4.267-.876-.579.008-1.059.063-1.393.115-.168.026-.298.051-.387.07l-.1.022-.024.006-.006.001-.001.001-.421.11.22-.375.155.091-.154-.091v-.001l.002-.003.006-.01.024-.038c.02-.034.05-.083.09-.145.078-.123.194-.3.34-.511.295-.423.717-.986 1.229-1.55.51-.564 1.116-1.132 1.776-1.559zm-2.937 3.649l.133-.022c.348-.054.845-.11 1.443-.119 1.194-.017 2.798.153 4.423.91 3.249 1.513 6.515 5.332 6.859 14.439h2.154v-.041c.001-.142.002-.35-.002-.616-.006-.531-.028-1.29-.086-2.201-.118-1.824-.385-4.253-.982-6.682-.597-2.431-1.521-4.848-2.945-6.657-1.42-1.803-3.332-3.002-5.925-3.018-.656-.004-1.314.254-1.94.659-.625.404-1.207.948-1.706 1.498-.499.55-.911 1.101-1.199 1.515-.088.126-.164.239-.227.335z" clip-rule="evenodd"/>
    <path fill="#3FB1B5" fill-rule="evenodd" d="M25.697 134.628c1.685 3.948 1.995 8.668 1.92 11.428l-.359-.01c.075-2.736-.235-7.397-1.89-11.277-.828-1.939-1.987-3.672-3.593-4.877-1.602-1.202-3.66-1.887-6.305-1.712l-.024-.357c2.726-.181 4.87.526 6.544 1.782 1.672 1.254 2.864 3.047 3.707 5.023z" clip-rule="evenodd"/>
    <path fill="#fff" d="M13.126 112.36c.545 0 .986-.442.986-.986 0-.545-.441-.986-.986-.986-.544 0-.985.441-.985.986 0 .544.441.986.985.986z"/>
    <path fill="#FFCF2D" fill-rule="evenodd" d="M13.127 110.567c-.446 0-.807.361-.807.807 0 .445.361.807.807.807.445 0 .807-.362.807-.807 0-.446-.362-.807-.807-.807zm-1.165.807c0-.644.521-1.165 1.165-1.165.643 0 1.165.521 1.165 1.165 0 .643-.522 1.165-1.165 1.165-.644 0-1.165-.522-1.165-1.165z" clip-rule="evenodd"/>
    <path fill="#fff" d="M36.362 140.554c.795 0 1.44-.644 1.44-1.44 0-.795-.645-1.44-1.44-1.44-.796 0-1.44.645-1.44 1.44 0 .796.645 1.44 1.44 1.44z"/>
    <path fill="#FFCF2D" fill-rule="evenodd" d="M36.362 137.854c-.696 0-1.26.564-1.26 1.26 0 .697.564 1.261 1.26 1.261.697 0 1.261-.564 1.261-1.261 0-.696-.564-1.26-1.26-1.26zm-1.619 1.26c0-.894.725-1.619 1.62-1.619.894 0 1.618.725 1.618 1.619 0 .895-.724 1.619-1.619 1.619-.894 0-1.619-.724-1.619-1.619z" clip-rule="evenodd"/>
    <path fill="#D0F0E4" d="M33.972 112.778c1.502 0 2.719-1.217 2.719-2.719 0-1.501-1.217-2.718-2.719-2.718-1.501 0-2.718 1.217-2.718 2.718 0 1.502 1.217 2.719 2.718 2.719z"/>
    <path fill="#66B0F0" d="M18.549 159.722c.235-1.177 1.797-1.451 2.425-.429l.001.001.06.102c1.649 2.689 4.683 4.035 7.725 4.024 3.043-.011 6.064-1.379 7.687-4.078.622-1.037 2.197-.76 2.432.422l2.408 11.991-.351.07-2.408-11.991c-.171-.861-1.32-1.063-1.774-.308v.001c-1.7 2.827-4.85 4.24-7.992 4.252-3.143.011-6.307-1.379-8.034-4.197v-.002l-.06-.101c-.46-.745-1.597-.541-1.768.313l-2.414 12.027-.351-.07 2.413-12.027z"/>
    <path fill="#66B0F0" fill-rule="evenodd" d="M28.534 171.844v-8.239h.359v8.239h-.359z" clip-rule="evenodd"/>
</svg>
