<svg xmlns="http://www.w3.org/2000/svg" width="200" height="168" fill="none" viewBox="0 0 200 168">
    <path fill="#FFCF2D" d="M139.825 4.849l12.772 12.326 12.835 69.484h-120.4l94.793-81.81z"/>
    <path fill="#fff" d="M152.706 17.078l-12.81-12.365 2.143-2.226c3.156-3.278 8.841-2.904 12.12.245 3.278 3.156 3.852 8.841.696 12.12l-2.149 2.226z"/>
    <path fill="#FFCF2D" fill-rule="evenodd" d="M142.179 2.621l-2.009 2.087 12.532 12.096 2.014-2.086c3.069-3.188 2.524-8.751-.692-11.846-3.216-3.09-8.777-3.438-11.845-.25zm-.279-.268c3.243-3.37 9.052-2.97 12.393.24 3.341 3.216 3.945 9.024.702 12.393l-2.284 2.366-13.088-12.633 2.277-2.366z" clip-rule="evenodd"/>
    <path fill="#FFCF2D" fill-rule="evenodd" d="M141.893 2.353c.074-.077.197-.08.274-.005l12.816 12.364c.077.075.08.197.005.274-.074.077-.197.08-.273.005L141.898 2.626c-.077-.074-.079-.196-.005-.273z" clip-rule="evenodd"/>
    <path fill="#3FB1B5" fill-rule="evenodd" d="M156.412 2.35l-1.433 1.097c-.085.065-.206.05-.271-.036-.065-.084-.049-.206.036-.271l1.433-1.097c2.007-1.536 4.89-1.133 6.394.906L197.854 45.9 179.781 86.21c-.044.097-.159.141-.256.097-.098-.043-.141-.158-.098-.256l17.976-40.088-35.137-42.775-.003-.004c-1.375-1.868-4.014-2.238-5.851-.833z" clip-rule="evenodd"/>
    <path fill="#fff" d="M197.055 48.119c1.09 0 1.975-.884 1.975-1.975 0-1.09-.885-1.974-1.975-1.974-1.091 0-1.975.884-1.975 1.974 0 1.09.884 1.975 1.975 1.975z"/>
    <path fill="#FFCF2D" fill-rule="evenodd" d="M197.055 44.363c-.984 0-1.781.798-1.781 1.781 0 .984.797 1.781 1.781 1.781.984 0 1.781-.797 1.781-1.78 0-.984-.797-1.782-1.781-1.782zm-2.168 1.781c0-1.197.971-2.168 2.168-2.168 1.198 0 2.168.97 2.168 2.168 0 1.198-.97 2.169-2.168 2.169-1.197 0-2.168-.971-2.168-2.169z" clip-rule="evenodd"/>
    <path fill="#fff" d="M174.597 81.638h9.622c2.769 0 5.008 2.246 5.008 5.008v.142h-19.644v-.142c.006-2.762 2.246-5.008 5.014-5.008z"/>
    <path fill="#FFCF2D" fill-rule="evenodd" d="M169.776 86.594h19.257c-.028-2.631-2.17-4.762-4.814-4.762h-9.622c-2.644 0-4.787 2.13-4.821 4.762zm-.387.051c.006-2.868 2.332-5.2 5.208-5.2h9.622c2.875 0 5.201 2.332 5.201 5.2v.336h-20.031v-.335z" clip-rule="evenodd"/>
    <path fill="#fff" d="M127.984 72.132H67.071c-2.291 0-4.143-1.852-4.143-4.143V25.384c0-2.291 1.852-4.143 4.143-4.143h60.913c2.291 0 4.144 1.852 4.144 4.143v42.599c.006 2.29-1.853 4.15-4.144 4.15z"/>
    <path fill="#3FB1B5" fill-rule="evenodd" d="M67.071 21.434c-2.184 0-3.95 1.766-3.95 3.95v42.605c0 2.184 1.766 3.95 3.95 3.95h60.914c2.184 0 3.955-1.772 3.949-3.956v-42.6c0-2.183-1.765-3.949-3.949-3.949H67.071zm-4.337 3.95c0-2.398 1.94-4.337 4.337-4.337h60.914c2.398 0 4.336 1.939 4.336 4.337v42.598c.007 2.398-1.938 4.344-4.336 4.344H67.071c-2.398 0-4.337-1.939-4.337-4.337V25.384z" clip-rule="evenodd"/>
    <path fill="#66B0F0" d="M128.023 68.17H67.697c-.897 0-1.62-.73-1.62-1.62V25.79c0-.897.73-1.62 1.62-1.62h60.326c.897 0 1.62.73 1.62 1.62v40.753c.007.897-.723 1.627-1.62 1.627z"/>
    <path fill="#66B0F0" fill-rule="evenodd" d="M67.696 24.364c-.784 0-1.426.637-1.426 1.426v40.76c0 .784.637 1.426 1.426 1.426h60.327c.79 0 1.432-.642 1.426-1.431V25.79c0-.784-.637-1.426-1.426-1.426H67.696zm-1.813 1.426c0-1.004.816-1.813 1.813-1.813h60.327c1.004 0 1.813.816 1.813 1.813v40.752c.007 1.006-.81 1.821-1.813 1.821H67.696c-1.004 0-1.813-.816-1.813-1.813V25.79z" clip-rule="evenodd"/>
    <path fill="#fff" fill-rule="evenodd" d="M68.905 26.08c-.208 0-.374.17-.374.375v.955c0 .208.17.374.374.374h.955c.2 0 .37-.162.374-.376v-.953c0-.208-.17-.374-.374-.374h-.955zm-.761.375c0-.415.337-.761.761-.761h.955c.415 0 .762.336.762.761v.959c-.009.418-.343.758-.762.758h-.955c-.415 0-.761-.337-.761-.762v-.955zM73.247 26.08c-.208 0-.374.17-.374.375v.955c0 .208.17.374.374.374h.955c.204 0 .374-.166.374-.374v-.955c0-.208-.17-.374-.374-.374h-.955zm-.762.375c0-.415.337-.761.762-.761h.955c.415 0 .761.336.761.761v.955c0 .425-.346.762-.761.762h-.955c-.415 0-.762-.337-.762-.762v-.955zM77.59 26.08c-.207 0-.374.17-.374.375v.955c0 .208.17.374.375.374h.955c.209 0 .374-.165.374-.374v-.955c0-.208-.17-.374-.374-.374h-.955zm-.76.375c0-.415.336-.761.76-.761h.956c.415 0 .761.336.761.761v.955c0 .423-.338.762-.761.762h-.955c-.416 0-.762-.337-.762-.762v-.955z" clip-rule="evenodd"/>
    <path fill="#fff" d="M110.386 86.659H86.741l4.64-14.527h14.359l4.646 14.527z"/>
    <path fill="#3FB1B5" fill-rule="evenodd" d="M91.24 71.939h14.641l4.77 14.913H86.476l4.763-14.913zm.282.387l-4.516 14.14h23.115l-4.523-14.14H91.522z" clip-rule="evenodd"/>
    <path fill="#3FB1B5" d="M88.599 80.844l2.781-8.712h14.359l-17.14 8.712z"/>
    <path fill="#fff" fill-rule="evenodd" d="M113.019 26.41c-.971 0-1.756.784-1.756 1.755v7.422c0 .97.785 1.755 1.756 1.755h11.493c.971 0 1.755-.785 1.755-1.755v-7.422c0-.97-.784-1.755-1.755-1.755h-11.493zm-2.143 1.755c0-1.184.958-2.142 2.143-2.142h11.493c1.185 0 2.143.957 2.143 2.142v7.422c0 1.184-.958 2.142-2.143 2.142h-11.493c-1.185 0-2.143-.958-2.143-2.142v-7.422z" clip-rule="evenodd"/>
    <path fill="#fff" fill-rule="evenodd" d="M114.163 28.862c0-.107.087-.193.194-.193h8.77c.107 0 .193.086.193.193 0 .107-.086.194-.193.194h-8.77c-.107 0-.194-.087-.194-.194zM114.163 30.863c0-.107.087-.194.194-.194h8.77c.107 0 .193.087.193.194 0 .107-.086.193-.193.193h-8.77c-.107 0-.194-.086-.194-.193zM114.163 32.863c0-.107.087-.193.194-.193h8.77c.107 0 .193.086.193.193 0 .107-.086.194-.193.194h-8.77c-.107 0-.194-.087-.194-.194zM114.163 34.864c0-.107.087-.194.194-.194h8.77c.107 0 .193.087.193.194 0 .107-.086.193-.193.193h-8.77c-.107 0-.194-.086-.194-.193z" clip-rule="evenodd"/>
    <path fill="#fff" d="M127.688 68.17H82.004l-2.678 3.84c-3.026 4.336-9.422 4.4-12.532.122L50.48 49.694c.684.852 3.814-.097 6.795-2.059 3.027-1.994 4.982-4.504 4.369-5.434l11.313 14.417 3.465-6.118c.949-1.62 2.523-2.781 4.356-3.207l11.79-2.497h10.165l11.203 2.471c1.949.445 3.601 1.717 4.537 3.479l9.215 17.424z"/>
    <path fill="#3FB1B5" fill-rule="evenodd" d="M61.482 42.308l.313-.226 11.135 14.19 3.324-5.868v-.002c.976-1.665 2.595-2.86 4.48-3.297l.002-.001 11.812-2.502h10.205l11.225 2.476c2.004.458 3.703 1.766 4.665 3.577l9.366 17.708H82.105l-2.62 3.757c-3.103 4.446-9.66 4.512-12.849.126L50.322 49.808l.308-.236c.114.143.36.241.78.242.41 0 .938-.095 1.549-.28 1.22-.37 2.73-1.088 4.209-2.06 1.5-.989 2.729-2.102 3.504-3.076.389-.488.656-.932.79-1.302.138-.377.122-.633.02-.788zm.443.566c-.021.115-.055.234-.098.354-.154.425-.45.906-.852 1.411-.806 1.013-2.068 2.152-3.594 3.158-1.503.989-3.048 1.726-4.31 2.108-.63.19-1.199.296-1.661.296-.117 0-.23-.007-.339-.022l15.879 21.84c3.032 4.17 9.266 4.107 12.217-.12l2.736-3.923h45.463l-9.065-17.14m-4.408-3.38c1.893.433 3.498 1.668 4.408 3.38l-4.408-3.38zm-.001 0h.001-.001zm0 0l-11.181-2.467H92.588l-11.767 2.493h-.001c-1.78.414-3.31 1.542-4.23 3.115l-.001.001-3.607 6.367-11.057-14.091" clip-rule="evenodd"/>
    <path fill="#3FB1B5" fill-rule="evenodd" d="M111.814 61.324c.096-.048.212-.01.26.086l3.246 6.408c.049.095.011.212-.085.26-.095.048-.212.01-.26-.085l-3.246-6.408c-.048-.096-.01-.212.085-.26zM85.047 61.989c.095.048.133.165.085.26l-3.214 6.344c-.048.095-.165.133-.26.085-.096-.048-.134-.165-.085-.26l3.214-6.344c.048-.095.164-.133.26-.085zM68.437 50.87c.084-.065.206-.05.271.034l7.364 9.415c.066.085.05.206-.034.272-.084.066-.205.051-.271-.033l-7.364-9.416c-.066-.084-.05-.206.034-.271zM107.842 45.916c.07.081.06.204-.022.273l-6.216 5.277-2.835-3.45c-.068-.082-.056-.204.026-.272.083-.068.205-.056.273.026l2.585 3.146 5.917-5.022c.081-.07.203-.06.272.022zM87.396 45.92c.067-.083.189-.097.272-.03l6.514 5.157 2.513-3.209c.066-.084.188-.099.272-.033.084.066.099.188.033.272l-2.753 3.516-6.82-5.4c-.083-.066-.097-.188-.03-.272zM63.783 44.924c.09-.059.21-.033.268.056.203.31.173.72.02 1.142-.155.428-.451.915-.856 1.427-.81 1.024-2.078 2.178-3.614 3.197-1.51 1.002-3.07 1.747-4.345 2.133-.637.193-1.212.3-1.68.3-.458 0-.863-.104-1.093-.389-.067-.083-.054-.205.03-.272.083-.067.205-.054.272.03.116.143.366.243.791.243.416 0 .95-.095 1.568-.282 1.233-.374 2.758-1.1 4.243-2.086 1.51-1.001 2.745-2.129 3.525-3.114.39-.494.66-.944.795-1.32.138-.38.123-.64.02-.797-.059-.09-.034-.21.056-.268z" clip-rule="evenodd"/>
    <path fill="#3FB1B5" fill-rule="evenodd" d="M61.863 45.454c-.296 0-.535.24-.535.535 0 .296.24.536.535.536.296 0 .536-.24.536-.535 0-.296-.24-.536-.536-.536zm-.923.535c0-.51.414-.922.923-.922.51 0 .923.413.923.922 0 .51-.413.923-.923.923s-.923-.413-.923-.922zM97.873 50.036c-.296 0-.536.24-.536.535 0 .296.24.536.536.536.296 0 .536-.24.536-.536 0-.295-.24-.535-.536-.535zm-.923.535c0-.51.413-.922.923-.922s.923.413.923.922c0 .51-.413.923-.923.923s-.923-.413-.923-.923zM97.873 55.908c-.296 0-.536.24-.536.536 0 .296.24.536.536.536.296 0 .536-.24.536-.536 0-.296-.24-.536-.536-.536zm-.923.536c0-.51.413-.923.923-.923s.923.413.923.923-.413.923-.923.923-.923-.413-.923-.923z" clip-rule="evenodd"/>
    <path fill="#3FB1B5" d="M79.094 72.32l2.91-4.15v4.15h-2.91z"/>
    <path fill="#FE5244" d="M57.203 47.441c-2.982 1.962-6.111 2.91-6.796 2.06-.012-.014-.019-.027-.032-.046-.142-.213-.129-.503 0-.858.445-1.168 2.285-2.975 4.62-4.511 1.86-1.227 3.692-2.078 4.963-2.343.736-.148 1.285-.103 1.55.18l.064.078c.606.93-1.343 3.446-4.37 5.44z"/>
    <path fill="#E57281" d="M57.203 47.441c-1.697 1.117-3.446 1.91-4.762 2.22l-5.892-8.312c-.82-1.161-.549-2.768.62-3.588l5.304-3.73-3.007-5.117c-.439-.742-.187-1.704.561-2.136.245-.142.51-.207.775-.207.51 0 1.013.252 1.31.716l9.402 14.624.065.103c.6.916-1.349 3.433-4.376 5.427z"/>
    <path fill="#9A3B82" fill-rule="evenodd" d="M52.355 33.927c.09-.058.21-.032.268.057l3.285 5.093c.36.567.2 1.318-.367 1.686l-.728.477c-.567.375-1.333.215-1.701-.352l-3.104-4.645c-.06-.09-.035-.21.054-.269.089-.06.209-.035.268.054l3.105 4.647v.001c.252.387.776.498 1.164.241l.73-.478c.389-.252.499-.765.253-1.154l-3.285-5.09c-.057-.09-.032-.21.058-.268z" clip-rule="evenodd"/>
    <path fill="#9A3B82" fill-rule="evenodd" d="M53.155 40.607c.09-.059.21-.034.268.056.375.574.207 1.347-.368 1.714l-.665.42c-.567.36-1.317.2-1.685-.36-.059-.09-.034-.21.055-.268.09-.06.21-.034.268.055.252.383.766.493 1.154.246l.665-.42c.393-.251.509-.782.252-1.175-.059-.09-.034-.21.056-.268z" clip-rule="evenodd"/>
    <path fill="#9A3B82" fill-rule="evenodd" d="M47.706 37.614c.09-.06.21-.036.27.052l3.04 4.519c.375.574.215 1.348-.376 1.716l-.004.003-.619.342c-.552.349-1.276.2-1.657-.332l-1.762-2.485c-.062-.087-.041-.208.046-.27.087-.062.208-.041.27.046l1.761 2.484c.265.37.763.467 1.14.227l.004-.003.62-.343c.4-.252.51-.778.254-1.171l-3.04-4.517c-.059-.088-.035-.209.053-.268z" clip-rule="evenodd"/>
    <path fill="#E57281" d="M59.321 38.504l-1.542-2.395c-.51-.794-1.575-1.013-2.355-.484l-3.827 2.594s1.11 1.995 3.807.414l.904 1.439c-1.846 1.168-2.375 3.627-1.175 5.453l4.188-7.021z"/>
    <path fill="#9A3B82" fill-rule="evenodd" d="M57.741 36.069l1.542 2.394c.058.09.032.21-.057.268-.09.058-.21.032-.268-.058l-1.542-2.394c-.451-.703-1.393-.897-2.083-.43l-3.468 2.42c.025.032.055.069.09.108.135.148.338.331.618.468.548.268 1.43.384 2.733-.38l.162-.094 1.106 1.761-.163.103c-1.755 1.11-2.258 3.447-1.117 5.184.059.089.034.209-.055.268-.09.058-.21.034-.268-.056-1.224-1.862-.735-4.352 1.072-5.616l-.705-1.123c-1.312.718-2.28.621-2.935.3-.335-.163-.577-.38-.735-.556-.08-.088-.139-.166-.178-.224-.02-.028-.035-.052-.046-.069l-.012-.02-.003-.006-.001-.002-.001-.001.169-.095-.17.095-.084-.153 3.771-2.63.001-.002c.871-.59 2.059-.345 2.627.54z" clip-rule="evenodd"/>
    <path fill="#9A3B82" d="M57.204 47.441c-1.697 1.117-3.446 1.91-4.763 2.22l-1.464-2.065c.82-1.07 2.284-2.362 4.02-3.504 1.859-1.226 3.691-2.078 4.963-2.342.735-.149 1.284-.104 1.548.18l.065.078.02.032c.006.006.006.013.012.026l.02.032c.438.987-1.491 3.407-4.42 5.343z"/>
    <path fill="#E57281" d="M102.726 39.117v5.672c0 1.646-2.284 2.975-5.091 2.975-2.814 0-5.092-1.33-5.092-2.975v-5.672h10.183z"/>
    <path fill="#9A3B82" d="M94.032 46.893c-.922-.536-1.497-1.284-1.497-2.104v-5.672h10.19v1.574c0 1.633-.994 3.098-2.504 3.71l-6.189 2.492z"/>
    <path fill="#E57281" d="M105.565 38.781v.097c0 .98-.794 1.775-1.775 1.775h-1.168c-.393 1.587-1.826 2.768-3.543 2.768h-2.89c-1.711 0-3.15-1.175-3.537-2.768h-1.168c-.981 0-1.775-.794-1.775-1.775v-.097c0-.98.794-1.775 1.775-1.775h1.058v-1.4c0-1.497 1.103-2.736 2.543-2.943.316.53 1.271 1.794 3.22 1.723.916-.032 1.768-.206 2.472-.413.845-.245 1.69.271 1.903 1.078.033.18.052.361.052.548V37h1.058c.975 0 1.775.801 1.775 1.782z"/>
    <path fill="#9A3B82" d="M103.539 37h-.813v-1.555c0-.136-.02-.272-.052-.394-.213-.807-1.058-1.323-1.904-1.078-.703.207-1.548.381-2.471.413-1.95.071-2.904-1.194-3.22-1.723-1.44.207-2.543 1.446-2.543 2.943v1.4h-1.013s-1.162-4.2-.29-5.388c.858-1.168 1.89-.659 1.89-.659s-.62-3.497 2.84-3.433c3.452.065 7.944 4.072 8.273 4.808.516 1.13-.697 4.666-.697 4.666z"/>
    <path fill="#9A3B82" fill-rule="evenodd" d="M104.366 38.026c-.596 0-1.084.483-1.084 1.084 0 .09-.073.162-.162.162-.089 0-.161-.073-.161-.162 0-.78.634-1.407 1.407-1.407.089 0 .161.072.161.162 0 .089-.072.161-.161.161zM90.756 37.865c0-.09.072-.162.161-.162.773 0 1.407.627 1.407 1.407 0 .09-.072.162-.161.162-.09 0-.162-.073-.162-.162 0-.6-.488-1.084-1.084-1.084-.089 0-.161-.072-.161-.161zM101.196 35.476l-.091.124.092-.124c.072.052.087.153.034.225-.052.072-.153.088-.225.035l.095-.13-.095.13h-.001l-.006-.004-.026-.018c-.024-.015-.061-.037-.109-.063-.096-.051-.237-.115-.411-.165-.349-.1-.831-.143-1.374.082-.083.034-.177-.005-.211-.087-.034-.083.005-.177.087-.211.625-.26 1.185-.21 1.586-.094.201.057.362.13.475.19.056.03.1.056.13.076l.036.023.01.007.003.003h.001zM94.106 35.606l-.096-.13c-.072.052-.087.153-.035.225.053.072.154.088.226.035m0 0l.007-.004.026-.018c.024-.015.06-.037.109-.063.096-.051.236-.115.411-.165.349-.1.831-.143 1.374.082.083.034.177-.005.211-.087.034-.083-.005-.177-.087-.211-.625-.26-1.185-.21-1.587-.094-.2.057-.362.13-.474.19-.056.03-.1.056-.13.076l-.036.023-.01.007-.003.003h-.001l.095.13M99.312 40.222c.08.038.116.134.078.214l-.146-.068.146.069-.001.002-.002.004-.006.012-.022.04c-.02.033-.049.079-.089.13-.079.104-.202.234-.38.346-.36.227-.918.355-1.722.059-.084-.031-.126-.124-.096-.208.031-.083.124-.126.208-.095.72.265 1.171.139 1.44-.03.137-.086.233-.188.294-.268.031-.04.053-.074.066-.097l.015-.026.002-.005V40.3M96.992 39.803c.005-.089.082-.156.171-.15.19.012.433.012.632.009l.246-.006.073-.003h.026m-1.148.15c-.006.089.061.166.15.172l-.15-.172zm.15.172c.204.013.458.013.658.01l-.658-.01zm.658.01l.252-.007-.252.006zm.252-.007l.074-.002-.074.002zm.074-.002l.02-.001h-.02zm.02-.001h.005-.005zm.005 0h.002-.002zm.002 0zm0 0zm0 0l-.007-.162.007.162z" clip-rule="evenodd"/>
    <path fill="#9A3B82" d="M100.064 38.297c.178 0 .323-.243.323-.542 0-.3-.145-.542-.323-.542-.178 0-.323.242-.323.542 0 .3.145.542.323.542zM95.436 38.297c.178 0 .323-.243.323-.542 0-.3-.145-.542-.323-.542-.178 0-.323.242-.323.542 0 .3.145.542.323.542z"/>
    <path fill="#fff" fill-rule="evenodd" d="M94.167 36.29c-.304 0-.548.244-.548.549v2.032c0 .305.244.549.548.549H96.2c.306 0 .553-.252.549-.546V36.839c0-.305-.245-.549-.55-.549h-2.032zm-.871.549c0-.483.388-.872.871-.872H96.2c.483 0 .871.389.871.872v2.031c.007.48-.39.873-.871.873h-2.033c-.483 0-.871-.389-.871-.872V36.84zM99.144 36.29c-.305 0-.549.244-.549.549v2.032c0 .305.244.549.549.549h2.032c.304 0 .549-.25.549-.549V36.84c0-.305-.244-.549-.549-.549h-2.032zm-.872.549c0-.483.389-.872.872-.872h2.032c.483 0 .872.389.872.872v2.032c0 .476-.388.872-.872.872h-2.032c-.483 0-.872-.389-.872-.872V36.84z" clip-rule="evenodd"/>
    <path fill="#fff" fill-rule="evenodd" d="M98.434 37.632h-1.516v-.322h1.516v.322z" clip-rule="evenodd"/>
    <path fill="#66B0F0" fill-rule="evenodd" d="M94.659 59.787c-.538 0-.968.435-.968.968v3.75c0 .537.435.967.968.967h7.053c.538 0 .969-.435.969-.968v-3.75c0-.537-.436-.967-.969-.967h-7.053zm-1.355.968c0-.745.602-1.355 1.355-1.355h7.053c.746 0 1.356.602 1.356 1.355v3.75c0 .744-.603 1.355-1.356 1.355h-7.053c-.745 0-1.355-.603-1.355-1.356v-3.75z" clip-rule="evenodd"/>
    <path fill="#66B0F0" d="M98.363 64.156h-2.387c-.381 0-.69-.31-.69-.69v-1.672c0-.38.309-.69.69-.69h2.387c.381 0 .69.31.69.69v1.671c0 .381-.309.69-.69.69zM100.687 64.11l-.735-.49c-.2-.135-.323-.368-.323-.62v-.735c0-.252.122-.484.323-.62l.735-.49c.174-.116.4.013.4.232v2.498c.007.213-.226.342-.4.226z"/>
    <path fill="#3FB1B5" fill-rule="evenodd" d="M24.536 86.788c0-.107.087-.194.194-.194h171.318c.107 0 .194.087.194.194 0 .107-.087.193-.194.193H24.73c-.107 0-.194-.086-.194-.193z" clip-rule="evenodd"/>
    <path fill="#fff" d="M79.886 87.917v79.674h-4.498v-15.166c0-1.413-1.148-2.562-2.562-2.562H40.63c-1.413 0-2.562 1.149-2.562 2.562v15.166H33.57V87.917h46.316z"/>
    <path fill="#3FB1B5" fill-rule="evenodd" d="M33.378 87.724H80.08v80.06h-4.885v-15.359c0-1.306-1.062-2.368-2.368-2.368H40.632c-1.307 0-2.369 1.062-2.369 2.368v15.359h-4.885v-80.06zm.387.387v79.286h4.111v-14.972c0-1.52 1.235-2.755 2.756-2.755h32.196c1.52 0 2.755 1.235 2.755 2.755v14.972h4.111V88.111H33.765z" clip-rule="evenodd"/>
    <path fill="#D0F0E4" d="M80.022 87.917v21.142L33.57 147.308l.007-59.39h46.445z"/>
    <path fill="#3FB1B5" fill-rule="evenodd" d="M40.502 91.75c-1.236 0-2.233.998-2.233 2.233v14.45c0 1.235.998 2.232 2.233 2.232h32.46c1.236 0 2.233-.997 2.233-2.232v-14.45c0-1.235-.997-2.233-2.232-2.233H40.502zm-2.62 2.233c0-1.449 1.17-2.62 2.62-2.62h32.46c1.45 0 2.62 1.171 2.62 2.62v14.45c0 1.449-1.17 2.62-2.62 2.62h-32.46c-1.45 0-2.62-1.171-2.62-2.62v-14.45z" clip-rule="evenodd"/>
    <path fill="#FFCF2D" d="M64.986 121.804H49.007l-.664-4.575h15.985l.658 4.575z"/>
    <path fill="#fff" d="M73.511 114.589c-1.994 0-3.607 1.613-3.607 3.608v3.607H56.307v-3.607c0-1.995 1.613-3.608 3.607-3.608h13.597z"/>
    <path fill="#3FB1B5" fill-rule="evenodd" d="M59.913 114.783c-1.887 0-3.413 1.526-3.413 3.414v3.413h13.21v-3.413c0-1.5.866-2.796 2.126-3.414H59.913zm13.598-.387H59.913c-2.1 0-3.8 1.7-3.8 3.801v3.801h13.984v-3.801c0-1.888 1.527-3.414 3.414-3.414v-.387z" clip-rule="evenodd"/>
    <path fill="#fff" d="M76.899 117.229H63.302c-.42-1.523-1.82-2.64-3.479-2.64h13.598c1.658 0 3.052 1.117 3.478 2.64z"/>
    <path fill="#3FB1B5" fill-rule="evenodd" d="M63.446 117.035h13.188c-.478-1.315-1.735-2.252-3.213-2.252H61.499c.92.451 1.632 1.263 1.947 2.252zm-3.623-2.252c1.57 0 2.895 1.056 3.292 2.497l.04.142h14l-.07-.246c-.448-1.604-1.917-2.78-3.664-2.78H59.823v.387zM40.502 121.998c-1.236 0-2.233.997-2.233 2.232v14.45c0 1.235.998 2.232 2.233 2.232h32.46c1.236 0 2.233-.997 2.233-2.232v-14.45c0-1.235-.997-2.232-2.232-2.232H40.502zm-2.62 2.232c0-1.449 1.17-2.62 2.62-2.62h32.46c1.45 0 2.62 1.171 2.62 2.62v14.45c0 1.449-1.17 2.62-2.62 2.62h-32.46c-1.45 0-2.62-1.171-2.62-2.62v-14.45zM52.17 99.03c-1.048 0-1.891.849-1.891 1.891 0 .107-.087.193-.194.193-.107 0-.193-.086-.193-.193 0-1.255 1.015-2.278 2.278-2.278H61.3c1.255 0 2.278 1.015 2.278 2.278 0 .107-.086.193-.193.193-.107 0-.194-.086-.194-.193 0-1.048-.849-1.891-1.89-1.891H52.17z" clip-rule="evenodd"/>
    <path fill="#3FB1B5" fill-rule="evenodd" d="M52.17 129.277c-1.048 0-1.891.849-1.891 1.891 0 .107-.087.193-.194.193-.107 0-.193-.086-.193-.193 0-1.255 1.015-2.278 2.278-2.278H61.3c1.255 0 2.278 1.015 2.278 2.278 0 .107-.086.193-.193.193-.107 0-.194-.086-.194-.193 0-1.048-.849-1.891-1.89-1.891H52.17z" clip-rule="evenodd"/>
    <path fill="#fff" d="M189.227 87.917h-4.795v79.848h4.795V87.917z"/>
    <path fill="#3FB1B5" fill-rule="evenodd" d="M184.239 87.724h5.182v80.235h-5.182V87.724zm.387.387v79.461h4.408V88.111h-4.408z" clip-rule="evenodd"/>
    <path fill="#fff" d="M47.187 75.836H44.29S40.153 58.6 36.52 58.038c-3.633-.561-3.82 6.073-3.82 6.073s.065-10.087 9.145-8.706c9.086 1.381 5.343 20.431 5.343 20.431z"/>
    <path fill="#3FB1B5" fill-rule="evenodd" d="M34.658 58.266c.507-.36 1.132-.537 1.892-.42.522.081 1.023.454 1.493.99.475.541.943 1.275 1.396 2.13.906 1.708 1.767 3.926 2.513 6.12.745 2.194 1.377 4.37 1.822 5.997.223.814.4 1.49.52 1.964l.137.55.012.046h2.585l.01-.055c.025-.139.06-.343.102-.604.084-.52.195-1.268.299-2.168.208-1.802.391-4.216.292-6.67-.1-2.457-.482-4.938-1.393-6.884-.908-1.94-2.332-3.333-4.522-3.666-2.234-.34-3.894.028-5.133.754-.85.498-1.512 1.171-2.025 1.916zm12.53 17.57l.19.038-.03.156h-3.21l-.035-.148.188-.046-.188.045-.003-.012-.005-.017-.004-.02-.036-.143c-.03-.126-.077-.31-.137-.547-.12-.471-.295-1.145-.517-1.956-.444-1.623-1.074-3.791-1.816-5.976-.743-2.186-1.597-4.382-2.488-6.063-.446-.842-.898-1.546-1.345-2.055-.45-.514-.874-.803-1.26-.863-.84-.13-1.472.153-1.962.656-.498.512-.85 1.255-1.097 2.037-.246.779-.38 1.578-.454 2.184-.037.303-.058.556-.07.734l-.012.205-.002.054v.013l-.001.003v.001h-.002l-.385-.007.193.002-.193-.002V64.1v-.023l.003-.087c.003-.076.008-.186.018-.325.02-.278.058-.672.133-1.14.15-.936.446-2.174 1.033-3.371.587-1.198 1.469-2.364 2.794-3.14 1.327-.777 3.08-1.152 5.386-.801 2.353.357 3.868 1.863 4.814 3.884.943 2.014 1.329 4.555 1.43 7.033.1 2.48-.085 4.916-.294 6.73-.105.906-.216 1.659-.301 2.185-.043.263-.079.47-.104.61l-.03.162-.008.041-.002.01v.004l-.19-.037z" clip-rule="evenodd"/>
    <path fill="#3FB1B5" fill-rule="evenodd" d="M37.329 56.026c-.1.036-.212-.015-.249-.115-.037-.1.015-.212.115-.249l.067.182-.067-.182h.001l.002-.001.007-.002.021-.007.077-.023c.067-.019.162-.042.283-.063.24-.041.582-.073.993-.037.824.073 1.913.42 3.005 1.497 2.175 2.14 4.338 7.143 4.526 18.55.001.106-.084.194-.19.196-.108.002-.196-.084-.198-.19-.187-11.388-2.35-16.253-4.41-18.28-1.024-1.01-2.027-1.322-2.767-1.387-.372-.033-.68-.004-.894.033-.106.018-.19.038-.244.054-.028.007-.048.014-.061.018l-.014.005h-.003z" clip-rule="evenodd"/>
    <path fill="#FE5244" d="M55.08 75.578H41.47v11.08h13.61v-11.08z"/>
    <path fill="#fff" d="M57.945 81.122c-.864.374-1.897.329-2.858-.09-.71-.31-1.382-.82-1.924-1.517-.748-.968-1.252-2.291-1.252-3.937 0-3.988-3.175-6.492-4.478-1.213-.09.368-.175.768-.245 1.213v-.038c0-.013 0-.033.006-.052v-.026c.026-.329.123-1.303.42-2.478.219-.871.548-1.84 1.038-2.736.246-.446.53-.871.865-1.252.865-.994 2.052-1.691 3.672-1.691 2.982 0 5.163 3.51 5.995 7.008.73 3.04.433 6.08-1.239 6.809z"/>
    <path fill="#3FB1B5" fill-rule="evenodd" d="M53.188 67.499c-1.555 0-2.692.666-3.526 1.624-.324.369-.6.782-.84 1.218-.355.648-.624 1.336-.828 1.998.174-.296.36-.533.556-.714.264-.244.547-.39.84-.439.295-.048.584.005.855.136.535.26.998.828 1.326 1.563.33.74.533 1.672.533 2.693 0 1.605.49 2.885 1.212 3.818.522.672 1.168 1.161 1.847 1.458.921.402 1.897.44 2.704.09.744-.324 1.218-1.181 1.406-2.39.187-1.2.083-2.693-.278-4.195-.411-1.73-1.155-3.455-2.156-4.743-1.002-1.289-2.242-2.117-3.65-2.117zM47 75.465V75.447c.027-.336.125-1.322.425-2.51m1.946-4.069c.896-1.03 2.134-1.757 3.817-1.757 1.574 0 2.915.927 3.957 2.268 1.043 1.341 1.806 3.12 2.227 4.89.369 1.536.48 3.082.284 4.345-.196 1.253-.706 2.28-1.634 2.685-.923.4-2.012.347-3.014-.09-.74-.323-1.437-.853-1.998-1.575-.776-1.004-1.293-2.37-1.293-4.056 0-.972-.194-1.85-.5-2.535-.308-.691-.72-1.168-1.141-1.372-.208-.101-.417-.136-.623-.102-.206.033-.422.138-.64.34-.44.407-.87 1.197-1.193 2.502-.09.363-.172.758-.242 1.198l-.385-.03v-.04-.002c0-.01 0-.038.007-.072" clip-rule="evenodd"/>
    <path fill="#3FB1B5" fill-rule="evenodd" d="M49.411 68.838c-.087.062-.107.183-.045.27.062.087.183.108.27.046l-.225-.316z" clip-rule="evenodd"/>
    <path fill="#3FB1B5" d="M32.506 64.11c0 1.065-.122 5.138 3.763 5.325 3.885.187 4.272-5.68 4.272-5.68s-1.91-5.188-4.02-5.717c-3.57-.897-4.015 6.073-4.015 6.073zM51.911 75.578h-4.724c1.091-6.834 4.724-4.265 4.724 0z"/>
    <path fill="#fff" d="M132.133 25.384v42.599c0 2.29-1.858 4.143-4.143 4.143H79.235c-3.06 4.214-9.364 4.233-12.449 0l-.006-.007c-1.226-.084-2.31-.71-3.008-1.632l1.123-.968 28.654-24.73 27.284-23.548h7.157c2.285 0 4.143 1.858 4.143 4.143zM57.946 81.315c-.858.388-1.897.33-2.859-.09v5.434H45.039l8.131-7.015 1.923-1.659 1.465-1.264 2.833-2.408c.827 3.524.368 6.17-1.445 7.002z" opacity=".4"/>
    <path fill="#FFCF2D" d="M5.058 27.307c-.077 0-.154-.052-.18-.13-.032-.102.02-.212.116-.244l.607-.213c.103-.033.213.019.245.116.032.103-.02.213-.116.245l-.607.213c-.026.006-.045.013-.065.013zm1.523-.53c-.077 0-.154-.051-.18-.128-.032-.104.02-.213.116-.246l.607-.213c.103-.032.213.02.245.117.032.103-.02.213-.116.245l-.607.213c-.02.006-.045.013-.065.013zm1.523-.535c-.077 0-.154-.052-.18-.129-.032-.103.02-.213.116-.245l.607-.213c.103-.033.213.02.245.116.032.103-.02.213-.116.245l-.607.213c-.02.013-.045.013-.065.013zm1.523-.53c-.077 0-.154-.05-.18-.128-.032-.104.02-.213.116-.245l.607-.213c.103-.033.213.019.245.116.032.103-.02.213-.116.245l-.607.213c-.02.013-.039.013-.065.013zm1.523-.528c-.077 0-.154-.052-.18-.13-.033-.103.02-.212.116-.245l.607-.213c.103-.032.213.02.245.117.032.103-.02.212-.116.245l-.607.213c-.02.013-.039.013-.065.013zm1.53-.53c-.078 0-.155-.051-.18-.129-.033-.103.019-.212.115-.245l.607-.213c.103-.032.213.02.245.116.032.104-.02.213-.116.246l-.607.213c-.025.012-.045.012-.064.012zm1.523-.529c-.077 0-.155-.051-.18-.129-.033-.103.019-.213.115-.245l.607-.213c.103-.032.213.02.245.116.033.104-.02.213-.116.245l-.607.213c-.025.007-.045.013-.064.013zm1.523-.529c-.078 0-.155-.052-.18-.129-.033-.103.019-.213.115-.245l.607-.213c.103-.032.213.02.245.116.032.103-.02.213-.116.245l-.606.213c-.026.007-.046.013-.065.013zm1.523-.529c-.077 0-.155-.052-.18-.13-.033-.102.019-.212.115-.244l.607-.213c.103-.033.213.02.245.116.032.103-.02.213-.116.245l-.607.213c-.019.007-.045.013-.064.013zm1.523-.53c-.077 0-.155-.05-.18-.128-.033-.104.019-.213.115-.245l.607-.213c.103-.033.213.019.245.116.032.103-.02.213-.116.245l-.607.213c-.019.006-.045.013-.064.013zm1.523-.528c-.078 0-.155-.052-.18-.13-.033-.103.019-.212.115-.245l.607-.213c.103-.032.213.02.245.117.032.103-.02.212-.116.245l-.607.213c-.019.006-.045.013-.064.013zm1.523-.536c-.078 0-.155-.052-.18-.13-.033-.102.019-.212.115-.244l.607-.213c.103-.032.213.02.245.116.032.103-.02.213-.116.245l-.607.213c-.019.013-.038.013-.064.013zm1.523-.53c-.078 0-.155-.05-.18-.128-.033-.104.019-.213.115-.245l.607-.213c.103-.033.213.019.245.116.032.103-.02.213-.116.245l-.607.213c-.019.013-.038.013-.064.013zm1.53-.528c-.078 0-.155-.052-.181-.13-.033-.103.02-.212.116-.245l.607-.213c.103-.032.212.02.245.116.032.104-.02.213-.116.246l-.607.213c-.026.013-.045.013-.065.013zm1.522-.53c-.077 0-.155-.051-.18-.129-.033-.103.02-.213.116-.245l.607-.213c.103-.032.212.02.245.116.032.104-.02.213-.116.246l-.607.212c-.026.013-.045.013-.065.013zm1.523-.529c-.077 0-.154-.051-.18-.129-.033-.103.02-.213.116-.245l.607-.213c.103-.032.213.02.245.116.032.103-.02.213-.116.245l-.607.213c-.026.013-.045.013-.065.013zm1.523-.529c-.077 0-.154-.052-.18-.129-.032-.103.02-.213.116-.245l.607-.213c.103-.032.213.02.245.116.032.103-.02.213-.116.245l-.607.213c-.02.007-.045.013-.065.013zm1.523-.53c-.077 0-.154-.05-.18-.128-.032-.103.02-.213.116-.245l.607-.213c.103-.033.213.019.245.116.032.103-.02.213-.116.245l-.607.213c-.02.006-.045.013-.065.013z"/>
    <path fill="#3FB1B5" d="M11.926 27.307c-.11 0-.194-.084-.194-.194 0-1.749-.542-3.02-1.62-3.768-.806-.562-1.626-.614-1.632-.614-.11-.006-.187-.096-.18-.206.006-.11.096-.187.2-.18.038 0 .922.05 1.82.67 1.49 1.033 1.8 2.801 1.8 4.098 0 .104-.084.194-.194.194z"/>
    <path fill="#3FB1B5" d="M42.76 27.307H5.06c-.071 0-.142-.039-.175-.11-.032-.064-.025-.142.02-.2l15.32-20.425c.032-.045.084-.07.136-.077.051-.007.11.013.148.051l22.387 20.425c.058.052.077.136.052.213-.033.071-.104.123-.188.123zM5.447 26.92h36.816L20.407 6.972 5.446 26.92z"/>
    <path fill="#FFCF2D" d="M1.671 28.65C.75 28.65 0 27.9 0 26.977c0-.923.749-1.672 1.671-1.672.923 0 1.672.749 1.672 1.672 0 .922-.749 1.671-1.672 1.671zm0-2.963c-.71 0-1.284.574-1.284 1.284 0 .71.575 1.285 1.284 1.285.71 0 1.285-.575 1.285-1.285s-.575-1.284-1.285-1.284z"/>
    <path fill="#FFCF2D" d="M3.343 26.978h-.387v1.477h.387v-1.477zM21.522 5.3c-.923 0-1.671-.748-1.671-1.67 0-.924.748-1.672 1.671-1.672s1.672.748 1.672 1.671c0 .917-.75 1.672-1.672 1.672zm0-2.961c-.71 0-1.284.574-1.284 1.284 0 .71.574 1.29 1.284 1.29.71 0 1.284-.574 1.284-1.284 0-.71-.574-1.29-1.284-1.29z"/>
    <path fill="#FFCF2D" d="M20.225 1.041h-.387v4.06h.387V1.04zM45.774 28.61c-.923 0-1.672-.748-1.672-1.671s.75-1.671 1.672-1.671v.387c-.71 0-1.284.574-1.284 1.284 0 .71.574 1.284 1.284 1.284v.387z"/>
    <path fill="#A0505A" d="M143.512 109.988v35.919h-8.299l-5.286-14.758-7.57-21.161h21.155z"/>
    <path fill="#73325A" d="M122.357 109.988h21.155v11.532l-18.638-4.504-2.517-7.028z"/>
    <path fill="#fff" fill-rule="evenodd" d="M130.02 130.979l.001.001.008.004.034.017c.031.016.079.039.144.067.13.058.328.139.595.229.535.181 1.349.399 2.452.545 2.207.292 5.578.294 10.209-.881l.241-.061v15.201h-8.629l-5.504-15.37.449.248zm.242.532l5.086 14.203h7.969v-14.317c-4.552 1.126-7.894 1.123-10.114.829-1.129-.149-1.967-.373-2.525-.562-.162-.055-.301-.107-.416-.153z" clip-rule="evenodd"/>
    <path fill="#fff" fill-rule="evenodd" d="M134.243 132.923c-.413 0-.748.335-.748.749 0 .413.335.748.748.748.414 0 .749-.335.749-.748 0-.414-.335-.749-.749-.749zm-1.136.749c0-.627.509-1.136 1.136-1.136.627 0 1.136.508 1.136 1.136 0 .627-.509 1.136-1.136 1.136-.627 0-1.136-.509-1.136-1.136zM138.735 135.963c-.413 0-.748.335-.748.748 0 .414.335.749.748.749.414 0 .749-.335.749-.749 0-.413-.335-.748-.749-.748zm-1.135.748c0-.627.508-1.135 1.135-1.135.628 0 1.136.508 1.136 1.135 0 .628-.508 1.136-1.136 1.136-.627 0-1.135-.508-1.135-1.136zM142.078 132.588c-.413 0-.748.335-.748.748 0 .414.335.749.748.749.414 0 .749-.335.749-.749 0-.413-.335-.748-.749-.748zm-1.136.748c0-.627.509-1.136 1.136-1.136.627 0 1.136.509 1.136 1.136 0 .627-.509 1.136-1.136 1.136-.627 0-1.136-.509-1.136-1.136zM140.755 139.499c-.413 0-.749.335-.749.749 0 .413.336.748.749.748s.749-.335.749-.748c0-.414-.336-.749-.749-.749zm-1.136.749c0-.627.509-1.136 1.136-1.136.627 0 1.136.509 1.136 1.136 0 .627-.509 1.136-1.136 1.136-.627 0-1.136-.509-1.136-1.136zM135.187 137.783c-.414 0-.749.335-.749.748 0 .414.335.749.749.749.413 0 .748-.335.748-.749 0-.413-.335-.748-.748-.748zm-1.136.748c0-.627.508-1.136 1.136-1.136.627 0 1.135.509 1.135 1.136 0 .627-.508 1.136-1.135 1.136-.628 0-1.136-.509-1.136-1.136zM136.722 142.945c-.414 0-.749.335-.749.749 0 .413.335.749.749.749.413 0 .748-.336.748-.749 0-.414-.335-.749-.748-.749zm-1.136.749c0-.627.508-1.136 1.136-1.136.627 0 1.136.509 1.136 1.136 0 .627-.509 1.136-1.136 1.136-.628 0-1.136-.509-1.136-1.136z" clip-rule="evenodd"/>
    <path fill="#66B0F0" d="M147.434 152.606l-5.692 11.816c-.807 1.904-2.672 3.143-4.744 3.143h-7.26c-1.858 0-2.988-1.884-2.278-3.601l7.299-17.605c.407-1.071 1.123-1.962 2.02-2.588.904-.626 1.988-.981 3.13-.981 1.587 0 3.162 1.078 4.208 2.272l2.529 2.73c1.168 1.329 1.472 3.194.788 4.814z"/>
    <path fill="#fff" d="M147.434 152.606l-5.692 11.816c-.807 1.904-2.672 3.143-4.743 3.143h-7.718c-.717 0-1.123-.445-1.362-1.058h1.717c2.071 0 3.936-1.239 4.743-3.143l6.563-13.688c.613-1.278 1.91-2.097 3.33-2.097 1.852 0 3.259 1.355 3.517 3.072.026.658-.09 1.323-.355 1.955z"/>
    <path fill="#66B0F0" fill-rule="evenodd" d="M144.271 147.772c-1.345 0-2.574.777-3.155 1.988l-6.561 13.684c-.838 1.972-2.772 3.256-4.92 3.256h-1.415c.091.169.198.31.325.418.185.157.421.253.735.253h7.718c1.994 0 3.789-1.192 4.565-3.024l.002-.005.002-.004 5.69-11.811c.25-.602.361-1.233.338-1.858-.249-1.624-1.579-2.897-3.324-2.897zm-3.504 1.82c.645-1.344 2.01-2.207 3.504-2.207 1.955 0 3.437 1.433 3.709 3.237l.002.021c.027.686-.095 1.379-.37 2.038l-.004.009-5.69 11.812c-.838 1.973-2.772 3.257-4.92 3.257h-7.718c-.402 0-.728-.127-.985-.346-.254-.215-.431-.511-.557-.836-.023-.06-.016-.127.02-.18.036-.052.096-.084.16-.084h1.717c1.993 0 3.788-1.192 4.565-3.025l.004-.008 6.563-13.687v-.001z" clip-rule="evenodd"/>
    <path fill="#fff" d="M146.124 147.224c-.684-.374-1.51-.645-2.233-.645-1.387 0-2.672.806-3.272 2.058l-6.795 14.172c-.865 2.046-2.866 3.369-5.092 3.369h-1.252c-.064-.123-.11-.252-.155-.388h1.407c2.072 0 3.93-1.232 4.737-3.136l.006-.006 6.802-14.179c.665-1.387 2.085-2.278 3.621-2.278.49 0 1.077.162 1.581.336l.645.697z"/>
    <path fill="#A0505A" d="M122.357 109.988l-1.62 21.161-.722 9.48s-4.718 5.253-10.087 2.013l-2.485-11.487-5.685-26.285c-1.536-7.105 3.317-14.017 10.525-14.978l10.074 20.096z"/>
    <path fill="#fff" fill-rule="evenodd" d="M107.187 130.876l.312.094c3.087.925 6.383.925 8.914.691 1.264-.117 2.334-.293 3.088-.438.377-.073.674-.139.877-.186l.232-.056.059-.015.01-.002.004-.001.004-.001.001-.001.263-.07-.748 10.076-.044.049-.144-.129.144.129-.002.002-.003.003-.011.012-.042.045c-.038.039-.092.096-.164.166-.142.14-.351.337-.619.561-.534.449-1.305 1.014-2.248 1.477-1.889.927-4.484 1.448-7.242-.216l-.072-.044-2.569-12.146zm12.64 9.929l.698-9.405-.059.014c-.207.048-.509.115-.891.189-.764.148-1.847.325-3.127.443-2.471.229-5.687.24-8.748-.615l2.4 11.346c2.584 1.524 5.004 1.039 6.8.157.907-.445 1.651-.99 2.169-1.425.259-.218.46-.407.597-.541.068-.067.12-.12.154-.157l.007-.006z" clip-rule="evenodd"/>
    <path fill="#fff" fill-rule="evenodd" d="M113.322 135.311c-.413 0-.748.335-.748.749 0 .413.335.748.748.748.414 0 .749-.335.749-.748 0-.414-.335-.749-.749-.749zm-1.135.749c0-.628.508-1.136 1.135-1.136.628 0 1.136.508 1.136 1.136 0 .627-.508 1.135-1.136 1.135-.627 0-1.135-.508-1.135-1.135zM119.311 133.865c-.414 0-.749.336-.749.749s.335.749.749.749c.413 0 .748-.336.748-.749s-.335-.749-.748-.749zm-1.136.749c0-.627.508-1.136 1.136-1.136.627 0 1.135.509 1.135 1.136 0 .627-.508 1.136-1.135 1.136-.628 0-1.136-.509-1.136-1.136zM109.708 132.588c-.413 0-.749.335-.749.748 0 .414.336.749.749.749.414 0 .749-.335.749-.749 0-.413-.335-.748-.749-.748zm-1.136.748c0-.627.509-1.136 1.136-1.136.627 0 1.136.509 1.136 1.136 0 .628-.509 1.136-1.136 1.136-.627 0-1.136-.508-1.136-1.136zM112.381 140.441c-.414 0-.749.336-.749.749s.335.749.749.749c.413 0 .749-.336.749-.749s-.336-.749-.749-.749zm-1.136.749c0-.627.509-1.136 1.136-1.136.627 0 1.136.509 1.136 1.136 0 .627-.509 1.136-1.136 1.136-.627 0-1.136-.509-1.136-1.136zM116.775 138.557c-.413 0-.748.335-.748.749 0 .413.335.748.748.748.414 0 .749-.335.749-.748 0-.414-.335-.749-.749-.749zm-1.135.749c0-.628.508-1.136 1.135-1.136.628 0 1.136.508 1.136 1.136 0 .627-.508 1.135-1.136 1.135-.627 0-1.135-.508-1.135-1.135z" clip-rule="evenodd"/>
    <path fill="#66B0F0" d="M126.234 142.887l-6.221 24.878h-1.962c-.09 0-.174-.006-.264-.013-1.485-.135-2.737-1.387-3.053-2.865l-4.814-22.258c5.369 3.246 10.093-2.007 10.093-2.007l6.221 2.265z"/>
    <path fill="#fff" d="M126.552 155.652c1.31-6.918 1.671-12.203-.588-12.629-2.258-.426-6.279 4.162-7.589 11.08-1.31 6.918-.626 13.036 1.633 13.462 2.258.432 5.233-4.988 6.544-11.913z"/>
    <path fill="#66B0F0" fill-rule="evenodd" d="M123.901 143.441c.735-.492 1.462-.728 2.098-.608.653.123 1.095.598 1.373 1.299.277.696.403 1.64.417 2.768.028 2.26-.393 5.327-1.048 8.788-.658 3.477-1.735 6.584-2.937 8.773-.6 1.093-1.237 1.967-1.876 2.543-.636.572-1.306.876-1.957.751-.653-.123-1.158-.651-1.53-1.415-.375-.769-.635-1.814-.781-3.049-.292-2.471-.134-5.751.524-9.224.66-3.485 2.004-6.389 3.474-8.373.734-.992 1.505-1.759 2.243-2.253zm-1.932 2.483c-1.433 1.934-2.754 4.783-3.404 8.215-.653 3.445-.807 6.684-.52 9.107.143 1.213.396 2.21.744 2.924.35.718.777 1.115 1.254 1.205.478.091 1.028-.121 1.626-.659.594-.536 1.206-1.368 1.796-2.442 1.178-2.145 2.243-5.211 2.896-8.658.654-3.457 1.069-6.492 1.041-8.711-.014-1.111-.139-2-.39-2.631-.248-.626-.607-.971-1.084-1.061-.494-.093-1.116.084-1.811.549-.692.463-1.432 1.195-2.148 2.162z" clip-rule="evenodd"/>
    <path fill="#fff" d="M117.47 153.994c-.678 3.588-.878 7.053-.555 9.764.232 1.948.723 3.336 1.394 4.007h-.258c-.091 0-.174-.006-.265-.013-.606-.8-1.039-2.142-1.258-3.949-.329-2.743-.129-6.254.561-9.88.652-3.434 1.968-6.654 3.717-9.074 1.046-1.445 2.143-2.459 3.143-2.917l.581.194c-2.304.684-5.802 5.227-7.06 11.868z"/>
    <path fill="#FE5244" d="M112.282 89.885l29.441-3.033 29.427 8.254-.252 3.911c-.4 6.17-5.717 10.971-11.9 10.971h-36.636l-10.08-20.103z"/>
    <path fill="#fff" fill-rule="evenodd" d="M169.472 94.629c.107 0 .193.087.193.193 0 2.86-1.423 6.018-3.616 8.458-2.194 2.44-5.186 4.191-8.348 4.191h-36.636c-.107 0-.194-.087-.194-.194 0-.106.087-.193.194-.193h36.636c3.019 0 5.914-1.676 8.06-4.063 2.146-2.387 3.517-5.457 3.517-8.199 0-.106.087-.193.194-.193z" clip-rule="evenodd"/>
    <path fill="#fff" fill-rule="evenodd" d="M166.015 93.516c.105.019.175.12.156.225-.467 2.545-1.941 5.166-3.973 7.151-2.031 1.985-4.639 3.352-7.382 3.352H119.58c-.107 0-.193-.086-.193-.193 0-.107.086-.194.193-.194h35.236c2.613 0 5.129-1.305 7.112-3.242 1.982-1.936 3.412-4.488 3.862-6.944.019-.105.12-.175.225-.156z" clip-rule="evenodd"/>
    <path fill="#fff" fill-rule="evenodd" d="M162.078 92.337c.101.036.152.147.116.248-.787 2.155-2.244 4.244-4.082 5.794-1.837 1.55-4.068 2.574-6.4 2.574h-34.003c-.107 0-.193-.087-.193-.193 0-.107.086-.194.193-.194h34.003c2.218 0 4.363-.974 6.15-2.483 1.788-1.508 3.205-3.54 3.968-5.63.037-.101.148-.153.248-.116z" clip-rule="evenodd"/>
    <path fill="#fff" fill-rule="evenodd" d="M159.066 91.524c.089.059.114.18.055.268-2.054 3.125-5.444 5.612-9.087 5.612h-34.003c-.106 0-.193-.087-.193-.194 0-.107.087-.194.193-.194h34.003c3.469 0 6.753-2.378 8.764-5.436.059-.09.179-.114.268-.056z" clip-rule="evenodd"/>
    <path fill="#fff" fill-rule="evenodd" d="M155.689 90.594c.075.075.076.198.001.273-1.983 1.996-4.56 3.31-7.269 3.31h-34.003c-.107 0-.193-.087-.193-.194 0-.107.086-.193.193-.193h34.003c2.583 0 5.066-1.255 6.994-3.196.075-.075.198-.076.274 0zM151.287 89.351c.053.094.02.212-.073.264-1.404.794-2.947 1.27-4.535 1.27h-34.003c-.107 0-.194-.086-.194-.193 0-.107.087-.193.194-.193h34.003c1.51 0 2.987-.453 4.345-1.22.093-.053.211-.02.263.072z" clip-rule="evenodd"/>
    <path fill="#fff" fill-rule="evenodd" d="M112.13 89.712c.096-.047.212-.009.26.087l10.074 20.102c.048.096.009.212-.086.26-.096.048-.212.009-.26-.086l-10.074-20.103c-.048-.095-.009-.212.086-.26z" clip-rule="evenodd"/>
    <path fill="#fff" d="M172.764 68.17c-2.775.787-5.505.555-5.795-.29-.271-.807.955-2.188 3.439-3.105.123-.045.252-.09.381-.135.749-.252 1.497-.413 2.201-.497 2.084-.265 3.781.11 3.994.742.291.845-1.284 2.452-4.22 3.285z"/>
    <path fill="#3FB1B5" fill-rule="evenodd" d="M175.652 64.368c-.687-.135-1.611-.163-2.638-.033h-.001c-.691.082-1.426.24-2.161.488-.129.045-.256.09-.376.134-1.225.452-2.127 1.014-2.686 1.551-.28.269-.468.526-.571.754-.102.228-.114.413-.067.555.044.127.198.271.523.394.316.12.75.2 1.272.233 1.041.063 2.396-.072 3.764-.46 1.447-.41 2.549-1.01 3.248-1.6.351-.295.594-.583.731-.838.139-.258.16-.458.111-.598v-.001c-.03-.091-.126-.202-.329-.312-.199-.107-.476-.2-.82-.267zm1.516.455c-.076-.225-.272-.398-.512-.528-.245-.133-.562-.235-.93-.308-.735-.144-1.702-.17-2.76-.036-.716.085-1.477.25-2.238.505l-.003.001c-.129.045-.259.09-.383.137-1.261.464-2.213 1.051-2.821 1.635-.303.292-.526.588-.655.874-.129.287-.169.576-.081.838l.001.001c.101.296.397.497.752.631.365.138.841.224 1.385.257 1.089.067 2.488-.075 3.894-.474 1.489-.422 2.643-1.043 3.392-1.676.374-.316.654-.64.822-.95.166-.308.234-.625.137-.907z" clip-rule="evenodd"/>
    <path fill="#A0505A" d="M171.009 86.988h-1.065l-2.794-18.863v-.013l-.071-.471c.136-.859 1.478-2.072 3.846-2.86 1.181-.393 2.356-.567 3.356-.587l1.02 2.795.097.264 3.226 8.848c1.936 5.285-1.981 10.887-7.615 10.887z"/>
    <path fill="#73325A" d="M175.365 67.189c-.677.426-1.555.82-2.6 1.116-2.401.678-4.834.4-5.615-.18v-.013l-.071-.471c.136-.859 1.478-2.072 3.846-2.86 1.181-.393 2.356-.567 3.356-.587l1.084 2.995z"/>
    <path fill="#A0505A" d="M136.444 71.468l-3.388 8.428c-1.671 4.162-5.711 6.892-10.203 6.892H77.312v-4.17c0-1.006.619-1.91 1.561-2.264l4.679-1.775c.426-.161.871-.245 1.323-.245h5.311l30.06-3.033 5.189-11.88 11.009 8.047z"/>
    <path fill="#73325A" fill-rule="evenodd" d="M82.397 81.073c.038.1-.012.211-.112.25l-3.53 1.335c-.635.243-1.056.849-1.056 1.53 0 .106-.087.193-.194.193-.107 0-.194-.087-.194-.194 0-.842.522-1.591 1.306-1.89v-.001l3.53-1.336c.1-.038.212.013.25.113zM82.397 83.202c.038.1-.012.212-.112.25l-3.53 1.335c-.635.243-1.056.85-1.056 1.53 0 .107-.087.193-.194.193-.107 0-.194-.086-.194-.193 0-.843.522-1.592 1.306-1.891l3.53-1.336c.1-.038.212.012.25.112zM82.399 85.257c.036.1-.016.212-.117.248l-3.53 1.271c-.1.037-.211-.016-.247-.116-.037-.1.016-.212.116-.248l3.53-1.271c.1-.037.212.016.248.116z" clip-rule="evenodd"/>
    <path fill="#FE5244" d="M81.849 79.295s3.304-8.434 4.362-8.292c1.058.142-2.93 7.75-2.93 7.75l-1.432.542z"/>
    <path fill="#73325A" d="M125.434 63.426l-.761 1.736 9.751 11.326 2.02-5.02-11.01-8.042z"/>
    <path fill="#06347F" d="M167.15 68.131l4.001 26.975-29.421-8.254-5.286-15.391-13.642-9.97 4.788-5.705c4.272-5.092 10.577-8.035 17.224-8.035h9.455c8.221 0 15.791 4.492 19.734 11.707l3.065 5.304s-.922-1.355-5.898.007c-4.382 1.207-4.02 3.362-4.02 3.362z"/>
    <path fill="#fff" fill-rule="evenodd" d="M138.02 64.516c.104.024.169.128.145.232l-1.53 6.634c-.024.104-.128.17-.232.145-.104-.024-.169-.128-.145-.232l1.529-6.634c.024-.104.128-.17.233-.145zM165.403 57.685c.106-.017.205.055.222.16l4.976 30.932c.017.106-.055.205-.161.222-.105.017-.205-.055-.222-.16l-4.975-30.932c-.017-.105.055-.205.16-.222zM141.539 86.677c.029-.103.136-.163.239-.133l29.363 8.376c.103.03.162.137.133.24-.029.102-.136.162-.239.132l-29.363-8.376c-.103-.03-.163-.136-.133-.24z" clip-rule="evenodd"/>
    <path fill="#A0505A" d="M143.312 43.44v4.337l7.653-.065V40.06l-7.653 3.381z"/>
    <path fill="#A0505A" d="M151.585 38.723v.116c0 1.162-.878 2.104-2.039 2.104h-.452c-.29 1.149-2.872 2.49-4.704 2.49h-2.136c-2.337 0-4.124-2.096-3.743-4.407l.103-.626-.633-.355c-.361-.206-.464-.677-.213-1.013l1.369-1.807.296-1.781c.239-1.465 1.201-2.659 2.478-3.246.504 5.672 5.512 6.344 6.835 6.421h.735c1.162 0 2.104.942 2.104 2.104z"/>
    <path fill="#73325A" fill-rule="evenodd" d="M149.855 37.813c-.809 0-1.465.655-1.465 1.465 0 .107-.087.194-.193.194-.107 0-.194-.087-.194-.194 0-1.023.829-1.852 1.852-1.852.107 0 .194.086.194.193 0 .107-.087.194-.194.194z" clip-rule="evenodd"/>
    <path fill="#73325A" d="M141.201 36.677c.182 0 .329-.34.329-.761 0-.42-.147-.762-.329-.762-.182 0-.329.341-.329.762 0 .42.147.761.329.761z"/>
    <path fill="#73325A" fill-rule="evenodd" d="M140.698 33.56l-.02-.193c-.106.011-.184.106-.173.212.01.106.104.184.21.174h.023c.02 0 .052 0 .094.005.084.01.21.035.365.098.308.124.741.4 1.189 1.018.063.087.184.106.271.043.086-.063.106-.184.043-.27-.488-.673-.977-.997-1.358-1.15-.19-.077-.35-.11-.465-.123-.058-.007-.105-.009-.138-.009l-.041.001h-.012l-.005.001h-.002l.019.193z" clip-rule="evenodd"/>
    <path fill="#73325A" d="M148.746 36.62h.735c1.162 0 2.104.941 2.104 2.103v.116c0 1.162-.877 2.104-2.039 2.104l-.497.348c-2.091 1.343-4.982 6.622-4.272 10.358.8 4.201 4.459 5.137 7.841 4.492 3.381-.646 5.847-2.614 5.046-6.822-.09-.497-.238-.993-.426-1.484l.168.058c4.066 1.11 8.841 1.24 10.158-1.936 1.316-3.175 1.019-6.318-2.936-7.957-2.298-.955-5.421-.949-7.841-.29 1.219-4.24-.949-8.958-4.931-9.429-6.253-.742-9.841 1.84-9.938 1.91-.006.75.503 6.06 6.828 6.428z"/>
    <path fill="#fff" fill-rule="evenodd" d="M157.006 37.376c.102.032.159.14.128.242-.498 1.62-1.504 3.352-3.128 4.582.077.059.17.133.278.222.3.25.708.622 1.137 1.112.859.978 1.813 2.433 2.176 4.33.02.104-.048.206-.153.226-.106.02-.207-.049-.227-.154-.347-1.808-1.258-3.202-2.087-4.147-.414-.472-.806-.83-1.094-1.07-.144-.12-.261-.21-.343-.269l-.092-.067-.024-.016-.005-.003-.002-.001.107-.162m3.329-4.825c-.102-.031-.211.026-.242.128l.242-.128zm-.242.128c-.5 1.627-1.531 3.362-3.199 4.54l3.199-4.54zm-3.199 4.54c-.052.036-.083.096-.082.16l.082-.16zm-.082.16c.001.064.034.123.087.159l-.087-.159z" clip-rule="evenodd"/>
    <path fill="#FE5244" fill-rule="evenodd" d="M158.613 34.283c-.79 0-1.426.636-1.426 1.426v1.517h1.517c.79 0 1.431-.643 1.426-1.425v-.092c0-.79-.636-1.426-1.426-1.426h-.091zm-1.813 1.426c0-1.004.809-1.813 1.813-1.813h.091c1.004 0 1.813.81 1.813 1.813v.09c.007.999-.811 1.814-1.813 1.814h-1.711c-.107 0-.193-.087-.193-.194v-1.71z" clip-rule="evenodd"/>
    <path fill="#FE5244" fill-rule="evenodd" d="M161.132 37.02c-.491-.781-1.526-1.013-2.308-.521l-1.578.994.994 1.578c.49.78 1.519 1.013 2.314.52l.16-.102h.001c.78-.492 1.012-1.527.521-2.308l-.103-.16-.001-.002zm.328-.208c-.607-.962-1.881-1.246-2.842-.64l-1.742 1.096c-.091.057-.118.177-.061.267l1.097 1.743c.606.963 1.874 1.245 2.847.642l.003-.002.16-.102c.962-.607 1.246-1.881.641-2.842l-.001-.001-.102-.16zM149.198 40.924c.052.002.102.025.137.065l1.194 1.349.001.001c.658.759.571 1.908-.188 2.558l-.003.003-.069.057c-.759.655-1.906.568-2.557-.19l-.002-.004-.056-.068c-.656-.752-.568-1.897.185-2.553l1.216-1.165c.038-.036.089-.055.142-.053zm-.02.472l-1.074 1.029-.007.007c-.598.518-.664 1.421-.149 2.01l.004.005.057.07c.511.594 1.413.662 2.009.145l.003-.002.001-.001.07-.057c.594-.511.662-1.413.146-2.009l-1.06-1.197z" clip-rule="evenodd"/>
    <path fill="#FE5244" fill-rule="evenodd" d="M153.295 41.943c-.249-.89-1.168-1.41-2.058-1.162h-.001l-1.794.497.496 1.794c.249.885 1.17 1.412 2.06 1.169l.186-.051h.001c.891-.25 1.411-1.169 1.162-2.06l-.051-.186h-.001zm-2.162-1.535c1.097-.306 2.229.335 2.535 1.431l.001.001.051.187c.306 1.097-.335 2.23-1.431 2.535h-.001l-.187.052h-.001c-1.097.3-2.228-.348-2.534-1.438h-.001l-.548-1.981c-.014-.05-.007-.103.018-.148.025-.044.067-.077.117-.09l1.98-.55h.001z" clip-rule="evenodd"/>
    <path fill="#FFCF2D" fill-rule="evenodd" d="M132.18 114.761c.105.023.171.125.149.23l-11.242 52.615c-.022.104-.125.171-.23.148-.104-.022-.171-.125-.149-.229l11.242-52.615c.023-.105.125-.171.23-.149zM160.869 114.761c.105-.022.207.044.23.149l11.242 52.615c.022.104-.045.207-.149.229-.105.023-.208-.044-.23-.148l-11.242-52.615c-.022-.105.044-.207.149-.23z" clip-rule="evenodd"/>
    <path fill="#FFCF2D" fill-rule="evenodd" d="M123.194 155.884c0-.107.087-.193.194-.193h46.116c.107 0 .194.086.194.193 0 .107-.087.194-.194.194h-46.116c-.107 0-.194-.087-.194-.194z" clip-rule="evenodd"/>
    <path fill="#fff" d="M169.756 114.95h-46.47c-.588 0-1.065-.477-1.065-1.064v-2.833c0-.588.477-1.065 1.065-1.065h46.47c.588 0 1.065.477 1.065 1.065v2.833c0 .587-.477 1.064-1.065 1.064z"/>
    <path fill="#66B0F0" fill-rule="evenodd" d="M123.286 110.181c-.481 0-.871.391-.871.872v2.833c0 .48.39.871.871.871h46.471c.48 0 .871-.391.871-.871v-2.833c0-.481-.391-.872-.871-.872h-46.471zm-1.259.872c0-.695.565-1.259 1.259-1.259h46.471c.694 0 1.258.564 1.258 1.259v2.833c0 .694-.564 1.258-1.258 1.258h-46.471c-.694 0-1.259-.564-1.259-1.258v-2.833z" clip-rule="evenodd"/>
</svg>
