<svg xmlns="http://www.w3.org/2000/svg" width="602" height="410" fill="none" viewBox="0 0 602 410">
    <path fill="#D0F0E4" d="M491.379 409.904H74.955l74.752-44.095h268.065l73.607 44.095z"/>
    <path fill="#FFCF2D" d="M343.057 140.139h-24.486c-1.418 0-2.563-1.144-2.563-2.561v-24.471c0-1.417 1.145-2.561 2.563-2.561h24.486c1.418 0 2.563 1.144 2.563 2.561v24.471c0 1.417-1.152 2.561-2.563 2.561z"/>
    <path fill="#fff" d="M341.269 138.498h-24.968c-1.417 0-2.563-1.145-2.563-2.562v-24.952c0-1.417 1.146-2.561 2.563-2.561h24.968c1.418 0 2.563 1.144 2.563 2.561v24.952c0 1.417-1.145 2.562-2.563 2.562z"/>
    <path fill="#FFCF2D" fill-rule="evenodd" d="M316.301 108.632c-1.302 0-2.353 1.051-2.353 2.352v24.952c0 1.301 1.051 2.352 2.353 2.352h24.968c1.302 0 2.353-1.051 2.353-2.352v-24.952c0-1.301-1.051-2.352-2.353-2.352h-24.968zm-2.772 2.352c0-1.532 1.239-2.771 2.772-2.771h24.968c1.533 0 2.773 1.239 2.773 2.771v24.952c0 1.533-1.24 2.771-2.773 2.771h-24.968c-1.533 0-2.772-1.238-2.772-2.771v-24.952z" clip-rule="evenodd"/>
    <path fill="#FFCF2D" fill-rule="evenodd" d="M328.789 112.151c-6.249 0-11.314 5.062-11.314 11.307 0 6.244 5.065 11.307 11.314 11.307 6.248 0 11.314-5.063 11.314-11.307 0-6.245-5.066-11.307-11.314-11.307zm-11.733 11.307c0-6.476 5.253-11.726 11.733-11.726s11.733 5.25 11.733 11.726c0 6.476-5.253 11.725-11.733 11.725s-11.733-5.249-11.733-11.725z" clip-rule="evenodd"/>
    <path fill="#FFCF2D" fill-rule="evenodd" d="M322.141 118.388c.07-.092.202-.11.294-.039l5.946 4.533-1.384-4.239c-.036-.11.024-.228.134-.264.11-.036.229.024.264.134l1.801 5.518-7.016-5.349c-.092-.071-.109-.202-.039-.294z" clip-rule="evenodd"/>
    <path fill="#fff" d="M211.607 157.156v17.563c0 3.44-2.796 6.234-6.238 6.234h-19.486c3.442 0 6.238-2.786 6.238-6.234v-17.563h19.486z"/>
    <path fill="#FFCF2D" fill-rule="evenodd" d="M191.908 156.944h19.911v17.775c0 3.557-2.891 6.446-6.45 6.446h-19.486v-.424c3.325 0 6.025-2.691 6.025-6.022v-17.775zm-3.717 23.797h17.178c3.325 0 6.026-2.699 6.026-6.022v-17.351h-19.062v17.351c0 2.751-1.721 5.095-4.142 6.022z" clip-rule="evenodd"/>
    <path fill="#FE5244" d="M202.607 155.456h-1.572v3.746h1.572v-3.746z"/>
    <path fill="#FFCF2D" d="M205.939 163.831c-.221 0-.442-.085-.621-.246l-.654-.578c-.204-.179-.476-.179-.68 0l-.62.552c-.366.323-.876.323-1.249 0l-.57-.501c-.204-.179-.476-.179-.68 0l-.527.467c-.365.323-.875.323-1.249 0l-.433-.382c-.204-.179-.476-.179-.68 0l-.467.416c-.366.323-.876.323-1.25 0l-.433-.382c-.204-.179-.476-.179-.68 0-.085.076-.221.068-.297-.017-.077-.085-.068-.221.017-.298.365-.322.875-.322 1.249 0l.433.383c.204.178.476.178.68 0l.467-.417c.366-.322.876-.322 1.25 0l.433.383c.204.178.476.178.68 0l.527-.468c.365-.322.875-.322 1.249 0l.569.502c.204.178.476.178.68 0l.621-.553c.365-.322.875-.322 1.249 0l.654.578c.204.179.476.179.68 0l.68-.603c.365-.323.875-.323 1.249 0 .085.076.094.212.017.297-.076.085-.212.094-.297.017-.204-.178-.476-.178-.68 0l-.68.604c-.204.161-.416.246-.637.246zM205.939 167.323c-.221 0-.442-.085-.621-.247l-.654-.578c-.204-.178-.476-.178-.68 0l-.62.553c-.366.323-.876.323-1.249 0l-.57-.502c-.204-.178-.476-.178-.68 0l-.527.468c-.365.323-.875.323-1.249 0l-.433-.383c-.204-.178-.476-.178-.68 0l-.467.417c-.366.323-.876.323-1.25 0l-.433-.383c-.204-.178-.476-.178-.68 0-.085.077-.221.068-.297-.017-.077-.085-.068-.221.017-.297.365-.323.875-.323 1.249 0l.433.382c.204.179.476.179.68 0l.467-.416c.366-.323.876-.323 1.25 0l.433.382c.204.179.476.179.68 0l.527-.467c.365-.323.875-.323 1.249 0l.569.501c.204.179.476.179.68 0l.621-.552c.365-.323.875-.323 1.249 0l.654.578c.204.178.476.178.68 0l.68-.603c.365-.323.875-.323 1.249 0 .085.076.094.212.017.297-.076.085-.212.093-.297.017-.204-.179-.476-.179-.68 0l-.68.603c-.204.17-.416.247-.637.247zM205.939 170.812c-.221 0-.442-.085-.621-.246l-.654-.578c-.204-.178-.476-.178-.68 0l-.62.552c-.366.323-.876.323-1.249 0l-.57-.501c-.204-.178-.476-.178-.68 0l-.527.467c-.365.323-.875.323-1.249 0l-.433-.382c-.204-.178-.476-.178-.68 0l-.467.416c-.366.323-.876.323-1.25 0l-.433-.382c-.204-.178-.476-.178-.68 0-.085.076-.221.068-.297-.017-.077-.085-.068-.221.017-.297.365-.323.875-.323 1.249 0l.433.382c.204.178.476.178.68 0l.467-.416c.366-.323.876-.323 1.25 0l.433.382c.204.178.476.178.68 0l.527-.467c.365-.323.875-.323 1.249 0l.569.501c.204.178.476.178.68 0l.621-.552c.365-.323.875-.323 1.249 0l.654.577c.204.179.476.179.68 0l.68-.603c.365-.323.875-.323 1.249 0 .085.077.094.213.017.298-.076.085-.212.093-.297.017-.204-.179-.476-.179-.68 0l-.68.603c-.204.17-.416.246-.637.246zM205.939 174.311c-.221 0-.442-.085-.621-.246l-.654-.578c-.204-.178-.476-.178-.68 0l-.62.553c-.366.322-.876.322-1.249 0l-.57-.502c-.204-.178-.476-.178-.68 0l-.527.468c-.365.322-.875.322-1.249 0l-.433-.383c-.204-.178-.476-.178-.68 0l-.467.417c-.366.322-.876.322-1.25 0l-.433-.383c-.204-.178-.476-.178-.68 0-.085.077-.221.068-.297-.017-.077-.085-.068-.221.017-.297.365-.323.875-.323 1.249 0l.433.382c.204.179.476.179.68 0l.467-.416c.366-.323.876-.323 1.25 0l.433.382c.204.179.476.179.68 0l.527-.467c.365-.323.875-.323 1.249 0l.569.501c.204.179.476.179.68 0l.621-.552c.365-.323.875-.323 1.249 0l.654.578c.204.178.476.178.68 0l.68-.604c.365-.323.875-.323 1.249 0 .085.077.094.213.017.298-.076.085-.212.093-.297.017-.204-.179-.476-.179-.68 0l-.68.603c-.204.161-.416.246-.637.246z"/>
    <path fill="#66B0F0" d="M231.671 157.156H218.04v13.623h13.631v-13.623z"/>
    <path fill="#FFCF2D" d="M221.036 156.573l-.988-1.223-3.602 2.912.988 1.222 3.602-2.911zM232.378 159.482l.989-1.223-3.603-2.911-.989 1.223 3.603 2.911z"/>
    <path fill="#fff" d="M228.79 160.382h-8.269v.51h8.269v-.51zM228.79 162.582h-8.269v.51h8.269v-.51zM228.79 164.79h-8.269v.51h8.269v-.51zM228.79 166.99h-8.269v.51h8.269v-.51zM313.71 194.335h-74.919v-43.274c0-2.93 2.378-5.305 5.311-5.305h64.297c2.933 0 5.311 2.375 5.311 5.305v43.274z"/>
    <path fill="#66B0F0" fill-rule="evenodd" d="M244.102 146.088c-2.749 0-4.977 2.227-4.977 4.973v42.94h74.252v-42.94c0-2.746-2.229-4.973-4.978-4.973h-64.297zm69.608 48.246h.333v-43.273c0-3.114-2.527-5.638-5.644-5.638h-64.297c-3.117 0-5.644 2.524-5.644 5.638v43.606h75.252v-.333z" clip-rule="evenodd"/>
    <path fill="#66B0F0" d="M308.055 191.516h-63.297c-1.667 0-3.022-1.354-3.022-3.019v-37.092c0-1.664 1.355-3.018 3.022-3.018h63.297c1.666 0 3.022 1.354 3.022 3.018v37.103c0 1.665-1.356 3.008-3.022 3.008zM326.843 204.49c2.866 1.864 2.2 5.516-1.189 5.516H223.592c-2.855 0-3.833-3.851-1.033-5.616l104.284.1z"/>
    <path fill="#66B0F0" fill-rule="evenodd" d="M222.463 204.057l104.479.1.083.054c1.526.992 2.16 2.498 1.896 3.802-.268 1.323-1.438 2.326-3.267 2.326H223.592c-1.603 0-2.683-1.092-2.963-2.41-.281-1.32.234-2.864 1.752-3.821l.082-.051zm.194.666c-1.219.809-1.594 2.042-1.376 3.067.222 1.048 1.059 1.883 2.311 1.883h102.062c1.559 0 2.417-.824 2.613-1.792.196-.968-.247-2.189-1.525-3.059l-104.085-.099z" clip-rule="evenodd"/>
    <path fill="#fff" d="M325.654 207.464H223.592c-1.822 0-2.544-2.142-1.033-3.074l16.255-10.056h74.685l13.333 10.156c1.333 1.01.555 2.974-1.178 2.974z"/>
    <path fill="#66B0F0" fill-rule="evenodd" d="M238.719 194.001h74.892l13.422 10.223c.791.599.967 1.503.67 2.254-.296.746-1.047 1.319-2.049 1.319H223.592c-1.054 0-1.817-.627-2.082-1.414-.267-.794-.019-1.726.873-2.276l.001-.001m0 0l16.335-10.105-16.335 10.105zm16.524-9.439l-16.174 10.006c-.619.382-.764.987-.593 1.497.174.517.683.961 1.451.961h102.062c.731 0 1.235-.409 1.429-.898.191-.484.09-1.067-.453-1.478l-13.244-10.088h-74.478z" clip-rule="evenodd"/>
    <path fill="#fff" d="M313.877 204.434h-78.508c-1.4 0-1.955-1.653-.8-2.364l11.289-7.736h58.664l10.255 7.814c1.033.777.433 2.286-.9 2.286z"/>
    <path fill="#66B0F0" fill-rule="evenodd" d="M245.754 194.001h58.88l10.343 7.881h.001c.64.482.787 1.214.546 1.823-.238.603-.845 1.062-1.647 1.062h-78.508c-.843 0-1.459-.505-1.674-1.142-.216-.64-.018-1.393.692-1.834l11.367-7.79zm.207.666l-11.21 7.682-.007.005c-.439.27-.539.696-.417 1.058.124.368.486.689 1.042.689h78.508c.531 0 .89-.295 1.027-.641.134-.34.065-.751-.328-1.046l-.001-.001v-.001l-10.166-7.745h-58.448z" clip-rule="evenodd"/>
    <path fill="#66B0F0" fill-rule="evenodd" d="M309.476 204.671l-10.266-10.099.468-.475 10.266 10.1-.468.474zM302.796 204.656l-9.045-10.1.497-.444 9.044 10.1-.496.444zM296.492 204.638l-7.844-10.1.527-.408 7.844 10.1-.527.408zM289.577 204.617l-6.633-10.1.557-.365 6.633 10.099-.557.366zM281.416 204.536l-3.233-10.1.635-.203 3.233 10.1-.635.203zM240.124 204.197l10.266-10.1.468.475-10.266 10.099-.468-.474zM246.776 204.212l9.044-10.1.497.444-9.044 10.1-.497-.444zM253.05 204.23l7.844-10.1.526.409-7.844 10.099-.526-.408zM259.934 204.252l6.633-10.1.557.365-6.633 10.1-.557-.365zM268.017 204.333l3.233-10.1.635.203-3.233 10.1-.635-.203zM275.101 194.334v10.222h-.667v-10.222h.667z" clip-rule="evenodd"/>
    <path fill="#66B0F0" fill-rule="evenodd" d="M309.488 198.441h-69.13v-.666h69.13v.666z" clip-rule="evenodd"/>
    <path fill="#FFCF2D" d="M302.788 191.515H246.58l1.011-7.158c.622-4.407 3.789-8.025 8.066-9.246l13.7-2.841h10.655l13.699 2.841c4.289 1.21 7.455 4.839 8.066 9.246l1.011 7.158z"/>
    <path fill="#fff" d="M278.478 180.45l-4.055-4.095c-.089-.089-.089-.233 0-.311.089-.089.233-.089.311 0l3.722 3.763 5.778-6.538c.077-.088.222-.099.311-.022.089.078.1.222.022.311l-6.089 6.892z"/>
    <path fill="#fff" d="M270.945 180.45l-6.088-6.892c-.078-.089-.078-.233.022-.311.089-.077.233-.077.311.022l5.778 6.538 3.722-3.763c.089-.089.222-.089.311 0s.089.222 0 .311l-4.056 4.095zM274.779 183.126c-.534 0-.967-.433-.967-.967 0-.533.433-.966.967-.966.533 0 .966.433.966.966 0 .534-.433.967-.966.967zm0-1.489c-.289 0-.523.234-.523.522 0 .289.234.522.523.522.288 0 .522-.233.522-.522 0-.288-.234-.522-.522-.522zM274.779 188.564c-.534 0-.967-.433-.967-.966 0-.533.433-.966.967-.966.533 0 .966.433.966.966 0 .533-.433.966-.966.966zm0-1.488c-.289 0-.523.233-.523.522 0 .289.234.522.523.522.288 0 .522-.233.522-.522 0-.289-.234-.522-.522-.522z"/>
    <path fill="#fff" d="M269.29 191.282h-18.155l-4.844-14.361 18.155-5.194 4.844 19.555z"/>
    <path fill="#66B0F0" fill-rule="evenodd" d="M264.606 171.451l4.968 20.054h-18.598l-4.97-14.733 18.6-5.321zm-18.03 5.62l4.719 13.99h17.711l-4.721-19.057-17.709 5.067z" clip-rule="evenodd"/>
    <path fill="#fff" d="M252.08 178.785h-.345c-.878 0-1.589-.71-1.589-1.587v-4.983c0-.355.289-.644.645-.644h1.5c.355 0 .644.289.644.644v5.705c.011.477-.378.865-.855.865z"/>
    <path fill="#66B0F0" fill-rule="evenodd" d="M250.791 171.793c-.233 0-.422.189-.422.422v4.983c0 .754.611 1.365 1.366 1.365h.345c.356 0 .641-.289.633-.638v-5.71c0-.233-.19-.422-.422-.422h-1.5zm-.867.422c0-.478.388-.866.867-.866h1.5c.478 0 .866.388.866.866v5.702c.013.604-.479 1.09-1.077 1.09h-.345c-1 0-1.811-.81-1.811-1.809v-4.983z" clip-rule="evenodd"/>
    <path fill="#fff" d="M259.39 178.785h.345c.878 0 1.589-.71 1.589-1.587v-4.983c0-.355-.289-.644-.645-.644h-1.511c-.355 0-.644.289-.644.644v5.705c0 .477.389.865.866.865zM254.868 179.362h-.8c-.622 0-1.122-.499-1.122-1.121v-6.015c0-.355.289-.644.645-.644h1.5c.355 0 .644.289.644.644v6.271c0 .477-.389.865-.867.865zM257.668 179.584h-.666c-.7 0-1.267-.566-1.267-1.265v-6.104c0-.355.289-.644.644-.644h1.5c.356 0 .645.289.645.644v6.504c0 .477-.389.865-.856.865z"/>
    <path fill="#66B0F0" fill-rule="evenodd" d="M258.301 172.215c0-.478.389-.866.867-.866h1.511c.478 0 .867.388.867.866v4.983c0 .999-.811 1.809-1.811 1.809h-.345c-.6 0-1.089-.488-1.089-1.088v-5.704zm.867-.422c-.233 0-.422.189-.422.422v5.704c0 .355.289.644.644.644h.345c.755 0 1.366-.611 1.366-1.365v-4.983c0-.233-.189-.422-.422-.422h-1.511zM253.591 171.804c-.233 0-.423.189-.423.422v6.015c0 .499.401.899.9.899h.8c.355 0 .645-.289.645-.644v-6.27c0-.233-.19-.422-.422-.422h-1.5zm-.867.422c0-.478.388-.866.867-.866h1.5c.478 0 .866.388.866.866v6.27c0 .6-.488 1.088-1.089 1.088h-.8c-.745 0-1.344-.599-1.344-1.343v-6.015z" clip-rule="evenodd"/>
    <path fill="#66B0F0" fill-rule="evenodd" d="M256.379 171.793c-.232 0-.422.189-.422.422v6.104c0 .577.467 1.043 1.045 1.043h.666c.342 0 .634-.287.634-.644v-6.503c0-.233-.19-.422-.423-.422h-1.5zm-.866.422c0-.478.388-.866.866-.866h1.5c.479 0 .867.388.867.866v6.503c0 .598-.487 1.088-1.078 1.088h-.666c-.823 0-1.489-.665-1.489-1.487v-6.104z" clip-rule="evenodd"/>
    <path fill="#fff" d="M280.023 165.744v8.102c0 1.399-2.389 2.542-5.333 2.542-2.945 0-5.333-1.143-5.333-2.542v-8.102h10.666z"/>
    <path fill="#66B0F0" d="M280.023 165.744c0 6.115-3.922 7.936-7.688 7.614h-.034c-1.666-.156-2.933-1.576-2.933-3.241v-4.362h10.655v-.011z"/>
    <path fill="#fff" d="M282.5 163.658v.41c0 .91-.733 1.643-1.644 1.643h-.844l.011.188c0 2.62-2.122 4.74-4.745 4.74h-1.166c-2.622 0-4.744-2.12-4.744-4.74l.011-.188h-.845c-.911 0-1.644-.733-1.644-1.643v-.41c0-.911.733-1.643 1.644-1.643h1.078l.122-2.009c0-.311.045-.61.134-.888 3.177.788 6.899-1.254 7.899-1.864 1.111.421 1.9 1.487 1.9 2.741l.122 2.009h1.078c.9.011 1.633.743 1.633 1.654z"/>
    <path fill="#E57281" d="M280.934 162.015h-1.156l-.122-2.009c0-1.254-.789-2.32-1.9-2.741-1 .599-4.722 2.641-7.899 1.864-.089.278-.134.577-.134.888l-.122 2.009h-.722s-1.478-7.147-.022-8.457c1.077-.966 10.943 1.143 12.032 2.641.611.855.045 5.805.045 5.805z"/>
    <path fill="#66B0F0" d="M278.156 161.583c-.033 0-.078-.011-.111-.045-.011-.011-.733-.599-1.889-.599-.089 0-.166-.078-.166-.167 0-.089.077-.166.166-.166 1.278 0 2.067.644 2.1.677.067.056.078.167.022.233-.022.045-.077.067-.122.067zM273.934 165.023c-.022 0-.044 0-.055-.011-.089-.034-.134-.134-.1-.211.311-.822.233-1.854-.2-2.764-.256-.555-.623-.954-.945-1.065-.711-.244-1.711.1-1.722.1-.089.033-.178-.011-.211-.1-.033-.089.011-.178.1-.211.044-.011 1.111-.378 1.933-.1.411.144.833.599 1.133 1.243.467.988.545 2.12.212 3.03-.012.044-.078.089-.145.089zM276.123 166.788c.011.089-.067.167-.156.178h-.011c-.089 0-.155-.067-.166-.156-.011-.111-.034-.222-.067-.322-.478.233-.911.311-1.267.311-.7 0-1.122-.289-1.144-.311-.078-.055-.089-.155-.045-.233.056-.078.156-.089.234-.044.022.011.378.255.955.255.311 0 .689-.067 1.122-.278-.066-.111-.133-.177-.133-.177-.066-.067-.055-.178.011-.234.067-.055.178-.055.234.012.022.033.4.455.433.999zM276.723 163.617c.153-.009.262-.265.242-.571-.019-.306-.158-.546-.311-.537-.153.01-.262.265-.243.572.019.306.159.546.312.536z"/>
    <path fill="#66B0F0" d="M272.187 163.573c.141-.009.24-.244.223-.526-.018-.281-.146-.503-.287-.494-.141.009-.241.244-.223.526.017.282.146.503.287.494zM269.079 164.193c-.089 0-.167-.078-.167-.167 0-.489-.4-.877-.878-.877-.089 0-.166-.078-.166-.167 0-.089.077-.167.166-.167.667 0 1.211.545 1.211 1.211 0 .1-.077.167-.166.167zM280.256 164.193c-.089 0-.167-.078-.167-.167 0-.666.545-1.211 1.211-1.211.089 0 .167.078.167.167 0 .089-.078.167-.167.167-.488 0-.877.399-.877.877 0 .1-.067.167-.167.167z"/>
    <path fill="#66B0F0" fill-rule="evenodd" d="M130.387 252.732c.964-3.328 4.005-5.612 7.465-5.612h288.819c3.424 0 6.454 2.237 7.441 5.508m-303.084.289l-45.41 157.079-.64-.185 45.409-157.079m.641.185c.881-3.043 3.661-5.132 6.824-5.132h288.819c3.132 0 5.901 2.047 6.803 5.035v.001L481.061 410l.638-.193-47.587-157.179M343.298 194.668H216.97v-.667h126.328v.667z" clip-rule="evenodd"/>
    <path fill="#FFCF2D" d="M260.812 218.219h29.843v25.604h-29.843v-25.604z"/>
    <path fill="#9A3B82" d="M372.407 337.185l-13.877-34.517h22.344l-8.467 34.517zM334.331 256.598c2.978-5.627 8.833-9.145 15.2-9.145h17.188l11.677 9.145h-44.065z"/>
    <path fill="#3FB1B5" d="M399.495 297.009h-43.298l16.299 39.522c-1.133-1.842-7.922.078-15.11 4.484-7.1 4.35-11.9 9.589-10.922 11.498l-35.132-61.065c-9.11-15.405 2-34.85 19.91-34.85h97.029l.211.666c6.333 19.645-8.333 39.745-28.987 39.745z"/>
    <path fill="#E6E6E6" d="M429.949 267.93c-.156 3.607-.956 7.092-2.311 10.322l-50.887-21.643h50.509l1.178 3.441c.822 2.064 1.278 4.961 1.511 7.88z"/>
    <path fill="#66B0F0" d="M372.507 336.53c1.133 1.843-3.822 6.87-10.999 11.277-7.189 4.406-13.866 6.614-15 4.772-1.133-1.842 3.7-7.048 10.889-11.454 7.177-4.406 13.966-6.437 15.11-4.595z"/>
    <path fill="#fff" fill-rule="evenodd" d="M404.992 259.414c.181-.038.357.077.395.257 1.755 8.309-4.591 16.129-13.092 16.129h-61.541c-4.822 0-7.852 5.185-5.498 9.381v.001l31.598 55.802c.09.161.034.364-.126.454-.161.091-.364.034-.455-.126l-31.598-55.804-.001-.001c-2.601-4.638.747-10.373 6.08-10.373h61.541c8.077 0 14.107-7.43 12.44-15.326-.038-.179.077-.356.257-.394z" clip-rule="evenodd"/>
    <path fill="#fff" fill-rule="evenodd" d="M367.762 336.275c-2.569.639-6 2.207-10.197 4.65-3.719 2.165-6.788 4.7-8.781 6.912-.998 1.107-1.716 2.122-2.114 2.958-.199.418-.312.779-.346 1.076-.035.296.011.508.102.656.096.157.047.362-.11.458-.157.096-.362.047-.458-.11-.193-.312-.242-.687-.196-1.081.046-.393.188-.826.406-1.285.436-.916 1.199-1.985 2.22-3.118 2.046-2.269 5.171-4.846 8.941-7.042 4.214-2.452 7.71-4.058 10.372-4.72 1.33-.331 2.476-.433 3.411-.269.944.165 1.68.605 2.145 1.349.097.156.049.362-.107.459-.156.097-.361.05-.459-.106-.346-.555-.9-.907-1.695-1.046-.805-.141-1.85-.061-3.134.259z" clip-rule="evenodd"/>
    <path fill="#fff" fill-rule="evenodd" d="M352.346 287.656c.17-.071.365.008.436.178l20.644 49.167c.071.17-.009.365-.179.436-.17.071-.365-.009-.436-.178l-20.644-49.167c-.071-.17.009-.365.179-.436zM380.396 256.565h-50.365v-.666h50.365v.666z" clip-rule="evenodd"/>
    <path fill="#E57281" d="M358.519 355.121l-3-4.085-4.133-5.616c1.689-1.42 3.722-2.896 6-4.295 4.533-2.774 8.899-4.617 11.799-5.127l2.011 4.006 2.511 4.995c-1.778 6.315-15.188 10.122-15.188 10.122z"/>
    <path fill="#9A3B82" d="M371.208 340.004c-1.867 2.276-5.378 5.15-9.7 7.803-2.077 1.276-4.111 2.364-5.977 3.229l-4.133-5.616c1.689-1.42 3.722-2.896 5.999-4.295 4.534-2.774 8.9-4.617 11.8-5.127l2.011 4.006z"/>
    <path fill="#fff" d="M387.44 367.008l-30.488 21.875c-2.588 1.798-6.61 3.297-6.077-3.207.744-8.968 2.733-22.309 7.644-30.566.211-.056 13.41-3.862 15.188-10.122l13.899 9.867c4 3.107 3.911 9.167-.166 12.153z"/>
    <path fill="#FFCF2D" fill-rule="evenodd" d="M373.515 344.443l14.29 10.144.006.005c4.175 3.243 4.082 9.568-.174 12.684l-.001.001-30.491 21.878-.002.001c-.661.459-1.42.904-2.184 1.208-.758.302-1.554.478-2.272.357-.743-.126-1.367-.566-1.755-1.409-.377-.821-.525-2.014-.389-3.664.373-4.493 1.058-10.086 2.266-15.593 1.207-5.503 2.941-10.942 5.423-15.115l.07-.118.132-.034.003-.001.011-.003.035-.01.126-.037c.107-.032.259-.079.45-.139.381-.12.917-.297 1.56-.527 1.287-.459 3-1.131 4.76-1.995 1.761-.864 3.559-1.915 5.022-3.13 1.466-1.218 2.567-2.577 2.985-4.049l.129-.454zm.368 1.078c-.547 1.477-1.678 2.792-3.056 3.937-1.519 1.261-3.367 2.339-5.154 3.216-3.21 1.575-6.259 2.52-6.934 2.719-2.394 4.07-4.089 9.381-5.279 14.804-1.2 5.47-1.882 11.031-2.253 15.506-.131 1.602.023 2.661.331 3.331.298.649.741.942 1.261 1.03.544.092 1.205-.037 1.913-.318.701-.28 1.415-.695 2.048-1.135l.002-.001 30.481-21.871.001-.001c3.896-2.854 3.983-8.643.164-11.616l-13.525-9.601z" clip-rule="evenodd"/>
    <path fill="#FFCF2D" fill-rule="evenodd" d="M375.331 345.9c.178.05.28.235.23.411-.55 1.936-1.842 3.679-3.477 5.192-1.638 1.514-3.638 2.814-5.638 3.861-2.002 1.047-4.014 1.847-5.682 2.356-.834.255-1.587.439-2.212.544-.615.104-1.142.139-1.506.071-.181-.034-.3-.208-.266-.389.034-.181.209-.3.39-.266.241.045.67.029 1.27-.072.59-.1 1.314-.276 2.129-.525 1.628-.497 3.602-1.281 5.567-2.309 1.966-1.029 3.913-2.297 5.495-3.76 1.584-1.464 2.784-3.108 3.289-4.884.05-.177.234-.28.411-.23z" clip-rule="evenodd"/>
    <path fill="#FFCF2D" d="M353.83 386.63s19.899-27.614 34.054-26.06c15.411 1.676-46.653 42.164-34.054 26.06z"/>
    <path fill="#FFCF2D" fill-rule="evenodd" d="M352.612 386.003l-.27-.195.27.195-.004.005-.004.005c-1.088 1.393-1.175 2.438-.917 3.083.261.652.913 1.005 1.555.964.184-.012.342.127.354.311.012.183-.127.342-.311.353-.902.059-1.839-.436-2.217-1.38-.38-.95-.157-2.244 1.007-3.736l.012-.016.045-.062.178-.241c.156-.21.387-.518.685-.91.597-.782 1.466-1.897 2.555-3.23 2.176-2.665 5.234-6.203 8.755-9.692 3.519-3.487 7.511-6.934 11.557-9.409 4.038-2.471 8.175-4.002 11.969-3.585 1.231.132 2.091.707 2.561 1.502.465.787.524 1.752.231 2.63-.059.175-.247.269-.422.211-.175-.058-.269-.247-.211-.421.24-.72.183-1.481-.172-2.081-.35-.592-1.011-1.066-2.058-1.179h-.001c-3.577-.393-7.558 1.048-11.549 3.491-3.984 2.437-7.935 5.845-11.436 9.314-3.499 3.468-6.541 6.987-8.708 9.64-1.083 1.327-1.947 2.436-2.541 3.213-.296.389-.525.694-.679.903l-.176.237-.044.06-.011.016-.003.004z" clip-rule="evenodd"/>
    <path fill="#fff" d="M430.06 270.183c-7.044-1.665-24.577-6.049-44.576-10.666-9.399-2.164-17.265-8.557-21.321-17.303l-18.21-39.356 11.022-17.447c3.388-5.372 9.166-8.79 15.51-9.178l10.844-.666c10.933-.666 19.71 6.148 23.043 16.57l22.055 64.461c2.422 6.038 1.633 13.585 1.633 13.585z"/>
    <path fill="#FE5244" fill-rule="evenodd" d="M383.349 175.899l-10.844.666c-6.237.382-11.917 3.742-15.248 9.024l-10.926 17.294 18.135 39.191c4.012 8.653 11.794 14.977 21.093 17.118 13.817 3.19 26.463 6.27 35.28 8.418 3.723.907 6.764 1.647 8.922 2.16.016-.213.035-.509.051-.876.036-.794.059-1.917.007-3.226-.105-2.625-.511-5.978-1.702-8.946l-.003-.008-22.057-64.47-.001-.003-.001-.003c-3.293-10.295-11.944-16.995-22.706-16.339zm46.711 94.284l.332.034-.04.377-.369-.087c-2.181-.516-5.365-1.291-9.313-2.253-8.816-2.147-21.447-5.224-35.261-8.413-9.5-2.187-17.45-8.648-21.548-17.487l-18.287-39.52 11.119-17.6c3.446-5.463 9.32-8.939 15.772-9.334 0 0-.001 0 0 0l10.844-.666c11.102-.676 20.005 6.252 23.38 16.798l.001.003 22.049 64.447c1.229 3.067 1.64 6.503 1.746 9.159.053 1.332.03 2.474-.007 3.283-.018.405-.039.727-.056.948l-.022.255-.003.038-.003.028-.002.018v.006l-.332-.034z" clip-rule="evenodd"/>
    <path fill="#FE5244" fill-rule="evenodd" d="M355.26 205.246l.281-.179.281-.179.001.001.002.003.012.018.048.072c.044.065.111.16.201.284.18.246.453.603.822 1.039.739.871 1.863 2.057 3.395 3.305 3.064 2.496 7.763 5.243 14.299 6.237l-.101.659c-6.674-1.015-11.481-3.823-14.619-6.38-1.569-1.278-2.721-2.493-3.482-3.391-.381-.449-.664-.818-.853-1.077-.094-.13-.165-.231-.213-.301l-.054-.081-.014-.022-.004-.006-.001-.002h-.001z" clip-rule="evenodd"/>
    <path fill="#FFCF2D" d="M363.363 188.508c-.6-.644-1.655-.467-2.022.322-.411.888.333 1.877 1.3 1.732.989-.144 1.4-1.332.722-2.054z"/>
    <path fill="#FE5244" fill-rule="evenodd" d="M361.039 188.689c.465-.999 1.804-1.227 2.568-.409.861.918.337 2.428-.917 2.611-1.228.183-2.174-1.072-1.651-2.201v-.001zm.604.281c-.299.646.243 1.367.949 1.262h.001c.722-.105 1.021-.971.527-1.496l-.001-.001c-.436-.469-1.207-.342-1.476.235z" clip-rule="evenodd"/>
    <path fill="#FFCF2D" d="M391.04 207.475c-.6-.644-1.656-.466-2.022.322-.412.889.333 1.877 1.3 1.733.988-.144 1.399-1.333.722-2.055z"/>
    <path fill="#FE5244" fill-rule="evenodd" d="M388.715 207.657c.465-1 1.805-1.228 2.568-.409.862.918.338 2.427-.917 2.611-1.227.182-2.174-1.072-1.651-2.202zm.605.28c-.299.647.243 1.368.948 1.263h.001c.723-.106 1.021-.971.528-1.497l-.001-.001c-.437-.468-1.208-.341-1.476.235z" clip-rule="evenodd"/>
    <path fill="#FFCF2D" d="M399.806 215.244c-.6-.644-1.656-.466-2.022.323-.411.888.333 1.876 1.3 1.732.977-.133 1.389-1.322.722-2.055z"/>
    <path fill="#FE5244" fill-rule="evenodd" d="M397.482 215.426c.465-1 1.805-1.228 2.568-.409l.003.003c.838.922.332 2.435-.922 2.608-1.227.182-2.172-1.072-1.65-2.201l.001-.001zm.604.28c-.299.647.243 1.368.948 1.263l.005-.001c.699-.095 1.014-.955.522-1.498-.437-.467-1.207-.339-1.475.236z" clip-rule="evenodd"/>
    <path fill="#FFCF2D" d="M416.616 259.206c-.6-.644-1.655-.466-2.022.322-.411.889.333 1.877 1.3 1.733.978-.145 1.389-1.322.722-2.055z"/>
    <path fill="#FE5244" fill-rule="evenodd" d="M414.292 259.388c.465-1 1.805-1.228 2.568-.409l.003.003c.842.926.327 2.423-.92 2.607-1.228.184-2.174-1.071-1.651-2.201zm.604.28c-.299.647.243 1.368.949 1.263.708-.105 1.015-.959.526-1.499-.437-.467-1.207-.339-1.475.236z" clip-rule="evenodd"/>
    <path fill="#FFCF2D" d="M407.206 238.197c-.6-.645-1.656-.467-2.023.322-.411.888.334 1.876 1.3 1.732.989-.144 1.4-1.333.723-2.054z"/>
    <path fill="#FE5244" fill-rule="evenodd" d="M404.881 238.378c.465-1 1.805-1.227 2.568-.409.861.918.338 2.427-.917 2.611-1.228.183-2.174-1.072-1.651-2.201v-.001zm.605.281c-.299.646.243 1.367.948 1.262h.001c.723-.106 1.021-.971.528-1.497l-.001-.001c-.437-.468-1.208-.341-1.476.236z" clip-rule="evenodd"/>
    <path fill="#FFCF2D" d="M411.105 223.08c-.866.111-1.344 1.077-.911 1.832.489.855 1.722.822 2.167-.055.455-.889-.278-1.91-1.256-1.777z"/>
    <path fill="#FE5244" fill-rule="evenodd" d="M412.658 225.007c-.564 1.113-2.132 1.156-2.753.07-.551-.96.055-2.185 1.157-2.327 1.242-.168 2.174 1.129 1.596 2.257zm-.594-.303c.332-.647-.202-1.391-.914-1.294h-.002c-.63.081-.98.787-.664 1.336v.001c.357.623 1.255.6 1.58-.041v-.002z" clip-rule="evenodd"/>
    <path fill="#FFCF2D" d="M418.205 245.499c-.867.111-1.344 1.077-.911 1.833.489.855 1.722.821 2.167-.056.455-.888-.267-1.91-1.256-1.777z"/>
    <path fill="#FE5244" fill-rule="evenodd" d="M419.758 247.427c-.565 1.112-2.132 1.155-2.753.07-.551-.96.054-2.186 1.157-2.328 1.255-.168 2.173 1.131 1.596 2.258zm-.594-.303c.333-.65-.193-1.392-.914-1.295l-.003.001c-.63.08-.979.786-.664 1.335v.001c.357.624 1.255.6 1.58-.041l.001-.001z" clip-rule="evenodd"/>
    <path fill="#FFCF2D" d="M388.762 221.315c-.6-.644-1.656-.466-2.022.322-.411.889.333 1.877 1.3 1.733.978-.144 1.389-1.322.722-2.055z"/>
    <path fill="#FE5244" fill-rule="evenodd" d="M386.438 221.497c.465-1 1.805-1.228 2.568-.409l.003.003c.842.926.327 2.423-.92 2.608-1.228.183-2.175-1.072-1.652-2.202h.001zm.604.28c-.299.647.243 1.368.949 1.263.708-.105 1.015-.959.526-1.499-.437-.467-1.207-.339-1.475.236z" clip-rule="evenodd"/>
    <path fill="#FFCF2D" d="M382.64 233.89c-.6-.644-1.655-.466-2.022.322-.411.889.333 1.877 1.3 1.733.989-.145 1.4-1.333.722-2.055z"/>
    <path fill="#FE5244" fill-rule="evenodd" d="M380.316 234.072c.465-1 1.804-1.228 2.568-.409.861.918.337 2.427-.917 2.61-1.228.183-2.174-1.071-1.652-2.201h.001zm.604.28c-.299.647.243 1.368.949 1.263l.001-.001c.722-.105 1.021-.971.527-1.496l-.001-.001c-.436-.468-1.207-.341-1.476.235z" clip-rule="evenodd"/>
    <path fill="#FFCF2D" d="M371.685 229.496c.645-.6.467-1.655-.322-2.021-.889-.411-1.878.333-1.733 1.299.144.978 1.322 1.389 2.055.722z"/>
    <path fill="#FE5244" fill-rule="evenodd" d="M369.3 228.823c-.183-1.227 1.072-2.173 2.203-1.65 1.001.465 1.229 1.804.409 2.566l-.003.003c-.926.841-2.425.327-2.609-.919zm1.923-1.046c-.647-.299-1.369.243-1.264.948.105.707.96 1.014 1.5.525.468-.436.34-1.205-.236-1.473z" clip-rule="evenodd"/>
    <path fill="#FFCF2D" d="M381.407 251.139c.644-.6.466-1.655-.322-2.022-.889-.411-1.878.334-1.734 1.3.145.988 1.334 1.399 2.056.722z"/>
    <path fill="#FE5244" fill-rule="evenodd" d="M379.022 250.465c-.183-1.227 1.072-2.172 2.202-1.65h.001c1.001.465 1.229 1.804.409 2.566-.918.861-2.429.338-2.612-.916zm1.922-1.045c-.647-.299-1.368.242-1.263.947v.001c.106.722.972 1.02 1.498.527l.001-.001c.469-.436.341-1.206-.236-1.474z" clip-rule="evenodd"/>
    <path fill="#FFCF2D" d="M397.773 232.571c.644-.6.466-1.655-.322-2.022-.889-.411-1.878.334-1.734 1.3.145.977 1.334 1.399 2.056.722z"/>
    <path fill="#FE5244" fill-rule="evenodd" d="M395.387 231.897c-.183-1.227 1.073-2.172 2.203-1.65h.001c1 .465 1.228 1.804.409 2.566-.921.863-2.429.323-2.613-.916zm1.923-1.045c-.647-.299-1.369.242-1.263.947v.001c.106.714.974 1.018 1.498.527l.001-.001c.469-.436.341-1.206-.236-1.474z" clip-rule="evenodd"/>
    <path fill="#FFCF2D" d="M403.361 255.811c.645-.6.467-1.655-.322-2.021-.889-.411-1.878.333-1.733 1.299.133.989 1.322 1.4 2.055.722z"/>
    <path fill="#FE5244" fill-rule="evenodd" d="M400.976 255.136c-.182-1.226 1.073-2.17 2.203-1.648h.001c1 .465 1.228 1.804.408 2.566v.001c-.925.854-2.44.343-2.612-.919zm1.923-1.044c-.647-.299-1.369.243-1.263.948v.004c.096.712.957 1.022 1.499.522.468-.436.34-1.206-.236-1.474z" clip-rule="evenodd"/>
    <path fill="#FFCF2D" d="M369.852 208.741c-.6-.644-1.656-.467-2.022.322-.411.888.333 1.877 1.3 1.732.988-.144 1.4-1.332.722-2.054z"/>
    <path fill="#FE5244" fill-rule="evenodd" d="M367.527 208.922c.465-1 1.805-1.227 2.568-.409.862.918.338 2.427-.917 2.611-1.227.183-2.174-1.072-1.651-2.201v-.001zm.605.281c-.299.646.243 1.367.948 1.262h.001c.723-.106 1.021-.971.528-1.496l-.001-.001c-.437-.469-1.208-.342-1.476.235z" clip-rule="evenodd"/>
    <path fill="#FFCF2D" d="M371.841 179.951c-.6-.644-1.656-.467-2.023.322-.411.888.334 1.877 1.3 1.732.989-.144 1.4-1.332.723-2.054z"/>
    <path fill="#FE5244" fill-rule="evenodd" d="M369.516 180.132c.465-.999 1.805-1.227 2.568-.409.862.918.338 2.427-.917 2.611-1.228.183-2.174-1.072-1.651-2.201v-.001zm.605.281c-.299.646.243 1.367.948 1.262h.001c.723-.106 1.021-.971.528-1.496l-.001-.001c-.437-.469-1.208-.342-1.476.235z" clip-rule="evenodd"/>
    <path fill="#FFCF2D" d="M391.04 179.951c-.6-.644-1.656-.467-2.022.322-.412.888.333 1.877 1.3 1.732.988-.144 1.399-1.332.722-2.054z"/>
    <path fill="#FE5244" fill-rule="evenodd" d="M388.715 180.132c.465-.999 1.805-1.227 2.568-.409.862.918.338 2.427-.917 2.611-1.227.183-2.174-1.072-1.651-2.201v-.001zm.605.281c-.299.646.243 1.367.948 1.262h.001c.723-.106 1.021-.971.528-1.496l-.001-.001c-.437-.469-1.208-.342-1.476.235z" clip-rule="evenodd"/>
    <path fill="#FFCF2D" d="M391.073 192.381c-.811.322-1.044 1.366-.433 1.999.677.7 1.866.378 2.089-.577.222-.967-.734-1.788-1.656-1.422z"/>
    <path fill="#FE5244" fill-rule="evenodd" d="M390.95 192.071c1.173-.465 2.386.579 2.103 1.806-.282 1.214-1.793 1.621-2.653.734-.778-.805-.479-2.131.55-2.539m1.454 1.655c.162-.705-.536-1.303-1.208-1.037v.001c-.593.235-.761.996-.317 1.457.496.511 1.363.274 1.525-.421z" clip-rule="evenodd"/>
    <path fill="#FFCF2D" d="M380.162 185.3c-.844.244-1.166 1.255-.633 1.944.611.766 1.822.555 2.133-.367.323-.944-.555-1.855-1.5-1.577z"/>
    <path fill="#FE5244" fill-rule="evenodd" d="M380.069 184.98c1.205-.353 2.317.806 1.909 2.004-.397 1.173-1.936 1.437-2.709.467l-.003-.004c-.676-.873-.269-2.156.803-2.467zm1.278 1.789c.235-.689-.407-1.35-1.09-1.149h-.002c-.616.178-.852.913-.464 1.417.449.56 1.33.402 1.556-.267v-.001z" clip-rule="evenodd"/>
    <path fill="#FFCF2D" d="M378.551 216.043c-.866.1-1.355 1.055-.933 1.822.478.855 1.711.844 2.167-.023.466-.877-.245-1.91-1.234-1.799z"/>
    <path fill="#FE5244" fill-rule="evenodd" d="M380.079 217.998c.594-1.118-.314-2.426-1.565-2.286l-.001.001c-1.104.127-1.722 1.34-1.187 2.312l.001.001c.605 1.084 2.172 1.073 2.752-.028zm-1.49-1.624c.726-.081 1.24.675.901 1.312v.001c-.331.629-1.23.641-1.58.016-.309-.561.051-1.256.679-1.329z" clip-rule="evenodd"/>
    <path fill="#FFCF2D" d="M369.03 239.162c-.867.1-1.356 1.055-.934 1.821.478.855 1.711.844 2.167-.022.467-.877-.245-1.91-1.233-1.799z"/>
    <path fill="#FE5244" fill-rule="evenodd" d="M370.558 241.116c.593-1.117-.315-2.425-1.566-2.285h-.001c-1.104.127-1.722 1.341-1.187 2.312l.001.002c.606 1.083 2.172 1.073 2.753-.029zm-1.491-1.623c.727-.081 1.24.674.902 1.311l-.001.001c-.331.63-1.23.642-1.58.016-.308-.56.051-1.255.679-1.328z" clip-rule="evenodd"/>
    <path fill="#FFCF2D" d="M372.229 194.468c-.844.244-1.166 1.254-.633 1.943.611.766 1.822.555 2.133-.366.323-.933-.544-1.844-1.5-1.577z"/>
    <path fill="#FE5244" fill-rule="evenodd" d="M374.045 196.152c.41-1.191-.696-2.342-1.905-2.005l-.003.001c-1.073.31-1.481 1.594-.804 2.466l.002.004c.774.97 2.313.706 2.71-.466zm-1.724-1.364c.7-.194 1.326.474 1.093 1.147v.003c-.226.668-1.107.826-1.556.267-.388-.504-.152-1.238.463-1.417z" clip-rule="evenodd"/>
    <path fill="#FFCF2D" d="M381.429 200.683c-.844.244-1.167 1.255-.633 1.943.611.767 1.822.556 2.133-.366.322-.944-.545-1.855-1.5-1.577z"/>
    <path fill="#FE5244" fill-rule="evenodd" d="M381.336 200.363c1.217-.353 2.317.807 1.909 2.003-.397 1.174-1.936 1.437-2.71.467l-.003-.003c-.676-.873-.268-2.157.804-2.467zm1.277 1.789c.236-.691-.397-1.351-1.091-1.149-.616.178-.853.913-.464 1.417.448.56 1.329.401 1.555-.267v-.001z" clip-rule="evenodd"/>
    <path fill="#FFCF2D" d="M361.508 200.418c.555-.678.255-1.7-.589-1.955-.933-.289-1.822.577-1.545 1.51.278.955 1.5 1.211 2.134.445z"/>
    <path fill="#FE5244" fill-rule="evenodd" d="M361.016 198.145c1.075.325 1.453 1.626.75 2.483l-.001.001c-.805.973-2.358.647-2.71-.562-.355-1.193.78-2.287 1.961-1.922zm-.196.636c-.684-.211-1.326.425-1.126 1.097l.001.002c.203.699 1.094.883 1.555.325.407-.496.185-1.238-.428-1.423l-.002-.001z" clip-rule="evenodd"/>
    <path fill="#FFCF2D" d="M403.628 200.451c.556-.678.256-1.699-.589-1.955-.933-.288-1.822.578-1.544 1.511.266.955 1.5 1.21 2.133.444z"/>
    <path fill="#FE5244" fill-rule="evenodd" d="M403.137 198.178c1.075.326 1.452 1.626.749 2.484h-.001c-.802.97-2.369.652-2.711-.563-.352-1.192.782-2.285 1.963-1.921zm-.196.637c-.685-.212-1.327.424-1.127 1.096l.002.006c.193.691 1.09.883 1.555.322.407-.497.185-1.238-.428-1.424h-.002z" clip-rule="evenodd"/>
    <path fill="#FFCF2D" d="M392.939 245.445c.556-.678.256-1.699-.588-1.955-.934-.288-1.822.578-1.545 1.511.267.944 1.5 1.199 2.133.444z"/>
    <path fill="#FE5244" fill-rule="evenodd" d="M392.448 243.172c1.075.326 1.453 1.626.749 2.484l-.002.002c-.801.955-2.366.64-2.709-.565-.353-1.192.781-2.286 1.962-1.921zm-.196.637c-.684-.212-1.326.424-1.126 1.096l.001.005c.192.68 1.091.875 1.556.322.406-.497.184-1.238-.429-1.423h-.002z" clip-rule="evenodd"/>
    <path fill="#E57281" d="M384.073 175.202l-.744.033-10.844.666c-2.767.166-5.411.91-7.811 2.142l-3.333-9.967 14.855-10.876 7.877 18.002z"/>
    <path fill="#9A3B82" d="M364.63 177.886c3.089-1.398 5.555-3.884 6.955-6.97l5.4-11.931-.789-1.798-14.855 10.877 3.289 9.822z"/>
    <path fill="#E57281" d="M377.151 158.197c0 1.032-.422 1.965-1.099 2.642-.678.677-1.612 1.098-2.645 1.098h-3.266c-1.289 5.006-6.278 8.435-11.644 7.492l-2.456-.433c-2.688-.477-4.522-2.985-4.144-5.682l2.878-14.395c.5-3.075 3.666-4.95 6.611-3.896l4.766 1.909c2.578.888 4.311 3.307 4.311 6.027v1.387l2.944.111c2.067 0 3.744 1.676 3.744 3.74z"/>
    <path fill="#9A3B82" fill-rule="evenodd" d="M374.207 156.61c-1.28 0-2.311 1.031-2.311 2.309 0 .154-.124.278-.278.278-.153 0-.277-.124-.277-.278 0-1.585 1.279-2.864 2.866-2.864.154 0 .278.124.278.278 0 .153-.124.277-.278.277zM356.097 151.949c0-.154.124-.278.278-.278v0h.011l.024.001.086.004c.074.005.178.014.308.033.26.037.622.11 1.038.257.833.293 1.883.88 2.755 2.048.092.123.067.297-.056.389-.123.091-.297.066-.389-.057-.794-1.063-1.744-1.592-2.495-1.857-.376-.132-.701-.198-.931-.231-.115-.016-.205-.024-.266-.028l-.068-.003-.015-.001h-.003" clip-rule="evenodd"/>
    <path fill="#9A3B82" d="M357.925 156.102c.118-.646-.032-1.214-.333-1.269-.302-.054-.642.425-.76 1.07-.117.646.032 1.214.334 1.269.302.055.642-.425.759-1.07z"/>
    <path fill="#FFCF2D" d="M373.407 154.458c2.067 0 3.744 1.676 3.744 3.741v.055c1.667-2.564 5.756-9.09 5.756-11.298 0-2.964-3.7-5.927-7.533-4.573.255-.189.522-.388.8-.599 1.477-1.155 2.255-2.02 2.377-2.642.045-.222.011-.422-.1-.577-.444-.633-.933-.91-1.455-.821-.767.122-1.556 1.065-2.344 2.797-.356.788-.634 1.565-.789 2.042-.311-1.854-1.811-7.991-8.255-7.048-2.223.322-3.267 1.243-3.556 2.253-1.844-1.443-4.311-2.575-6.355-1.498-3.533 1.853-3.1 4.894-1.056 7.048-1.933-.034-3.288.532-3.288 2.164 0 1.498 1.544 2.219 3.666 2.508 2.122.289 4.844.133 7.2-.133 1.678-.189 3.189-.422 4.155-.588-.644 1.32-.9 2.452-.844 3.407.1 1.975 1.533 3.141 3.555 3.551.433.089.9.145 1.378.167l2.944.044zm3.656-16.27c.033-.011.066-.011.111-.011.311 0 .611.222.911.643.022.045.055.111.033.233-.178.899-2.455 2.609-3.778 3.508.523-1.532 1.623-4.185 2.723-4.373z"/>
    <path fill="#fff" d="M364.541 141.471c-.767 0-1.544-.41-2.111-1.132-.633-.799-.845-1.786-.578-2.641.033-.111.145-.178.256-.155.044 0 .089.011.122.044 1.678 1.199 3.022 2.908 2.822 3.585-.044.177-.189.288-.378.299h-.133zm-2.333-3.351c-.1.643.1 1.354.566 1.942.5.633 1.189.999 1.856.954.022-.288-.722-1.609-2.422-2.896z"/>
    <path fill="#E57281" d="M342.609 239.473h-71.108c-1.756 0-2.811-1.931-1.878-3.408l9.466-14.85c1.234-1.931 3.356-3.096 5.645-3.096h48.131l9.744 21.354z"/>
    <path fill="#FE5244" d="M286.3 218.13l5.667-9.323c.333-.555.944-.899 1.588-.899 1.456 0 2.345 1.587 1.589 2.83l-4.5 7.392H286.3z"/>
    <path fill="#9A3B82" d="M342.609 239.473H326.62l-.111-.111c-3.888-3.996-5.544-10.056-3.355-15.894l2.278-5.349h7.433l9.744 21.354z"/>
    <path fill="#E57281" d="M281.545 229.506h-8.911c-.6 0-1.155.322-1.455.844l-.945 1.642c-.633 1.11.167 2.497 1.456 2.497h7.166c1.244 0 2.4-.643 3.055-1.709l.767-1.254c.533-.888-.1-2.02-1.133-2.02zM279.245 234.489h-8.911c-.6 0-1.155.322-1.455.844l-.945 1.643c-.633 1.109.167 2.497 1.456 2.497h7.166c1.245 0 2.4-.644 3.056-1.709l.766-1.255c.545-.887-.1-2.02-1.133-2.02zM284.089 224.456h-8.91c-.6 0-1.156.322-1.456.844l-.944 1.642c-.634 1.11.166 2.498 1.455 2.498h7.166c1.245 0 2.4-.644 3.056-1.71l.767-1.254c.544-.888-.1-2.02-1.134-2.02z"/>
    <path fill="#9A3B82" fill-rule="evenodd" d="M270.938 230.211c.349-.607.996-.982 1.696-.982h8.911c1.253 0 2.014 1.37 1.371 2.44v.001l-.767 1.255-.001.001c-.706 1.147-1.951 1.841-3.292 1.841h-7.166c-1.503 0-2.436-1.618-1.697-2.912v-.001l.945-1.643zm.482.277l-.944 1.642h-.001c-.527.925.14 2.082 1.215 2.082h7.166c1.148 0 2.214-.594 2.819-1.577l.765-1.252.001-.001c.423-.705-.083-1.598-.896-1.598h-8.911c-.5 0-.964.268-1.214.704z" clip-rule="evenodd"/>
    <path fill="#9A3B82" fill-rule="evenodd" d="M268.638 235.195c.349-.608.996-.983 1.696-.983h8.911c1.248 0 2.029 1.368 1.37 2.442l-.766 1.254-.001.001c-.706 1.147-1.951 1.841-3.292 1.841h-7.166c-1.503 0-2.436-1.617-1.697-2.912v-.001l.945-1.642zm.482.276l-.944 1.642h-.001c-.527.926.14 2.082 1.215 2.082h7.166c1.148 0 2.214-.593 2.819-1.576v-.001l.766-1.254c.43-.701-.078-1.597-.896-1.597h-8.911c-.5 0-.964.268-1.214.704zM273.482 225.162c.349-.608.997-.983 1.696-.983h8.911c1.249 0 2.029 1.368 1.37 2.442l-.766 1.254-.001.001c-.706 1.147-1.951 1.841-3.292 1.841h-7.166c-1.503 0-2.435-1.618-1.697-2.912l.001-.001.944-1.642zm.482.276l-.944 1.642c-.528.925.139 2.082 1.214 2.082h7.166c1.148 0 2.214-.593 2.819-1.577l.766-1.254c.431-.701-.078-1.597-.896-1.597h-8.911c-.5 0-.964.268-1.214.704z" clip-rule="evenodd"/>
    <path fill="#E57281" d="M296.989 231.881c-2.678 0-5.256-.965-7.278-2.73l-3.377-2.952h-3.111l-.8.854c-1.434 1.532-3.2 2.409-5.3 2.409h-1.489c-.778 0-1.255-.866-.833-1.521l3.744-5.86H297v9.8h-.011z"/>
    <path fill="#9A3B82" fill-rule="evenodd" d="M278.694 221.847c.13.083.168.254.085.383l-3.744 5.861h-.001c-.302.469.04 1.093.6 1.093h1.489c2.013 0 3.709-.826 5.096-2.319l.001-.001.882-.943h3.336l3.456 3.021m-3.665-2.466l3.299 2.884h.001c2.061 1.798 4.714 2.799 7.46 2.799.153 0 .277-.124.277-.278 0-.153-.124-.277-.277-.277-2.61 0-5.134-.952-7.095-2.662m-3.665-2.466h-2.886l-.717.766c-1.479 1.593-3.317 2.497-5.503 2.497h-1.489c-.995 0-1.609-1.106-1.067-1.947v-.001l3.744-5.859c.082-.129.254-.167.383-.085" clip-rule="evenodd"/>
    <path fill="#E57281" d="M372.007 218.72l-16.966 18.934c-3.566 3.984-8.666 6.26-14.021 6.26-10.577 0-17.899-10.544-14.188-20.444l20.154-47.303-6.811-3.806c-.966-.755-1.433-1.987-1.222-3.186l1.156-7.78c.355-1.731 2.122-3.085 3.844-3.485l7.977-1.798c.678-.155 1.3.422 1.189 1.099l-1.155 6.004c-.456 2.93 1.522 5.461 4.455 5.96 2.4.411 4.089 2.819 3.867 5.239l-5.433 33.851c-.012.022 5.555 8.69 17.154 10.455z"/>
    <path fill="#9A3B82" fill-rule="evenodd" d="M359.039 182.185c.152.023.256.165.232.316l-6.555 42.519c-.023.152-.165.256-.317.232-.151-.023-.255-.165-.232-.316l6.555-42.519c.023-.152.165-.256.317-.232zM345.417 161.682c.154.005.274.133.269.287l-.089 2.751v.001c-.03 1.019.578 1.888 1.411 2.13l10.199 2.062c.151.03.248.177.218.327-.031.15-.177.247-.328.217l-10.221-2.067-.01-.003c-1.117-.317-1.861-1.443-1.824-2.683v-.001l.089-2.752c.005-.153.133-.274.286-.269z" clip-rule="evenodd"/>
    <path fill="#9A3B82" fill-rule="evenodd" d="M351.811 156.096c.749-.179 1.439.465 1.304 1.228l-1.055 6.022c-.353 2.544 1.375 4.911 3.913 5.365l8.16 1.087c.152.02.259.16.239.311-.02.152-.16.259-.312.239l-8.172-1.089-.006-.001c-2.835-.503-4.77-3.148-4.371-5.994l.001-.005 1.056-6.031c.065-.369-.267-.679-.628-.592h-.001l-8.334 1.942c-.149.035-.299-.058-.334-.207-.034-.149.058-.298.208-.333l8.331-1.942h.001z" clip-rule="evenodd"/>
    <path fill="#FE5244" fill-rule="evenodd" d="M381.921 208.219l-22.088 24.551-.495-.445 22.088-24.551.495.445z" clip-rule="evenodd"/>
    <path fill="#9A3B82" fill-rule="evenodd" d="M346.942 176.177c0-.153.124-.277.277-.277h3.9c.154 0 .278.124.278.277 0 .154-.124.278-.278.278h-3.9c-.153 0-.277-.124-.277-.278zM348.977 157.361c.398.27.694.715.687 1.273l-.078 5.792c-.001.719-.516 1.352-1.233 1.352h-1.222c-1.128 0-1.989-1.021-1.989-2.197v-.888c0-.153.124-.278.278-.278.153 0 .277.125.277.278v.888c0 .933.673 1.642 1.434 1.642h1.222c.349 0 .677-.32.677-.799v-.002l.078-5.795c.004-.341-.172-.623-.443-.807-.276-.188-.63-.259-.936-.185-.149.036-.299-.055-.335-.204-.036-.149.055-.299.204-.335.472-.115.985-.003 1.379.265z" clip-rule="evenodd"/>
    <path fill="#9A3B82" fill-rule="evenodd" d="M349.386 162.415c.153 0 .278.124.278.277v.888c0 .934.672 1.643 1.433 1.643h.778c.153 0 .278.125.278.278 0 .153-.125.278-.278.278h-.778c-1.128 0-1.989-1.022-1.989-2.199v-.888c0-.153.125-.277.278-.277z" clip-rule="evenodd"/>
    <path fill="#66B0F0" fill-rule="evenodd" d="M435.74 409.943l-12.899-107.235.661-.079 12.9 107.235-.662.079zM354.033 409.864l12.899-107.235.662.079-12.899 107.235-.662-.079z" clip-rule="evenodd"/>
    <path fill="#66B0F0" fill-rule="evenodd" d="M431.638 373.412h-72.852v-.667h72.852v.667z" clip-rule="evenodd"/>
    <path fill="#fff" d="M359.83 303.002h70.108c.933 0 1.689-.755 1.689-1.687v-2.287c0-.932-.756-1.687-1.689-1.687H359.83c-.933 0-1.689.755-1.689 1.687v2.287c0 .932.756 1.687 1.689 1.687z"/>
    <path fill="#FFCF2D" fill-rule="evenodd" d="M357.808 299.028c0-1.116.905-2.02 2.022-2.02h70.108c1.117 0 2.022.904 2.022 2.02v2.286c0 1.117-.905 2.02-2.022 2.02H359.83c-1.117 0-2.022-.903-2.022-2.02v-2.286zm2.022-1.354c-.749 0-1.355.606-1.355 1.354v2.286c0 .749.606 1.354 1.355 1.354h70.108c.749 0 1.355-.605 1.355-1.354v-2.286c0-.748-.606-1.354-1.355-1.354H359.83z" clip-rule="evenodd"/>
    <path fill="#fff" d="M243.169 221.848l-10.733 22.064h-32.432l13.033-22.064h30.132z"/>
    <path fill="#3FB1B5" fill-rule="evenodd" d="M212.878 221.57h30.735l-11.003 22.62h-33.092l13.36-22.62zm.318.555l-12.705 21.51h31.771l10.463-21.51h-29.529z" clip-rule="evenodd"/>
    <path fill="#3FB1B5" fill-rule="evenodd" d="M223.288 226.165c.247.158.493.315.737.464.396.241.866.317 1.409.275.545-.042 1.147-.203 1.788-.42.401-.136.804-.288 1.214-.443.252-.095.507-.191.765-.285.67-.243 1.35-.466 2.008-.584 1.772-.325 3.045.142 3.876.704.412.278.713.578.911.809.099.116.173.215.223.286l.057.085.015.025.005.007.001.003v.001h.001l-.24.14-.239.141-.002-.003-.003-.005-.007-.01-.044-.066c-.04-.058-.103-.142-.189-.243-.173-.201-.437-.465-.801-.711-.721-.487-1.848-.914-3.464-.617h-.001c-.61.11-1.254.319-1.917.56-.244.088-.493.182-.743.277-.419.158-.84.317-1.248.455-.655.221-1.308.4-1.923.448-.618.048-1.215-.035-1.74-.355-.27-.164-.53-.33-.786-.493-.643-.412-1.255-.803-1.91-1.087-.893-.387-1.832-.556-2.952-.244-1.168.326-2.187.802-2.915 1.198-.364.198-.653.375-.852.502-.099.063-.175.114-.225.149l-.058.039-.013.01-.004.002v.001l-.163-.225-.163-.225.001-.001.001-.001.005-.003.017-.012.063-.043c.055-.038.136-.092.239-.159.208-.133.51-.317.886-.522.753-.409 1.812-.904 3.032-1.244 1.269-.354 2.341-.157 3.322.269.699.303 1.368.731 2.026 1.151zM222.177 229.605c.247.158.493.315.737.464.396.24.866.317 1.409.275.545-.042 1.146-.204 1.788-.421.401-.135.804-.287 1.214-.442.252-.095.507-.191.765-.285.67-.244 1.35-.466 2.008-.584 1.772-.325 3.045.142 3.876.703.412.279.713.579.911.81.099.115.173.214.223.286l.057.085.015.025.004.007.002.002v.001l.001.001-.24.14-.24.14-.001-.002-.003-.005-.007-.011-.044-.065c-.04-.058-.103-.143-.189-.243-.173-.201-.437-.465-.801-.711-.722-.488-1.848-.914-3.465-.617h-.001c-.609.109-1.253.318-1.916.559-.244.089-.493.183-.743.277-.419.158-.84.318-1.248.455-.655.222-1.308.401-1.923.448-.618.048-1.215-.034-1.741-.354-.269-.164-.529-.33-.785-.494-.643-.411-1.255-.802-1.91-1.086-.893-.387-1.832-.556-2.952-.244-1.168.326-2.187.802-2.915 1.198-.364.197-.653.374-.852.501-.099.064-.175.115-.226.149l-.057.04-.013.01-.004.002-.163-.225-.163-.224.001-.001.001-.001.005-.003.017-.012.063-.044.239-.158c.208-.133.509-.317.886-.522.753-.409 1.811-.904 3.032-1.245 1.269-.354 2.341-.156 3.322.27.698.303 1.368.731 2.026 1.151z" clip-rule="evenodd"/>
    <path fill="#FE5244" d="M255.368 320.87c0 2.964-8.233 5.361-18.543 5.361-10.311 0-18.299-2.397-18.299-5.361 0-2.963 7.988-5.36 18.299-5.36 10.31 0 18.543 2.408 18.543 5.36z"/>
    <path fill="#A0505A" d="M250.624 317.263v38.291l-1.166-5.528c-1.256-5.948-6.511-10.199-12.6-10.199-1.833 0-3.633.388-5.266 1.121-.056.022-.111.055-.178.077l-4.278-15.582-2.377-8.668c3.255-.788 7.466-1.265 12.066-1.265 5.466 0 10.388.677 13.799 1.753z"/>
    <path fill="#73325A" d="M250.624 317.265v7.214c-3.411 1.076-8.333 1.753-13.799 1.753-3.545 0-6.856-.288-9.689-.776l-2.377-8.669c3.255-.788 7.466-1.265 12.066-1.265 5.466-.011 10.388.666 13.799 1.743z"/>
    <path fill="#FFCF2D" d="M249.802 354.433c.3.089 3.122.877 5.622.877 1.355 0 2.611-.233 3.322-.943.611-.611.755-1.499.433-2.62-.289-.999-.844-1.62-1.655-1.842-1.489-.4-3.556.71-5.189 1.876 2.544-3.086 5.055-7.004 4.122-9.567-.333-.91-1.089-1.521-2.033-1.632-.789-.089-1.522.189-1.867.71-1.6 2.431-2.911 12.409-2.966 12.83l.211.311zm3.222-12.83c.2-.299.622-.477 1.111-.477.078 0 .156 0 .233.011.356.044 1.211.244 1.578 1.265.244.677.333 1.92-.655 4.007-.934 1.975-2.623 4.295-5.023 6.925.356-2.53 1.489-9.811 2.756-11.731zm5.333 12.375c-.733.733-2.4.955-4.833.644-1.278-.167-2.467-.433-3.1-.599.478-.422 1.367-1.188 2.4-1.898 1.978-1.365 3.555-1.954 4.566-1.676.611.166 1.023.644 1.267 1.454.267.932.167 1.609-.3 2.075z"/>
    <path fill="#fff" d="M227.247 344.133l-2.566 2.875c-2.911 3.263-3.389 8.013-1.178 11.787l11.3 19.356c2.211 3.784 6.266 6.104 10.644 6.104h4.677c3.389 0 5.911-3.108 5.211-6.415l-5.889-27.802c-1.255-5.949-6.51-10.2-12.599-10.2-3.655-.011-7.155 1.554-9.6 4.295z"/>
    <path fill="#3FB1B5" fill-rule="evenodd" d="M227.04 343.948c2.497-2.8 6.072-4.399 9.807-4.388 6.22.001 11.588 4.343 12.871 10.42m0 0l5.889 27.802c.736 3.48-1.918 6.75-5.483 6.75h-4.677c-4.477 0-8.623-2.372-10.884-6.242l-11.3-19.355c-2.272-3.878-1.78-8.759 1.211-12.112l2.566-2.875m9.806-3.833c-3.575-.011-6.999 1.52-9.391 4.203l-2.567 2.874c-2.831 3.174-3.295 7.793-1.145 11.462v.001l11.3 19.356s-.001 0 0 0c2.161 3.699 6.125 5.966 10.404 5.966h4.677c3.212 0 5.603-2.945 4.939-6.08l-5.888-27.802c-1.229-5.82-6.37-9.98-12.328-9.98h-.001z" clip-rule="evenodd"/>
    <path fill="#3FB1B5" d="M235.991 352.501l14.589 28.235c.688 1.277 1.544 2.098 2.522 2.62-.845.566-1.867.91-2.978.91h-4.677c-4.389 0-8.445-2.331-10.644-6.104l-11.3-19.368c-.455-.788-.8-1.609-1.033-2.464-1.6-5.937 5.166-10.599 10.244-7.114 1.155.788 2.289 1.854 3.277 3.285z"/>
    <path fill="#fff" d="M236.025 352.568h-13.466c.066-.211.144-.411.233-.599h12.799c.134.177.267.355.4.544l.034.055zM238.002 356.386h-15.51c0-.022-.011-.044-.011-.055-.045-.178-.089-.367-.122-.544h15.343l.3.599zM239.98 360.215h-15.644l-.355-.61h15.688l.311.61zM241.958 364.044H226.57l-.356-.61h15.433l.311.61zM243.935 367.862h-15.132l-.356-.599h15.177l.311.599zM245.913 371.691h-14.877l-.355-.61h14.91l.322.61zM247.891 375.52h-14.622l-.355-.61h14.655l.322.61zM249.857 379.338h-14.266c-.144-.2-.288-.399-.422-.599h14.377l.311.599zM252.78 383.167h-12.4c-.4-.177-.789-.377-1.166-.599h12.766c.255.222.522.422.8.599z"/>
    <path fill="#73325A" d="M209.859 320.082c-.1 2.93-8.421 5.305-18.665 5.305s-18.566-2.364-18.666-5.305v-23.074h37.331v23.074z"/>
    <path fill="#A0505A" d="M207.382 323.911l-.056 2.742-.533 26.759v-.777c0-6.87-5.578-12.442-12.455-12.442h-.756c-3.511 0-6.677 1.365-9.021 3.563l-1.634-11.032-1.011-6.826c2.733.455 5.9.71 9.266.71 6.933-.011 12.966-1.099 16.2-2.697z"/>
    <path fill="#73325A" d="M207.382 323.911l-.055 2.742c-4.133 2.93-16.9 6.537-24.388 6.06l-1.011-6.826c2.733.444 5.9.71 9.266.71 6.922 0 12.955-1.088 16.188-2.686z"/>
    <path fill="#fff" d="M194.905 384.621h2.066c5.422 0 9.822-4.395 9.822-9.811v-22.175c0-6.87-5.578-12.442-12.455-12.442h-.756c-7.999 0-14.166 7.048-13.088 14.972l2.611 19.179c.811 5.882 5.844 10.277 11.8 10.277z"/>
    <path fill="#3FB1B5" fill-rule="evenodd" d="M180.219 355.202c-1.101-8.091 5.195-15.286 13.363-15.286h.756c7.031 0 12.733 5.695 12.733 12.719v22.175c0 5.569-4.525 10.088-10.1 10.088h-2.067c-6.094 0-11.244-4.497-12.074-10.517l-2.611-19.179zm.55-.074l2.611 19.178c.792 5.745 5.708 10.037 11.524 10.037h2.067c5.269 0 9.544-4.27 9.544-9.533v-22.175c0-6.717-5.453-12.165-12.177-12.165h-.756c-7.831 0-13.868 6.9-12.813 14.658z" clip-rule="evenodd"/>
    <path fill="#3FB1B5" d="M203.704 381.946c-1.755 1.654-4.133 2.675-6.733 2.675h-2.066c-5.956 0-10.989-4.395-11.789-10.277l-2.611-19.179c-.044-.366-.089-.732-.1-1.088.667-4.25 4.344-7.502 8.789-7.502 2.188 0 4.211.799 5.777 2.131 1.567 1.332 2.667 3.207 3.011 5.371l3.433 23.408c.256 1.742 1.078 3.296 2.289 4.461z"/>
    <path fill="#fff" d="M196.949 351.114h-15.522c.112-.211.245-.41.378-.599h14.777c.134.189.256.388.367.599zM198.104 354.932h-17.632c-.022-.2-.045-.399-.056-.599h17.599l.089.599zM198.671 358.761h-17.677l-.089-.599h17.677l.089.599zM199.227 362.59h-17.711l-.089-.61h17.711l.089.61zM199.793 366.408h-17.754l-.089-.599h17.754l.089.599zM200.349 370.237H182.55l-.078-.599h17.788l.089.599zM200.915 374.067h-17.843l-.078-.611h17.832l.089.611zM201.482 377.884h-17.31c-.1-.199-.189-.399-.267-.599h17.477l.033.2.067.399zM203.471 381.713h-16.366c-.222-.188-.445-.399-.645-.599h16.5c.155.211.333.411.511.599z"/>
    <path fill="#FFCF2D" d="M217.937 200.15v18.69c-.811-2.119-7.233-1.82-14.3.855-6.055 2.297-10.599 5.449-11.266 7.636v-26.304c0-7.824 4.189-14.817 10.622-18.635 8.355 1.454 14.944 8.724 14.944 17.758zM191.882 183.236c-5.688 3.952-9.31 10.511-9.31 17.792v21.698H150.94l4.366-18.779c1.856-8.003 7.656-14.384 15.211-17.104l21.365-3.607z"/>
    <path fill="#06347F" d="M255.857 276.109v43.563c0-2.964-8.722-5.361-19.032-5.361-10.311 0-18.666 2.397-18.666 5.361v-20.877c0-.977-.8-1.776-1.778-1.776h-56.708c-17.055 0-29.665-15.86-25.81-32.452l13.688-58.912c2.178-9.401 9.8-16.559 19.321-18.18l3.645-.621c-7.555 2.719-13.355 9.101-15.211 17.103l-4.366 18.779h31.632v-21.709c0-7.281 3.633-13.851 9.31-17.791l5-.844c1.033-.177 2.044-.255 3.056-.255h.388c.123 0 .245.011.356.011h.067c.089 0 .189.011.277.011h.045c.055 0 .111.011.155.011.1.011.189.011.289.022.111.012.234.023.345.034l.322.033c.022 0 .044.011.078.011.111.011.233.033.344.045h.022c.123.022.245.033.367.055-6.433 3.818-10.622 10.81-10.622 18.635v53.329h41.709c12.022.022 21.777 9.756 21.777 21.775z"/>
    <path fill="#fff" fill-rule="evenodd" d="M192.878 182.558c.105.151.068.358-.083.463-5.614 3.899-9.901 10.851-9.901 18.006v22.031h-32.385l4.462-19.187m37.907-21.313c-.105-.151-.313-.189-.464-.084l.464.084zm-.464-.084c-5.763 4.003-10.187 11.146-10.187 18.553l10.187-18.553zm-10.187 18.553v21.365-21.365zm0 21.365h-30.879 30.879zM224.552 274.967c.14.119.158.329.039.469-3.938 4.657-6.099 10.563-6.099 16.667 0 .183-.149.332-.333.332-.184 0-.333-.149-.333-.332 0-6.261 2.216-12.319 6.256-17.096.119-.141.329-.159.47-.04z" clip-rule="evenodd"/>
    <path fill="#fff" d="M171.95 289.894c-.056 0-.111-.011-.156-.044l-1.466-.8c-.167-.088-.222-.288-.133-.455.088-.166.288-.222.455-.133l1.467.799c.166.089.222.289.133.455-.067.111-.178.178-.3.178zm1.467-.377c-.123 0-.234-.067-.289-.178-.089-.167-.034-.366.133-.455l1.467-.799c.166-.089.366-.022.455.133.089.166.034.366-.133.455l-1.467.799c-.055.022-.111.045-.166.045zm-4.4-1.21c-.056 0-.111-.011-.156-.045l-1.466-.799c-.167-.088-.223-.288-.134-.455.089-.166.289-.222.456-.133l1.466.799c.167.089.223.289.134.455-.067.111-.178.178-.3.178zm7.322-.389c-.123 0-.234-.066-.289-.177-.089-.167-.034-.367.133-.455l1.467-.799c.255-.134.489-.289.722-.455.144-.111.355-.078.467.066.111.144.077.355-.067.466-.256.189-.522.355-.8.511l-1.467.799c-.055.033-.111.044-.166.044zm-10.222-1.254c-.067 0-.133-.022-.2-.066-.467-.344-.9-.744-1.267-1.199-.122-.144-.1-.355.045-.466.144-.122.355-.1.466.044.334.411.723.766 1.145 1.077.144.111.178.322.078.466-.056.1-.156.144-.267.144zm13.655-1.165c-.078 0-.145-.022-.211-.078-.145-.111-.167-.322-.045-.466.334-.411.611-.855.834-1.343.077-.166.277-.244.444-.166.167.077.244.277.167.444-.245.532-.556 1.032-.922 1.476-.078.088-.167.133-.267.133zm-15.744-1.376c-.122 0-.244-.067-.3-.189-.244-.533-.422-1.088-.533-1.665-.033-.177.089-.355.267-.388.177-.034.355.088.388.266.1.522.256 1.021.478 1.498.078.167 0 .367-.166.444-.045.022-.089.034-.134.034zm17.122-1.621h-.056c-.178-.033-.3-.211-.267-.388.067-.367.1-.733.1-1.099v-.499c0-.189.145-.333.334-.333.189 0 .333.144.333.333v.499c0 .411-.033.821-.111 1.221-.033.155-.178.266-.333.266zm-17.733-1.62c-.189 0-.333-.145-.333-.333v-1.665c0-.189.144-.333.333-.333.189 0 .333.144.333.333v1.665c0 .177-.155.333-.333.333zm17.833-1.698c-.189 0-.334-.145-.334-.333v-1.665c0-.189.145-.333.334-.333.188 0 .333.144.333.333v1.665c0 .188-.145.333-.333.333zm-17.833-1.632c-.189 0-.333-.144-.333-.333v-1.665c0-.188.144-.333.333-.333.189 0 .333.145.333.333v1.665c0 .178-.155.333-.333.333zm17.833-1.698c-.189 0-.334-.144-.334-.333v-1.665c0-.188.145-.333.334-.333.188 0 .333.145.333.333v1.665c0 .189-.145.333-.333.333zm-17.833-1.631c-.189 0-.333-.145-.333-.333v-1.665c0-.189.144-.333.333-.333.189 0 .333.144.333.333v1.665c0 .177-.155.333-.333.333zm17.833-1.699c-.189 0-.334-.144-.334-.332v-1.665c0-.189.145-.333.334-.333.188 0 .333.144.333.333v1.665c0 .188-.145.332-.333.332zm-17.833-1.631c-.189 0-.333-.144-.333-.333v-1.432h.9c.189 0 .333.145.333.333 0 .189-.144.333-.333.333h-.234v.766c0 .178-.155.333-.333.333zm17.233-1.099h-1.667c-.189 0-.333-.144-.333-.333 0-.188.144-.333.333-.333h1.667c.189 0 .333.145.333.333 0 .189-.144.333-.333.333zm-3.334 0h-1.666c-.189 0-.333-.144-.333-.333 0-.188.144-.333.333-.333h1.666c.189 0 .334.145.334.333 0 .189-.145.333-.334.333zm-3.333 0h-1.666c-.189 0-.334-.144-.334-.333 0-.188.145-.333.334-.333h1.666c.189 0 .334.145.334.333 0 .189-.145.333-.334.333zm-3.333 0h-1.666c-.189 0-.334-.144-.334-.333 0-.188.145-.333.334-.333h1.666c.189 0 .333.145.333.333 0 .189-.144.333-.333.333zm-3.333 0h-1.667c-.189 0-.333-.144-.333-.333 0-.188.144-.333.333-.333h1.667c.189 0 .333.145.333.333 0 .189-.144.333-.333.333zM140.507 288.052c-.122 0-.233-.067-.289-.178-.089-.167-.033-.366.134-.455l1.355-.744c.033-.022.067-.033.1-.055.156-.089.367-.033.456.122.088.155.033.366-.123.455-.033.022-.066.044-.111.055l-1.355.744c-.056.044-.111.056-.167.056zm2.811-1.776c-.089 0-.178-.034-.244-.111-.123-.133-.111-.344.022-.466.389-.356.733-.766 1.033-1.199.1-.155.311-.189.467-.089.155.1.189.311.089.466-.323.478-.711.922-1.134 1.321-.077.056-.155.078-.233.078zm1.856-2.731c-.045 0-.078-.011-.123-.022-.166-.066-.255-.255-.189-.433.189-.499.323-1.01.4-1.531.023-.178.189-.311.378-.289.178.022.311.189.289.378-.078.577-.222 1.143-.433 1.687-.067.133-.189.21-.322.21zm.477-3.263c-.189 0-.333-.144-.333-.332v-1.665c0-.189.144-.333.333-.333.189 0 .334.144.334.333v1.665c0 .177-.145.332-.334.332zm0-3.329c-.189 0-.333-.144-.333-.333v-1.665c0-.189.144-.333.333-.333.189 0 .334.144.334.333v1.665c0 .177-.145.333-.334.333zm0-3.33c-.189 0-.333-.144-.333-.333v-1.665c0-.188.144-.332.333-.332.189 0 .334.144.334.332v1.665c0 .178-.145.333-.334.333zm0-3.329c-.189 0-.333-.145-.333-.333v-.167h-.833c-.189 0-.334-.144-.334-.333 0-.188.145-.333.334-.333h1.5v.833c0 .177-.145.333-.334.333zm-2.833-.5h-1.666c-.189 0-.334-.144-.334-.333 0-.188.145-.333.334-.333h1.666c.189 0 .333.145.333.333 0 .189-.155.333-.333.333zm-3.333 0h-1.667c-.189 0-.333-.144-.333-.333 0-.188.144-.333.333-.333h1.667c.189 0 .333.145.333.333 0 .189-.155.333-.333.333zm-3.333 0h-1.667c-.189 0-.333-.144-.333-.333 0-.188.144-.333.333-.333h1.667c.189 0 .333.145.333.333 0 .189-.155.333-.333.333z"/>
    <path fill="#FE5244" d="M217.937 218.842c.811 2.119-4.322 5.882-11.378 8.557-7.055 2.674-13.377 3.085-14.188.954-.811-2.131 4.2-5.971 11.266-8.646 7.067-2.674 13.489-2.996 14.3-.865z"/>
    <path fill="#73325A" d="M221.881 287.696v1.177c-.367-.089-.755-.133-1.144-.133h-1.434c-2.122 0-3.933-1.354-4.622-3.241l4.067-.544c1.655-.222 3.133 1.065 3.133 2.741z"/>
    <path fill="#A0505A" d="M225.637 293.634v9.035c0 2.108-1.711 3.817-3.822 3.817h-4.255c-1.056 0-2.011-.421-2.7-1.121-.689-.688-1.122-1.642-1.122-2.696h2.766c.911 0 1.645-.733 1.645-1.643v-2.364c0-.91-.734-1.643-1.645-1.643H202.36c-5.522 0-9.999-4.472-9.999-9.988v-59.689c.667-2.187 5.211-5.35 11.266-7.636 4.133-1.565 8.055-2.32 10.755-2.253v66.392c0 2.708 2.2 4.906 4.911 4.906h1.433c2.711-.011 4.911 2.175 4.911 4.883z"/>
    <path fill="#73325A" d="M214.382 217.442v6.038c-2.011 1.354-4.733 2.741-7.833 3.906-7.066 2.675-13.377 3.086-14.188.955v-1.01c.667-2.187 5.211-5.35 11.266-7.636 4.144-1.565 8.055-2.32 10.755-2.253z"/>
    <path fill="#A0505A" d="M195.904 172.481l-4.177 10.755-21.532 3.851 5.621-14.606h20.088z"/>
    <path fill="#73325A" d="M195.904 172.481l-2.255 5.816-21.355 3.329 3.522-9.145h20.088z"/>
    <path fill="#fff" d="M208.526 150.595c0 1.453-2.522 3.063-5.433 4.417-3.967 1.853-8.644 3.263-8.644 3.263l-3.155 5.938c4.288 2.275 5.966 6.359 6.633 9.212.422 1.82.422 3.118.422 3.118h-30.243s-7.944-25.704 11.199-31.853c11.711-3.762 29.221 2.453 29.221 5.905z"/>
    <path fill="#FFCF2D" fill-rule="evenodd" d="M198.223 145.259c-5.81-1.507-13.045-2.106-18.816-.252-4.707 1.512-7.735 4.219-9.641 7.424-1.911 3.213-2.705 6.945-2.907 10.51-.201 3.564.19 6.942.633 9.432.221 1.244.455 2.264.633 2.973.089.354.164.63.217.817l.014.047h29.647c-.007-.134-.019-.307-.039-.512-.051-.54-.155-1.305-.362-2.198-.657-2.81-2.299-6.783-6.465-8.993l-.294-.156 3.377-6.355.133-.04.032.108-.032-.108.013-.004.039-.012.154-.047c.134-.042.332-.104.581-.184.498-.161 1.204-.394 2.033-.685 1.66-.582 3.81-1.394 5.779-2.314 1.447-.673 2.781-1.402 3.748-2.135.483-.366.863-.724 1.12-1.067.257-.343.373-.648.373-.913 0-.296-.194-.689-.676-1.162-.472-.464-1.173-.958-2.071-1.455-1.794-.992-4.321-1.966-7.223-2.719zm.126 31.284h.333v.333H167.86l-.073-.235.319-.098-.319.098-.001-.005-.005-.015-.017-.057-.064-.221c-.054-.192-.131-.474-.221-.835-.182-.721-.419-1.757-.644-3.019-.448-2.522-.846-5.954-.641-9.585.205-3.63 1.015-7.477 2.999-10.813 1.988-3.343 5.146-6.156 10.01-7.718 5.94-1.908 13.316-1.281 19.188.242 2.94.762 5.522 1.754 7.378 2.78.926.513 1.684 1.041 2.216 1.563.521.512.874 1.069.874 1.637 0 .461-.199.903-.506 1.312-.307.411-.739.812-1.25 1.199-1.022.774-2.405 1.527-3.869 2.208-1.998.933-4.17 1.753-5.84 2.339-.836.293-1.547.528-2.05.69l-.587.186-.078.024-2.937 5.526c4.195 2.367 5.848 6.44 6.509 9.27.215.927.323 1.722.377 2.286.027.282.04.507.047.662.004.078.005.138.006.18l.001.048v.018h-.333z" clip-rule="evenodd"/>
    <path fill="#fff" d="M176.505 148.353c4.155 0 7.522-3.364 7.522-7.514s-3.367-7.514-7.522-7.514c-4.154 0-7.522 3.364-7.522 7.514s3.368 7.514 7.522 7.514z"/>
    <path fill="#FFCF2D" fill-rule="evenodd" d="M176.505 133.658c-3.97 0-7.188 3.215-7.188 7.181s3.218 7.181 7.188 7.181c3.97 0 7.189-3.215 7.189-7.181s-3.219-7.181-7.189-7.181zm-7.855 7.181c0-4.334 3.517-7.847 7.855-7.847 4.339 0 7.856 3.513 7.856 7.847 0 4.333-3.517 7.847-7.856 7.847-4.338 0-7.855-3.514-7.855-7.847z" clip-rule="evenodd"/>
    <path fill="#A0505A" d="M197.915 173.426c-.622-2.697-2.177-6.537-6.01-8.857h-.989c-.911 0-1.745-.366-2.345-.965-.599-.6-.966-1.432-.966-2.342 0-1.831 1.478-3.308 3.311-3.308l4.189.089h.111c.077-.022.155-.055.244-.077 1.133-.245 4.722-1.11 7.7-2.598l.344 2.054 1.111 6.581c.756 4.517-2.344 8.679-6.7 9.423z"/>
    <path fill="#73325A" d="M203.493 157.41c-3.644 1.476-8.4.621-8.4.621s4.478-.888 8.056-2.675l.344 2.054z"/>
    <path fill="#73325A" fill-rule="evenodd" d="M190.927 159.607c0-.154.124-.278.278-.278 1.42 0 2.566 1.146 2.566 2.565 0 .153-.124.277-.277.277-.154 0-.278-.124-.278-.277 0-1.113-.898-2.01-2.011-2.01-.154 0-.278-.124-.278-.277z" clip-rule="evenodd"/>
    <path fill="#66B0F0" fill-rule="evenodd" d="M217.828 409.943l-12.899-107.235.661-.079 12.9 107.235-.662.079zM136.121 409.864l12.888-107.235.662.079-12.888 107.235-.662-.079z" clip-rule="evenodd"/>
    <path fill="#66B0F0" fill-rule="evenodd" d="M213.726 373.412h-72.852v-.667h72.852v.667z" clip-rule="evenodd"/>
    <path fill="#fff" d="M138.129 302.669h78.341c.933 0 1.689-.755 1.689-1.687v-2.287c0-.932-.756-1.687-1.689-1.687h-78.341c-.933 0-1.688.755-1.688 1.687v2.287c.011.932.766 1.687 1.688 1.687z"/>
    <path fill="#FFCF2D" fill-rule="evenodd" d="M136.107 298.695c0-1.116.905-2.02 2.022-2.02h78.341c1.118 0 2.022.904 2.022 2.02v2.286c0 1.117-.904 2.02-2.022 2.02h-78.341c-1.108 0-2.008-.905-2.022-2.016V298.695zm2.022-1.354c-.749 0-1.355.606-1.355 1.354v2.284c.01.753.62 1.356 1.355 1.356h78.341c.749 0 1.356-.605 1.356-1.354v-2.286c0-.748-.607-1.354-1.356-1.354h-78.341zM283.5 77.303l4.437 4.874-.407.447-4.03-4.426-4.03 4.427-.407-.448 4.437-4.874z" clip-rule="evenodd"/>
    <path fill="#FFCF2D" fill-rule="evenodd" d="M284.387 64v14.19h-.887V64h.887z" clip-rule="evenodd"/>
    <path fill="#FFCF2D" d="M283.5 108.344c3.921 0 7.099-3.177 7.099-7.095 0-3.919-3.178-7.095-7.099-7.095-3.921 0-7.099 3.176-7.099 7.095 0 3.918 3.178 7.095 7.099 7.095z"/>
    <path fill="#fff" fill-rule="evenodd" d="M283.5 94.73c-3.603 0-6.524 2.918-6.524 6.519s2.921 6.52 6.524 6.52 6.524-2.919 6.524-6.52c0-3.6-2.921-6.52-6.524-6.52zm-7.099 6.519c0-3.919 3.178-7.095 7.099-7.095 3.921 0 7.099 3.176 7.099 7.095 0 3.918-3.178 7.095-7.099 7.095-3.921 0-7.099-3.177-7.099-7.095z" clip-rule="evenodd"/>
    <path fill="#9A3B82" fill-rule="evenodd" d="M283.505 82.338c-10.718 0-19.865 6.69-21.822 15.845l-.528 2.466h44.69l-.528-2.476c-.979-4.579-3.745-8.538-7.62-11.35h-.001c-3.866-2.813-8.838-4.485-14.191-4.485zm-22.394 15.717c2.028-9.488 11.463-16.318 22.394-16.318 5.471 0 10.562 1.709 14.531 4.596 3.979 2.888 6.84 6.97 7.854 11.712l.683 3.204h-46.146l.684-3.194z" clip-rule="evenodd"/>
    <path fill="#fff" d="M193.699 106.982c-2.318-1.868-5.709-1.506-7.575.806l-9.265 11.478c-1.865 2.312-5.257 2.675-7.571.81l-16.801-13.544c2.318 1.869 5.705 1.502 7.571-.81l9.264-11.478c1.87-2.316 5.258-2.674 7.572-.81l16.805 13.548z"/>
    <path fill="#FFCF2D" fill-rule="evenodd" d="M176.797 93.554c-2.247-1.811-5.538-1.464-7.355.787l-9.264 11.478c-1.518 1.881-4.015 2.51-6.173 1.739l15.38 12.398c2.247 1.812 5.542 1.459 7.355-.786l9.264-11.478c1.518-1.881 4.018-2.508 6.177-1.736l-15.384-12.402zm16.999 13.309L176.99 93.315c-2.379-1.918-5.864-1.55-7.787.833l-9.264 11.478c-1.813 2.245-5.103 2.602-7.355.786l-.193.24 16.801 13.544c2.379 1.918 5.868 1.545 7.787-.833l9.264-11.478c1.813-2.246 5.108-2.598 7.36-.783l.193-.239z" clip-rule="evenodd"/>
    <path fill="#fff" d="M181.557 106.999l-10.699-8.625-8.009 9.922 10.7 8.625 8.008-9.922z"/>
    <path fill="#FFCF2D" fill-rule="evenodd" d="M170.835 98.157l10.939 8.819-8.202 10.161-10.939-8.818 8.202-10.162zm.046.433l-7.815 9.683 10.46 8.432 7.815-9.683-10.46-8.432z" clip-rule="evenodd"/>
    <path fill="#FFCF2D" fill-rule="evenodd" d="M169.811 99.671l10.694 8.622-.193.239-10.695-8.621.194-.24zM168.667 101.089l10.694 8.621-.193.239-10.695-8.621.194-.239zM167.52 102.51l10.694 8.621-.193.24-10.695-8.622.194-.239zM166.377 103.926l10.694 8.621-.193.24-10.695-8.622.194-.239zM165.229 105.348l10.695 8.621-.193.239-10.695-8.621.193-.239zM164.086 106.764l10.694 8.622-.193.239-10.695-8.621.194-.24z" clip-rule="evenodd"/>
    <path fill="#66B0F0" d="M186.123 107.788c1.858-2.303 5.223-2.671 7.532-.841 2.284 1.872 2.631 5.233.772 7.535l-8.304-6.694z"/>
    <path fill="#FFCF2D" fill-rule="evenodd" d="M193.752 106.827l.001.001c2.349 1.926 2.705 5.383.794 7.751l-.096.119-8.545-6.887.097-.12c1.911-2.368 5.372-2.747 7.748-.865l.001.001zm-.193.239c-2.203-1.745-5.395-1.43-7.218.7l8.062 6.499c1.697-2.232 1.333-5.412-.844-7.199z" clip-rule="evenodd"/>
    <path fill="#FFCF2D" d="M169.222 120.196l-.019-.016-16.739-13.493-.029-.023c-1.7-1.41-2.313-3.658-1.722-5.663l16.772 13.521c-.586 2.008.027 4.256 1.737 5.674z"/>
    <path fill="#FE5244" d="M172.476 97.8l-1.935-1.56 1.252-1.552.91.734-.695.862c-.016.019-.018.041-.012.053l.001.01.479 1.453z"/>
    <path fill="#FE5244" d="M174.048 97.39l-.166.207c-.031.038-.067.073-.098.11-.008.01-.024.02-.032.03-.02.016-.036.035-.056.05-.265.221-.597.31-.859.232l-.055-.02c-.032-.01-.064-.028-.092-.043-.01-.008-.023-.01-.033-.018l-.521-1.598c.145-.16.359-.209.483-.109l1.433 1.155-.004.005zM185.166 105.468l-1.252 1.551-1.936-1.56 1.518.157.009-.001c.009-.001.009-.001.014.003.003-.005.008-.001.012-.006 0 0 .004-.005.009-.001.004-.005.004-.005.008-.001l.004-.005.008-.009.696-.862.91.734z"/>
    <path fill="#FE5244" d="M183.484 105.495l-1.673-.171-.075-.084c-.005-.013-.015-.02-.021-.033l-.026-.045c-.006-.013-.017-.029-.022-.042-.083-.201-.08-.459.016-.706.014-.036.027-.073.046-.105.002-.014.014-.028.021-.046.041-.07.081-.14.135-.207l.166-.206 1.438 1.158c.123.092.12.311-.005.487z"/>
    <path fill="#FE5244" d="M184.793 103.872l-1.089 1.349c-.002-.017 0-.039-.002-.056-.003-.035-.011-.065-.019-.094-.024-.068-.062-.129-.114-.172l-10.877-8.768c-.057-.046-.125-.07-.192-.076-.031 0-.061-.002-.096.002-.017.002-.034.004-.056.01l1.09-1.35c.147-.181.368-.24.502-.132l10.877 8.768c.129.104.119.342-.024.519z"/>
    <path fill="#FFCF2D" fill-rule="evenodd" d="M584.593 343.729c-.218-2.754-3.309-4.262-5.617-2.737l-1.858 1.23-.194-.293 1.858-1.23c2.532-1.672 5.922-.018 6.161 3.002l.405 5.113c.212 2.676 3.158 4.201 5.466 2.832l1.172-.697.179.302-1.172.697c-2.532 1.501-5.763-.171-5.996-3.106l-.404-5.113z" clip-rule="evenodd"/>
    <path fill="#9A3B82" d="M550.024 323.084l23.868 13.844 12.019 26.969-13.789-9.282-14.984-17.546-7.114-13.985z"/>
    <path fill="#FFCF2D" fill-rule="evenodd" d="M574.323 336.419L550 322.304l.177-.304 24.421 14.172 12.3 27.589-.322.143-12.253-27.485z" clip-rule="evenodd"/>
    <path fill="#fff" d="M571.873 355.21c1.115-.941-1.391-5.741-5.598-10.721s-8.522-8.254-9.637-7.313c-1.115.941 1.391 5.741 5.598 10.721s8.522 8.254 9.637 7.313z"/>
    <path fill="#fff" d="M571.195 355.498c1.093-.923-1.365-5.629-5.491-10.513-4.125-4.883-8.356-8.094-9.449-7.172-1.093.922 1.366 5.629 5.491 10.512 4.126 4.884 8.356 8.095 9.449 7.173z"/>
    <path fill="#FFCF2D" fill-rule="evenodd" d="M557.174 341.516c.987 1.89 2.626 4.279 4.684 6.715 2.058 2.436 4.139 4.451 5.838 5.741.851.646 1.599 1.104 2.196 1.345.299.12.553.183.758.191.205.008.35-.038.451-.122.1-.085.17-.221.196-.423.026-.204.007-.464-.062-.779-.137-.629-.464-1.443-.958-2.389-.988-1.891-2.627-4.279-4.685-6.715s-4.139-4.452-5.838-5.741c-.851-.646-1.599-1.105-2.196-1.345-.299-.121-.553-.184-.758-.192-.204-.008-.35.038-.45.123-.101.084-.17.22-.197.423-.026.204-.007.464.062.779.137.628.464 1.443.959 2.389zm-1.311-3.206c.032-.25.125-.463.298-.609.173-.146.398-.201.651-.191.251.01.539.085.855.212.633.255 1.405.731 2.264 1.383 1.721 1.307 3.818 3.338 5.885 5.786 2.068 2.447 3.721 4.854 4.721 6.768.499.956.839 1.797.985 2.463.072.332.098.629.065.878-.032.251-.125.464-.297.61-.173.145-.399.201-.651.191-.252-.01-.54-.085-.856-.212-.632-.255-1.404-.732-2.264-1.384-1.721-1.306-3.817-3.338-5.885-5.785-2.067-2.448-3.72-4.854-4.72-6.769-.5-.956-.84-1.796-.985-2.462-.073-.333-.098-.629-.066-.879z" clip-rule="evenodd"/>
    <path fill="#FFCF2D" d="M574.103 353.314l-2.274 1.915c.422-.357.328-1.259-.182-2.518-.838-2.073-2.801-5.101-5.414-8.205-2.62-3.098-5.28-5.54-7.185-6.712-1.154-.714-2.033-.96-2.455-.603l2.274-1.915c1.113-.943 5.625 2.138 9.833 7.122 4.207 4.983 6.522 9.979 5.403 10.916zM598.393 345.988c.644-.311 1.271-.586 1.875-.814.357.374.668.814.908 1.306.24.491.393 1.007.463 1.516-.557.328-1.16.656-1.799.967-3.205 1.552-6.124 2.143-6.522 1.323-.405-.826 1.869-2.746 5.075-4.298z"/>
    <path fill="#9A3B82" fill-rule="evenodd" d="M592.732 350.158c-.295 0-.533.238-.533.533 0 .294.238.533.533.533.294 0 .533-.239.533-.533 0-.295-.239-.533-.533-.533zm-.885.533c0-.489.396-.885.885-.885.488 0 .885.396.885.885s-.397.885-.885.885c-.489 0-.885-.396-.885-.885z" clip-rule="evenodd"/>
    <path fill="#66B0F0" fill-rule="evenodd" d="M48.914 329.218l-1.607-1.039.18-.278 1.619 1.047.005.004c.47.363.632 1.018.58 1.822-.052.81-.323 1.818-.777 2.952-.909 2.27-2.566 5.081-4.755 7.899-2.188 2.821-4.5 5.125-6.474 6.57-.986.721-1.895 1.234-2.667 1.486-.766.251-1.44.258-1.91-.106l-.007-.005-.801-.756.228-.241.789.745c.337.256.87.286 1.598.049.726-.237 1.602-.728 2.575-1.439 1.942-1.422 4.233-3.702 6.407-6.505 2.175-2.801 3.815-5.586 4.71-7.82.447-1.118.704-2.089.753-2.851.05-.764-.113-1.272-.446-1.534z" clip-rule="evenodd"/>
    <path fill="#66B0F0" d="M25.002 354.224l18.308-16.746L49.712 318l-19.54 17.745-5.169 18.479z"/>
    <path fill="#FE5244" fill-rule="evenodd" d="M50.547 318.086c.087.028.135.122.106.209l-6.514 19.828-19.958 18.255c-.068.061-.173.057-.235-.011-.061-.067-.057-.172.01-.234l19.895-18.196 6.487-19.746c.029-.087.123-.134.21-.105zM17.106 353.922l17.386-16.619.229.24-17.386 16.619c-.963.918-2.536.05-2.265-1.257l.486-2.357c.19-.917-.851-1.587-1.607-1.036l-5.744 4.178-.195-.267 5.744-4.179m2.126 1.371c.252-1.213-1.126-2.1-2.126-1.371l2.126 1.371zm0 0l-.486 2.357c-.204.989.984 1.644 1.712.951v-.001" clip-rule="evenodd"/>
    <path fill="#FFCF2D" d="M3.43 359.506c-.514.431-1.028.828-1.525 1.176-.414-.259-.795-.585-1.132-.982-.331-.398-.59-.828-.773-1.281.43-.43.906-.866 1.42-1.302 2.568-2.159 5.097-3.378 5.655-2.716.552.662-1.077 2.947-3.645 5.105z"/>
    <path fill="#FE5244" fill-rule="evenodd" d="M7.572 353.457c-.278 0-.503.225-.503.503 0 .277.225.502.503.502.277 0 .502-.225.502-.502 0-.278-.225-.503-.502-.503zm-.834.503c0-.461.373-.834.834-.834.46 0 .834.373.834.834 0 .46-.374.834-.834.834-.46 0-.834-.374-.834-.834z" clip-rule="evenodd"/>
    <path fill="#FFCF2D" fill-rule="evenodd" d="M511.539 41.199l-2.222-4.874.401-.183 2.252 4.937.004.035c.228 1.938-1.154 3.687-3.092 3.922h-.001c-1.696.2-2.906 1.736-2.706 3.433l.323 2.721-.438.052-.324-2.722c-.227-1.937 1.154-3.694 3.093-3.922 1.686-.205 2.89-1.717 2.71-3.399z" clip-rule="evenodd"/>
    <path fill="#FE5244" d="M535.409 20.472l11.79-18.388-40.552-.323-13.284 35.349 21.932-1.03 20.114-15.608z"/>
    <path fill="#FFCF2D" fill-rule="evenodd" d="M505.134 0l42.554.48-.005.441-42.246-.476L491.413 37.4l-.413-.156L505.134 0z" clip-rule="evenodd"/>
    <path fill="#66B0F0" d="M534.681 17.713c2.355 4.038-1.649 10.76-8.95 15.012-7.301 4.251-15.124 4.42-17.479.383-.324-.552-.523-1.148-.619-1.788-.588-4.038 3.261-9.554 9.568-13.224 6.307-3.67 13.005-4.303 16.228-1.802.508.397.928.867 1.252 1.42z"/>
    <path fill="#fff" fill-rule="evenodd" d="M526.495 15.1c-2.831.3-6.052 1.365-9.183 3.186-3.13 1.822-5.645 4.098-7.301 6.412-1.66 2.32-2.442 4.65-2.159 6.59.092.615.282 1.183.59 1.708 1.119 1.918 3.562 2.876 6.69 2.808 3.119-.068 6.864-1.16 10.488-3.27 3.624-2.11 6.421-4.829 8.017-7.508 1.601-2.686 1.971-5.284.853-7.201-.309-.527-.71-.977-1.196-1.358-1.549-1.2-3.962-1.668-6.799-1.367zm-.047-.439c2.895-.307 5.442.159 7.117 1.458.529.414.967.906 1.306 1.482 1.237 2.12.783 4.904-.854 7.651-1.642 2.755-4.498 5.523-8.175 7.664-3.676 2.14-7.494 3.26-10.7 3.33-3.199.07-5.844-.907-7.081-3.027-.339-.578-.547-1.201-.646-1.866v-.001c-.306-2.098.543-4.544 2.237-6.91 1.697-2.372 4.261-4.689 7.438-6.537 3.177-1.849 6.458-2.936 9.358-3.244z" clip-rule="evenodd"/>
    <path fill="#fff" fill-rule="evenodd" d="M525.927 11.776c-3.127.069-6.878 1.162-10.503 3.272-3.628 2.113-6.43 4.836-8.03 7.52-1.604 2.692-1.981 5.305-.853 7.24l.915 1.569-.005-.032.182-.025-.182.026c-.3-2.084.543-4.52 2.233-6.883 1.694-2.366 4.251-4.68 7.425-6.526 3.173-1.847 6.448-2.932 9.343-3.24 2.89-.306 5.426.16 7.09 1.451h.001l.024.02-.915-1.57c-1.128-1.934-3.59-2.892-6.725-2.822zm8.912 5.844l-1.869-3.206c-1.227-2.104-3.858-3.077-7.051-3.006-3.2.07-7.011 1.187-10.68 3.322-3.672 2.138-6.523 4.902-8.161 7.65-1.634 2.743-2.081 5.51-.855 7.613l1.854 3.18.016.028.318-.186h-.001l-.014-.026c-.303-.523-.497-1.087-.58-1.694-.282-1.954.506-4.295 2.168-6.618 1.659-2.319 4.175-4.599 7.31-6.422 3.134-1.824 6.361-2.89 9.197-3.192 2.842-.302 5.266.166 6.825 1.376.491.383.894.837 1.206 1.367l.318-.185h-.001z" clip-rule="evenodd"/>
    <path fill="#FFCF2D" d="M505.646 61.131c-.287.846-.596 1.655-.92 2.398-.655-.008-1.317-.118-1.965-.339-.655-.22-1.244-.53-1.773-.919.191-.787.426-1.618.713-2.464 1.428-4.237 3.46-7.37 4.549-7.01 1.089.368.817 4.097-.604 8.334z"/>
    <path fill="#66B0F0" fill-rule="evenodd" d="M506.397 51.253c-.37 0-.67.3-.67.67 0 .37.3.67.67.67.37 0 .67-.3.67-.67 0-.37-.3-.67-.67-.67zm-1.111.67c0-.614.497-1.111 1.111-1.111s1.111.497 1.111 1.111-.497 1.111-1.111 1.111-1.111-.497-1.111-1.111z" clip-rule="evenodd"/>
    <path fill="#FFCF2D" d="M58.835 57.976c.69-.74 1.379-1.428 2.06-2.042.664.307 1.295.73 1.868 1.261.565.532 1.038 1.13 1.396 1.768-.565.722-1.196 1.461-1.886 2.2-3.438 3.694-6.985 5.976-7.94 5.096-.947-.88 1.063-4.59 4.502-8.283z"/>
    <path fill="#66B0F0" d="M34.7 87.226l-1.097.68c-3.978 2.466-11.727-2.838-17.3-11.844-5.582-9.006-6.877-18.294-2.907-20.759l1.13-.697 6.718 19.755L34.7 87.225z"/>
    <path fill="#66B0F0" d="M45.828 97.876L34.7 87.226 21.236 74.353l-6.719-19.747-6.005-17.654L36.477 59.47l9.352 38.406z"/>
    <path fill="#fff" fill-rule="evenodd" d="M8 36.219l28.699 23.11 9.573 39.316-11.745-11.239L21.02 74.49 14.28 54.686 8 36.219zm1.024 1.464l5.729 16.843 6.7 19.688L34.87 87.047l10.514 10.06-9.13-37.495-27.23-21.928z" clip-rule="evenodd"/>
    <path fill="#9A3B82" fill-rule="evenodd" d="M9.256 36l28.381 22.34 9.306 38.422-.485.118-9.265-38.256L8.948 36.391 9.256 36z" clip-rule="evenodd"/>
    <path fill="#FFCF2D" fill-rule="evenodd" d="M41.413 67.812c-.84-2.614-3.56-4.143-6.24-3.494-2.823.682-4.56 3.527-3.878 6.349l-.484.117c-.747-3.089 1.154-6.203 4.245-6.95 2.934-.71 5.912.963 6.832 3.827v.001l2.335 7.53c1.21 3.918 6.859 3.616 7.648-.414l1.346-6.914.489.095-1.346 6.914c-.888 4.536-7.249 4.881-8.613.466m0 0l-2.333-7.526v-.001" clip-rule="evenodd"/>
    <path fill="#66B0F0" fill-rule="evenodd" d="M53.777 66.343c-.418 0-.756.338-.756.755 0 .418.338.756.756.756.417 0 .756-.338.756-.755 0-.418-.339-.756-.756-.756zm-1.254.755c0-.692.561-1.254 1.254-1.254.692 0 1.254.562 1.254 1.255 0 .692-.562 1.254-1.254 1.254-.693 0-1.254-.562-1.254-1.254z" clip-rule="evenodd"/>
</svg>
