<svg xmlns="http://www.w3.org/2000/svg" width="96" height="116" fill="none" viewBox="0 0 96 116">
    <path fill="#FE5244" d="M75.483 103.604c0 2.484-.458 4.869-1.298 7.081-1.225 3.213-4.328 5.313-7.778 5.313H40.231c-3.437 0-6.553-2.1-7.765-5.313-.84-2.212-1.298-4.597-1.298-7.081 0-7.167 3.796-13.494 9.595-17.275v-4.177c0 1.83 5.626 3.312 12.55 3.312 6.937 0 12.55-1.483 12.55-3.312v4.19c5.824 3.768 9.62 10.095 9.62 17.262z"/>
    <path fill="#fff" d="M65.888 85.191v1.113c-1.99 1.582-7.407 2.422-12.55 2.422-5.144 0-10.56-.84-12.55-2.422V85.19c.235.532 1.236 1.224 3.462 1.805 2.423.643 5.65.989 9.088.989 3.437 0 6.664-.346 9.088-.99 2.225-.593 3.215-1.285 3.462-1.804z"/>
    <path fill="#66B0F0" d="M65.888 82.151c0 1.83-5.626 3.312-12.55 3.312s-12.55-1.483-12.55-3.312c0-.234.086-.457.26-.68 1.186-1.495 6.231-2.631 12.29-2.631 6.059 0 11.103 1.124 12.29 2.632.161.222.26.445.26.68z"/>
    <path fill="#FFCF2D" fill-rule="evenodd" d="M36.534 95.559c-.669 0-1.212.542-1.212 1.21 0 .67.543 1.212 1.212 1.212.67 0 1.212-.542 1.212-1.211s-.543-1.211-1.212-1.211zm-1.953 1.21c0-1.078.874-1.952 1.953-1.952 1.08 0 1.954.875 1.954 1.953s-.875 1.952-1.954 1.952-1.953-.874-1.953-1.952zM41.9 99.451c-.669 0-1.211.542-1.211 1.211s.542 1.211 1.211 1.211c.67 0 1.212-.542 1.212-1.211s-.542-1.21-1.212-1.21zm-1.953 1.211c0-1.078.874-1.952 1.953-1.952 1.08 0 1.954.874 1.954 1.952 0 1.079-.875 1.953-1.954 1.953-1.078 0-1.953-.874-1.953-1.953zM48.577 94.83c-.669 0-1.211.542-1.211 1.21 0 .67.542 1.212 1.211 1.212.67 0 1.212-.542 1.212-1.211 0-.67-.542-1.211-1.212-1.211zm-1.953 1.21c0-1.078.874-1.952 1.953-1.952 1.08 0 1.954.874 1.954 1.953 0 1.078-.875 1.952-1.954 1.952s-1.953-.874-1.953-1.952zM47.638 105.333c-.67 0-1.212.542-1.212 1.211s.542 1.211 1.212 1.211c.669 0 1.211-.542 1.211-1.211s-.542-1.211-1.211-1.211zm-1.954 1.211c0-1.078.875-1.952 1.954-1.952s1.953.874 1.953 1.952c0 1.078-.874 1.953-1.953 1.953-1.08 0-1.954-.875-1.954-1.953zM41.703 109.942c-.67 0-1.212.543-1.212 1.211 0 .669.542 1.211 1.212 1.211.669 0 1.211-.542 1.211-1.211 0-.668-.542-1.211-1.211-1.211zm-1.954 1.211c0-1.078.875-1.952 1.954-1.952s1.953.874 1.953 1.952c0 1.079-.874 1.953-1.953 1.953-1.08 0-1.954-.874-1.954-1.953zM35.718 105.333c-.67 0-1.212.542-1.212 1.211s.543 1.211 1.212 1.211c.67 0 1.212-.542 1.212-1.211s-.543-1.211-1.212-1.211zm-1.954 1.211c0-1.078.875-1.952 1.954-1.952 1.08 0 1.954.874 1.954 1.952 0 1.078-.875 1.953-1.954 1.953s-1.954-.875-1.954-1.953zM42.766 89.69c-.67 0-1.212.541-1.212 1.21 0 .669.543 1.211 1.212 1.211.67 0 1.212-.542 1.212-1.21 0-.67-.543-1.212-1.212-1.212zm-1.954 1.21c0-1.078.875-1.952 1.954-1.952s1.954.874 1.954 1.952c0 1.078-.875 1.953-1.954 1.953s-1.954-.874-1.954-1.953zM55.366 90.888c-.67 0-1.212.543-1.212 1.212 0 .668.542 1.21 1.212 1.21.669 0 1.211-.542 1.211-1.21 0-.67-.542-1.212-1.211-1.212zM53.412 92.1c0-1.079.875-1.953 1.954-1.953s1.953.874 1.953 1.953c0 1.078-.874 1.952-1.953 1.952-1.08 0-1.954-.874-1.954-1.953zM54.043 100.477c-.67 0-1.212.542-1.212 1.211s.542 1.211 1.212 1.211c.669 0 1.211-.542 1.211-1.211s-.542-1.211-1.211-1.211zm-1.954 1.211c0-1.078.875-1.953 1.954-1.953 1.078 0 1.953.875 1.953 1.953s-.875 1.952-1.953 1.952c-1.08 0-1.954-.874-1.954-1.952zM58.617 106.779c-.669 0-1.211.542-1.211 1.211s.542 1.211 1.212 1.211c.669 0 1.211-.542 1.211-1.211s-.542-1.211-1.212-1.211zm-1.953 1.211c0-1.078.874-1.952 1.953-1.952 1.08 0 1.954.874 1.954 1.952 0 1.078-.875 1.952-1.953 1.952-1.08 0-1.954-.874-1.954-1.952zM52.682 111.524c-.669 0-1.211.542-1.211 1.211s.542 1.211 1.212 1.211c.669 0 1.211-.542 1.211-1.211s-.542-1.211-1.212-1.211zm-1.953 1.211c0-1.078.874-1.952 1.953-1.952 1.08 0 1.954.874 1.954 1.952 0 1.078-.875 1.953-1.954 1.953s-1.953-.875-1.953-1.953zM60.312 96.696c-.67 0-1.212.542-1.212 1.21 0 .67.542 1.212 1.212 1.212.669 0 1.211-.543 1.211-1.211 0-.67-.542-1.211-1.212-1.211zm-1.954 1.21c0-1.078.875-1.952 1.954-1.952 1.078 0 1.953.874 1.953 1.953 0 1.078-.875 1.952-1.953 1.952-1.08 0-1.954-.874-1.954-1.952zM64.899 90.209c-.67 0-1.212.542-1.212 1.21 0 .67.543 1.212 1.212 1.212.669 0 1.212-.543 1.212-1.212 0-.668-.543-1.21-1.212-1.21zm-1.954 1.21c0-1.078.875-1.952 1.954-1.952s1.953.874 1.953 1.953c0 1.078-.874 1.952-1.953 1.952-1.08 0-1.954-.874-1.954-1.953zM70.117 95.46c-.67 0-1.212.542-1.212 1.21 0 .67.542 1.212 1.212 1.212.669 0 1.211-.542 1.211-1.211s-.542-1.211-1.211-1.211zm-1.954 1.21c0-1.077.875-1.951 1.954-1.951s1.953.874 1.953 1.952c0 1.078-.874 1.952-1.953 1.952-1.08 0-1.954-.874-1.954-1.952zM64.144 100.638c-.669 0-1.211.542-1.211 1.211 0 .668.542 1.211 1.211 1.211.67 0 1.212-.543 1.212-1.211 0-.669-.542-1.211-1.212-1.211zm-1.953 1.211c0-1.079.875-1.953 1.953-1.953 1.08 0 1.954.874 1.954 1.953 0 1.078-.874 1.952-1.954 1.952-1.078 0-1.953-.874-1.953-1.952zM71.291 103.949c-.669 0-1.211.542-1.211 1.211s.542 1.211 1.211 1.211c.67 0 1.212-.542 1.212-1.211s-.543-1.211-1.212-1.211zm-1.953 1.211c0-1.078.874-1.952 1.953-1.952 1.08 0 1.954.874 1.954 1.952 0 1.079-.875 1.953-1.954 1.953s-1.953-.875-1.953-1.953zM66.481 110.029c-.669 0-1.211.542-1.211 1.211s.542 1.211 1.212 1.211c.669 0 1.211-.542 1.211-1.211s-.542-1.211-1.212-1.211zm-1.953 1.211c0-1.078.874-1.953 1.953-1.953 1.08 0 1.954.875 1.954 1.953s-.875 1.952-1.954 1.952c-1.078 0-1.953-.874-1.953-1.952z" clip-rule="evenodd"/>
    <path fill="#fff" d="M81.06 62.9s11.746-6.34 13.687 4.732c2.25 12.79-13.032 24.047-13.032 24.047s-3.29-8.144-12.105-15.163C61.98 70.45 68.31 54.36 81.06 62.9z"/>
    <path fill="#FFCF2D" fill-rule="evenodd" d="M68.011 64.42c-2.146 3.587-1.812 8.91 1.83 11.806 4.445 3.54 7.496 7.361 9.437 10.3.97 1.469 1.664 2.718 2.115 3.602.207.403.362.73.471.968.079-.062.17-.133.27-.215.41-.329.992-.814 1.686-1.437 1.387-1.246 3.212-3.038 4.965-5.225 3.52-4.388 6.694-10.29 5.597-16.523-.473-2.697-1.531-4.279-2.806-5.171-1.28-.898-2.837-1.139-4.377-1.041-1.54.097-3.031.53-4.144.945-.555.207-1.013.407-1.33.555-.159.074-.282.135-.366.177l-.094.049-.023.012-.005.003h-.001l-.197.106-.186-.124c-3.132-2.098-5.822-2.652-7.969-2.27-2.145.38-3.808 1.704-4.873 3.484zm13.072-1.95c-3.168-2.074-5.986-2.68-8.328-2.264-2.39.424-4.223 1.9-5.38 3.834-2.3 3.841-1.984 9.596 2.004 12.767 4.37 3.48 7.372 7.239 9.28 10.127.953 1.444 1.633 2.669 2.074 3.531.22.431.38.772.485 1.003.053.116.091.204.117.263l.028.066.006.016.002.004.179.444.385-.284-.22-.298.22.298.003-.002.01-.007.034-.026.13-.099c.113-.087.279-.216.488-.384.418-.337 1.011-.83 1.716-1.463 1.407-1.265 3.263-3.086 5.048-5.313 3.56-4.438 6.902-10.56 5.748-17.115-.497-2.839-1.635-4.617-3.11-5.65-1.467-1.028-3.211-1.278-4.85-1.175-1.64.104-3.206.563-4.356.991-.577.215-1.053.423-1.385.578l-.328.158z" clip-rule="evenodd"/>
    <path fill="#FFCF2D" d="M58 48.8c5.576.05 13.588-11.27 6.02-23.688C54.884 10.111 53.314 1.424 53.314 1.424S39.873 19.193 42.16 32.823C44.67 47.75 58 48.8 58 48.8z"/>
    <path fill="#fff" d="M58.964 41.262c8.148 2.15 15.888-2.805 16.05-14.1C75.297 7.195 79.08.695 79.08.695s-25.385 9.132-29.23 23.318c-3.66 13.518 9.113 17.25 9.113 17.25z"/>
    <path fill="#FFCF2D" fill-rule="evenodd" d="M79.081.694l-.126-.35.959-.344-.512.88-.001.002-.007.01-.028.053c-.025.048-.064.123-.114.227-.1.208-.245.532-.42.984-.353.904-.83 2.324-1.317 4.37-.975 4.09-1.99 10.68-2.131 20.642-.082 5.731-2.09 9.91-5.168 12.375-3.078 2.465-7.175 3.178-11.347 2.077l-.005-.001-.004-.001.104-.356c-.104.356-.105.356-.105.355h-.003l-.009-.003-.03-.01c-.026-.007-.064-.02-.112-.035-.097-.033-.237-.08-.413-.147-.352-.132-.848-.335-1.43-.622-1.164-.572-2.681-1.481-4.084-2.826-1.404-1.347-2.697-3.133-3.402-5.456-.705-2.326-.814-5.165.117-8.603.985-3.634 3.341-6.92 6.288-9.797 2.949-2.878 6.51-5.367 9.938-7.404 3.43-2.038 6.736-3.63 9.186-4.71 1.225-.542 2.236-.956 2.941-1.235.353-.14.63-.245.818-.316.095-.036.167-.063.216-.08l.056-.021.014-.005.005-.002.126.349zm-20.017 40.21c3.975 1.048 7.82.358 10.688-1.94 2.869-2.297 4.811-6.244 4.89-11.807.143-10.007 1.162-16.651 2.15-20.803.495-2.076.982-3.529 1.348-4.467.076-.195.147-.368.211-.52-.073.029-.15.06-.232.091-.697.276-1.7.687-2.914 1.223-2.431 1.074-5.71 2.652-9.107 4.67-3.399 2.02-6.906 4.474-9.798 7.298-2.895 2.825-5.153 6-6.091 9.46-.899 3.32-.784 6.016-.123 8.193.66 2.179 1.874 3.86 3.206 5.137 1.332 1.277 2.78 2.146 3.897 2.696.558.274 1.031.468 1.364.593.166.062.296.108.385.137l.1.032.024.007h.002z" clip-rule="evenodd"/>
    <path fill="#FFCF2D" d="M24.911 54.41c-.296.025-.606.05-.94.074-17.532 1.31-22.577 17.35-22.577 17.35S.318 70.671.54 66.655c.42-10.356 9.953-21.057 20.834-14.26 1.212.766 2.399 1.42 3.536 2.014z"/>
    <path fill="#fff" d="M44.794 58.352c-3.091.197-10.152 1.05-19.883-3.942-1.137-.581-2.324-1.248-3.536-2.014C10.495 45.599 1.208 56.3.788 66.656c-.025.506.099 1.013.124 1.507C-.115 59.167-.09 36.776 27.149 37.53c18.72.544 17.645 20.822 17.645 20.822z"/>
    <path fill="#FFCF2D" fill-rule="evenodd" d="M.467 67.489c.024.247.05.486.076.716l.739-.06c-.01-.212-.038-.428-.064-.629l-.014-.11c-.016-.159-.031-.322-.046-.488-.003-.083-.004-.164 0-.244v-.003c.207-5.085 2.593-10.247 6.239-13.293 1.818-1.52 3.942-2.507 6.262-2.708 2.317-.202 4.858.378 7.519 2.04 1.221.772 2.418 1.444 3.565 2.03 9.255 4.748 16.134 4.26 19.494 4.021l.58-.04.33-.02.017-.33-.37-.02.37.02v-.005l.001-.012.002-.046.005-.176c.004-.153.006-.375.002-.657-.007-.565-.038-1.37-.136-2.337-.194-1.932-.65-4.52-1.702-7.132-1.053-2.612-2.708-5.258-5.304-7.285-2.6-2.031-6.12-3.424-10.872-3.562-6.86-.19-12.04 1.077-15.927 3.25-3.89 2.176-6.464 5.245-8.135 8.617C.053 55.175.01 62.334.418 66.969c.008.17.026.335.045.49l.004.03zm.511-4.751c.96-3.895 3.068-7.526 5.943-9.929 1.915-1.6 4.18-2.661 6.674-2.878 2.497-.217 5.197.414 7.977 2.15l.001.001c1.202.76 2.379 1.422 3.507 1.998 9.074 4.654 15.786 4.178 19.11 3.942l.242-.017c.002-.136.003-.31 0-.521-.007-.546-.037-1.33-.132-2.272-.19-1.887-.634-4.402-1.652-6.929-1.019-2.525-2.605-5.05-5.073-6.978-2.463-1.924-5.828-3.27-10.436-3.404-6.76-.188-11.798 1.062-15.544 3.156-3.743 2.093-6.22 5.042-7.832 8.298-2.16 4.36-2.77 9.269-2.785 13.383z" clip-rule="evenodd"/>
    <path fill="#FFCF2D" fill-rule="evenodd" d="M49.615 81.522l-.37-.026-.37-.026v-.007l.002-.023.006-.093.017-.368c.013-.324.026-.8.028-1.403.003-1.208-.041-2.929-.23-4.976-.376-4.098-1.33-9.49-3.63-14.691-2.3-5.2-5.939-10.197-11.684-13.536-5.745-3.338-13.633-5.041-24.473-3.582l-.099-.735c10.966-1.476 19.028.238 24.944 3.676 5.915 3.437 9.646 8.574 11.99 13.877 2.345 5.3 3.31 10.777 3.691 14.923.191 2.074.236 3.819.233 5.046-.002.613-.016 1.098-.029 1.43-.006.166-.013.294-.018.38l-.006.1-.001.025V81.522zM57.233 51.567C59.39 34.844 64.995 14.546 78.816.435l.53.518C65.693 14.893 60.12 34.996 57.968 51.662c-.919 7.12-1.211 13.602-1.245 18.689 1.212-5.908 3.93-11.053 7.278-14.172 2.686-2.5 5.827-3.738 8.942-2.922 3.106.813 6.056 3.635 8.442 8.96.735 1.636 1.13 4.313 1.324 7.354.194 3.057.188 6.536.094 9.811-.095 3.277-.278 6.356-.437 8.615-.08 1.13-.153 2.056-.207 2.699-.026.322-.048.573-.064.743l-.012.142-.011.12-.37-.034-.369-.035v-.001l.002-.015.004-.05.017-.192c.016-.17.037-.42.064-.74.054-.64.127-1.562.206-2.689.159-2.253.341-5.321.435-8.584.094-3.265.1-6.718-.093-9.743-.193-3.041-.585-5.596-1.26-7.098-2.343-5.23-5.159-7.815-7.953-8.546-2.784-.73-5.673.35-8.248 2.748-4.237 3.946-7.481 11.35-7.712 19.403.039 1.195.088 2.213.135 3.029.043.746.084 1.324.115 1.715l.036.443.01.112.003.028v.008l-.368.037.369-.036-.736.088c-.26-1.816-.356-3.631-.306-5.417-.032-.99-.057-2.098-.069-3.313-.05-5.396.169-12.884 1.249-21.252z" clip-rule="evenodd"/>
</svg>
