<svg xmlns="http://www.w3.org/2000/svg" width="64" height="91" fill="none" viewBox="0 0 64 91">
    <path fill="#9A3B82" d="M29.366 61.489l-.437.28-15.87-24.436-4.774.364c-1.02.083-1.83-.842-1.623-1.85.219-.998 1.331-1.518 2.236-1.019l3.921 2.152-2.88-4.449-4.775.374c-1.019.084-1.83-.852-1.612-1.85.219-.998 1.332-1.517 2.236-1.018l3.921 2.14-2.88-4.448-4.774.374c-1.02.083-1.83-.852-1.612-1.85.218-.998 1.33-1.517 2.236-1.018l3.92 2.151-1.736-2.671-3.224-2.755c-.78-.665-.697-1.891.156-2.453.863-.56 2.017-.135 2.309.853L5.3 24.424l1.789 2.754-.375-4.573c-.083-1.019.843-1.83 1.841-1.622.998.208 1.518 1.33 1.03 2.225l-2.31 4.261 2.923 4.5-.374-4.562c-.083-1.019.842-1.83 1.84-1.622 1 .208 1.52 1.33 1.03 2.225l-2.309 4.261 2.923 4.5-.374-4.562c-.084-1.019.842-1.84 1.84-1.622.999.208 1.519 1.33 1.03 2.225l-2.309 4.261L29.366 61.49z"/>
    <path fill="#9A3B82" d="M56.033 52.851c-7.624 15.352-17.92 26.027-24.004 25.289-.5-.062-.968-.198-1.404-.416-5.783-2.868-3.786-18.657 4.472-35.267 3.536-7.12 7.644-13.22 11.638-17.659 5.335-5.914 10.463-8.856 13.77-7.213 5.783 2.868 3.775 18.657-4.472 35.266z"/>
    <path fill="#FFCF2D" d="M46.485 40.722C44.79 60.179 38.56 75.874 32.04 78.14c-.5-.062-.967-.198-1.404-.416-5.783-2.868-3.786-18.657 4.472-35.267 3.536-7.12 7.645-13.22 11.638-17.659.291 4.896.229 10.29-.26 15.924z"/>
    <path fill="#FFCF2D" fill-rule="evenodd" d="M31.757 78.008l28.466-60.556.564.265-28.465 60.556-.565-.265z" clip-rule="evenodd"/>
    <path fill="#FFCF2D" d="M59.964 62.487l-4.025 1.35-2.683 1.882 4.555-.54c1.02-.125 1.862.769 1.696 1.777-.177 1.008-1.27 1.57-2.195 1.112l-4.347-2.151-4.4 3.087 4.556-.54c1.019-.126 1.861.768 1.695 1.777-.177 1.008-1.269 1.57-2.195 1.112L48.274 69.2l-4.389 3.087 4.556-.54c1.019-.125 1.861.769 1.684 1.777-.176 1.008-1.268 1.57-2.194 1.112l-4.347-2.151-8.04 5.644h-.905l8.664-6.08-.541-4.75c-.114-1.02.78-1.861 1.789-1.685 1.009.177 1.56 1.279 1.102 2.193l-2.007 4.002 4.337-3.045-.54-4.75c-.115-1.019.78-1.861 1.788-1.684 1.009.176 1.56 1.278 1.102 2.193l-1.996 3.991 4.336-3.045-.54-4.75c-.115-1.019.78-1.86 1.789-1.684 1.008.176 1.56 1.278 1.102 2.193l-2.007 4.002 2.61-1.83 2.631-3.326c.635-.8 1.873-.769 2.455.073.614.842.229 2.016-.749 2.339z"/>
    <path fill="#fff" d="M27.338 77.33c-.52.176-1.071.3-1.633.374-6.552.852-15.6-5.26-21.071-14.542C-1.305 53.08-.764 43.082 5.84 40.815c2.143-.738 4.67-.56 7.291.354 5.47 1.902 11.399 6.995 15.414 13.803 5.928 10.092 5.387 20.092-1.207 22.357z"/>
    <path fill="#FFCF2D" fill-rule="evenodd" d="M13.028 41.463c-2.578-.9-5.03-1.061-7.086-.353-3.144 1.078-4.883 4.002-5.097 7.964-.214 3.967 1.11 8.927 4.058 13.93 2.713 4.604 6.312 8.418 10.037 10.972 3.733 2.56 7.555 3.83 10.725 3.418.543-.07 1.073-.19 1.572-.36 3.138-1.078 4.874-4.001 5.088-7.965.215-3.968-1.107-8.93-4.05-13.939-3.985-6.76-9.86-11.794-15.246-13.667zm.206-.589c-2.664-.93-5.266-1.121-7.495-.354-3.46 1.188-5.294 4.397-5.517 8.52C0 53.16 1.374 58.243 4.365 63.32c2.757 4.678 6.418 8.561 10.222 11.17 3.798 2.604 7.776 3.963 11.159 3.523l-.04-.31.04.31" clip-rule="evenodd"/>
    <path fill="#FFCF2D" d="M27.338 77.33c-.52.177-1.071.301-1.633.374-6.053-2.744-11.315-14.364-12.428-28.48-.219-2.785-.26-5.487-.146-8.055 5.47 1.902 11.399 6.995 15.413 13.803 5.929 10.093 5.388 20.092-1.206 22.358z"/>
    <path fill="#FFCF2D" fill-rule="evenodd" d="M25.43 77.871L3.07 42.448l.528-.332 22.36 35.422-.527.333z" clip-rule="evenodd"/>
    <path fill="#fff" d="M30 78.556c7.238 0 13.105-17.446 13.105-38.967 0-21.521-5.867-38.967-13.104-38.967-7.238 0-13.105 17.446-13.105 38.967 0 21.52 5.867 38.967 13.104 38.967z"/>
    <path fill="#FFCF2D" fill-rule="evenodd" d="M21.03 12.134c-2.358 7.012-3.822 16.719-3.822 27.455 0 10.736 1.464 20.442 3.822 27.454 1.18 3.508 2.577 6.324 4.114 8.256 1.54 1.936 3.183 2.945 4.857 2.945 1.673 0 3.317-1.008 4.856-2.945 1.537-1.932 2.934-4.748 4.114-8.256 2.358-7.012 3.822-16.718 3.822-27.454s-1.464-20.443-3.822-27.455c-1.18-3.507-2.577-6.323-4.114-8.256-1.54-1.936-3.183-2.945-4.856-2.945-1.674 0-3.318 1.009-4.857 2.945-1.537 1.933-2.934 4.749-4.114 8.256zm3.625-8.644c1.597-2.008 3.4-3.18 5.346-3.18 1.944 0 3.748 1.172 5.345 3.18 1.599 2.01 3.025 4.901 4.217 8.445 2.384 7.092 3.854 16.869 3.854 27.654s-1.47 20.561-3.854 27.653c-1.192 3.544-2.618 6.435-4.217 8.445-1.597 2.008-3.4 3.18-5.345 3.18-1.945 0-3.75-1.172-5.346-3.18-1.598-2.01-3.025-4.901-4.216-8.445-2.385-7.092-3.855-16.868-3.855-27.653s1.47-20.562 3.855-27.654c1.191-3.544 2.618-6.434 4.216-8.445z" clip-rule="evenodd"/>
    <path fill="#FFCF2D" fill-rule="evenodd" d="M29.689 78.556V.611h.624v77.945h-.624z" clip-rule="evenodd"/>
    <path fill="#FFCF2D" fill-rule="evenodd" d="M22.777 6.85c.154-.078.342-.016.42.138l6.855 13.561 8.05-10.78c.103-.138.299-.166.437-.063.138.103.166.298.063.436L29.95 21.729 22.64 7.27c-.077-.154-.016-.341.138-.42z" clip-rule="evenodd"/>
    <path fill="#FFCF2D" fill-rule="evenodd" d="M19.748 15.094c.153-.08.341-.02.42.133l9.794 18.936 10.852-14.912c.102-.139.297-.17.436-.069.14.102.17.297.069.436l-11.447 15.73-10.258-19.834c-.079-.153-.019-.341.134-.42z" clip-rule="evenodd"/>
    <path fill="#FFCF2D" fill-rule="evenodd" d="M17.803 25.124c.153-.08.341-.02.42.133l11.635 22.419 12.693-17.49c.101-.14.296-.17.436-.07.14.102.17.297.069.436L29.769 48.86l-12.1-23.316c-.079-.152-.02-.34.134-.42z" clip-rule="evenodd"/>
    <path fill="#FFCF2D" fill-rule="evenodd" d="M16.782 39.344c.152-.08.341-.022.421.13l12.713 24.104 13.445-18.797c.1-.14.295-.172.435-.072.14.1.173.295.073.435L29.836 64.763 16.65 39.765c-.08-.152-.022-.34.13-.421z" clip-rule="evenodd"/>
    <path fill="#fff" d="M49.429 90.686H10.54c-2.995 0-5.429-2.433-5.429-5.426v-1.694c0-2.994 2.434-5.426 5.43-5.426h38.887c2.995 0 5.429 2.432 5.429 5.426v1.694c0 3.004-2.434 5.425-5.43 5.425z"/>
    <path fill="#66B0F0" fill-rule="evenodd" d="M10.541 78.452c-2.823 0-5.117 2.292-5.117 5.114v1.694c0 2.821 2.294 5.114 5.117 5.114H49.43c2.823 0 5.117-2.283 5.117-5.114v-1.694c0-2.822-2.294-5.114-5.117-5.114H10.54zm-5.74 5.114c0-3.166 2.573-5.738 5.74-5.738H49.43c3.167 0 5.74 2.572 5.74 5.738v1.694c0 3.176-2.573 5.737-5.74 5.737H10.54c-3.167 0-5.74-2.571-5.74-5.737v-1.694z" clip-rule="evenodd"/>
</svg>
